<svg id="Calque_1" data-name="Calque 1" xmlns="http://www.w3.org/2000/svg" viewBox="0 0 893.55 687.99"><defs><style>.cls-1{isolation:isolate;}.cls-2{fill:none;stroke:#000;}.cls-3{fill:#367c6e;}.cls-4{fill:#fcb316;}</style></defs><title>confirmation_frame</title><g id="CONFIRMATION" class="cls-1"><g class="cls-1"><path d="M-241.25,46a2.44,2.44,0,0,1-.71,1.72,2.52,2.52,0,0,1-1.77.72,2.19,2.19,0,0,1-1.7-.68,20.82,20.82,0,0,0-6.82-4.57A20.51,20.51,0,0,0-260,41.64a20,20,0,0,0-7.94,1.6,20.5,20.5,0,0,0-6.49,4.37,20.59,20.59,0,0,0-4.37,6.51,20.09,20.09,0,0,0-1.6,8,20.06,20.06,0,0,0,1.54,7.8,20.89,20.89,0,0,0,4.25,6.51,20.43,20.43,0,0,0,6.44,4.47,19.74,19.74,0,0,0,8.09,1.65,20.84,20.84,0,0,0,7.72-1.36,19.38,19.38,0,0,0,6.83-4.52,2.56,2.56,0,0,1,1.75-.73,2.37,2.37,0,0,1,1.72.65,2.26,2.26,0,0,1,.72,1.75,2.39,2.39,0,0,1-.68,1.72,24.53,24.53,0,0,1-8.47,5.63,26.09,26.09,0,0,1-9.59,1.82,24.59,24.59,0,0,1-6.71-.92,25.92,25.92,0,0,1-6-2.55,24.81,24.81,0,0,1-5.11-4,25.23,25.23,0,0,1-3.94-5.15,26.16,26.16,0,0,1-2.54-6.06,25.51,25.51,0,0,1-.89-6.75,24.66,24.66,0,0,1,.86-6.51,25.75,25.75,0,0,1,2.43-6,26.8,26.8,0,0,1,3.84-5.19,24.84,24.84,0,0,1,5.09-4.09A24.93,24.93,0,0,1-267,37.65a24.87,24.87,0,0,1,7-1,25.1,25.1,0,0,1,9.57,1.91A25.57,25.57,0,0,1-242,44.26,2.35,2.35,0,0,1-241.25,46Z" transform="translate(285.82 -36.19)"/><path d="M-202.7,38.72a25.52,25.52,0,0,1,8.07,5.44,25.94,25.94,0,0,1,5.46,8.05,24.4,24.4,0,0,1,2,9.87,25,25,0,0,1-.92,6.77,25.89,25.89,0,0,1-2.55,6.06,25.26,25.26,0,0,1-4,5.15,25.61,25.61,0,0,1-5.15,4,25.89,25.89,0,0,1-6.06,2.55,24.92,24.92,0,0,1-6.77.92,24.92,24.92,0,0,1-6.77-.92A25.89,25.89,0,0,1-225.42,84a24.56,24.56,0,0,1-5.11-4,26.16,26.16,0,0,1-3.94-5.15A25,25,0,0,1-237,68.85a25.36,25.36,0,0,1-.9-6.77,25.1,25.1,0,0,1,.9-6.75,25,25,0,0,1,2.53-6,25.75,25.75,0,0,1,3.94-5.13,25.25,25.25,0,0,1,5.11-4,24.68,24.68,0,0,1,6.06-2.55,25.31,25.31,0,0,1,6.77-.9A24.69,24.69,0,0,1-202.7,38.72Zm-17.86,4.56A20.24,20.24,0,0,0-227,47.65a20.93,20.93,0,0,0-4.35,6.47,20,20,0,0,0-1.6,8,20.17,20.17,0,0,0,1.6,8,20.83,20.83,0,0,0,4.35,6.5A20.4,20.4,0,0,0-220.56,81a20.16,20.16,0,0,0,8,1.59,20.16,20.16,0,0,0,8-1.59,20.78,20.78,0,0,0,6.49-4.37,20.71,20.71,0,0,0,4.37-6.5,20.17,20.17,0,0,0,1.6-8,20,20,0,0,0-1.6-8,20.81,20.81,0,0,0-4.37-6.47,20.61,20.61,0,0,0-6.49-4.37,20,20,0,0,0-8-1.6A20,20,0,0,0-220.56,43.28Z" transform="translate(285.82 -36.19)"/><path d="M-177,37.39h.08a.25.25,0,0,0,.11.12h0l.08,0a.12.12,0,0,1,.08,0,.19.19,0,0,1,.15.08,2,2,0,0,1,.67.81l27.18,38.69V39.54a2.37,2.37,0,0,1,.72-1.74,2.41,2.41,0,0,1,1.78-.72,2.27,2.27,0,0,1,1.73.72,2.41,2.41,0,0,1,.68,1.74v45a2.35,2.35,0,0,1-.56,1.56,2.37,2.37,0,0,1-1.43.82,1.81,1.81,0,0,1-.46,0,2.53,2.53,0,0,1-1.84-.74l-.15-.23-.12-.12L-175.5,47V84.58a2.31,2.31,0,0,1-.72,1.72A2.39,2.39,0,0,1-178,87a2.39,2.39,0,0,1-1.73-.7,2.31,2.31,0,0,1-.72-1.72v-45a2.31,2.31,0,0,1,.72-1.72,2.39,2.39,0,0,1,1.73-.7h.2a3.74,3.74,0,0,1,.74.23Z" transform="translate(285.82 -36.19)"/><path d="M-110.1,37.08a2.33,2.33,0,0,1,1.72.7,2.37,2.37,0,0,1,.7,1.76,2.37,2.37,0,0,1-.7,1.75,2.33,2.33,0,0,1-1.72.7h-20V59.5h14.54a2.38,2.38,0,0,1,1.74.73,2.36,2.36,0,0,1,.72,1.73,2.18,2.18,0,0,1-.72,1.68,2.48,2.48,0,0,1-1.74.66h-14.54V84.58a2.31,2.31,0,0,1-.72,1.74,2.47,2.47,0,0,1-1.74.68,2.39,2.39,0,0,1-1.76-.7,2.37,2.37,0,0,1-.7-1.72V39.46a2.77,2.77,0,0,1,.14-.82,2.13,2.13,0,0,1,.43-.78,2.23,2.23,0,0,1,.76-.57,2.75,2.75,0,0,1,1.13-.21Z" transform="translate(285.82 -36.19)"/><path d="M-97,84.58a2.32,2.32,0,0,1-.73,1.72,2.39,2.39,0,0,1-1.73.7,2.39,2.39,0,0,1-1.74-.7,2.31,2.31,0,0,1-.72-1.72V39.5a2.31,2.31,0,0,1,.72-1.74,2.46,2.46,0,0,1,1.74-.68,2.45,2.45,0,0,1,1.73.68A2.32,2.32,0,0,1-97,39.5Z" transform="translate(285.82 -36.19)"/><path d="M-56.55,51.35a13.88,13.88,0,0,1-.88,5,13.71,13.71,0,0,1-2.44,4.13,14.29,14.29,0,0,1-3.7,3.06,14.45,14.45,0,0,1-4.68,1.72l11.31,18.09a2.35,2.35,0,0,1,.19,2A2.38,2.38,0,0,1-58,86.73a2.28,2.28,0,0,1-1.82.17,2.48,2.48,0,0,1-1.42-1.15L-73.71,65.51h-8.23V84.58a2.31,2.31,0,0,1-.72,1.72,2.39,2.39,0,0,1-1.74.7,2.39,2.39,0,0,1-1.73-.7,2.31,2.31,0,0,1-.72-1.72V39.5a2.31,2.31,0,0,1,.72-1.74,2.45,2.45,0,0,1,1.73-.68h13.11a15.19,15.19,0,0,1,5.77,1.09,14.78,14.78,0,0,1,4.68,3A14.31,14.31,0,0,1-57.7,45.7,14,14,0,0,1-56.55,51.35Zm-25.39-9.43V60.6h10.69a10,10,0,0,0,3.9-.76,10,10,0,0,0,3.1-2.05,9.41,9.41,0,0,0,2-3,8.75,8.75,0,0,0,.74-3.57,8.86,8.86,0,0,0-.76-3.69,9.13,9.13,0,0,0-2.06-2.94,9.59,9.59,0,0,0-3.12-2,10.55,10.55,0,0,0-3.92-.72Z" transform="translate(285.82 -36.19)"/><path d="M-43.14,48.9l-4.75,35.88a2.4,2.4,0,0,1-1,1.6,2.46,2.46,0,0,1-1.81.46,2.57,2.57,0,0,1-1.62-1,2.24,2.24,0,0,1-.45-1.79l5.93-44.62A2.2,2.2,0,0,1-46.06,38a3.15,3.15,0,0,1,.86-.59,2.37,2.37,0,0,1,1.85,0A2.4,2.4,0,0,1-42,38.72l16.11,39.54L-9.75,38.72a2.41,2.41,0,0,1,1.28-1.29,2.36,2.36,0,0,1,1.88,0l.43.24a2.82,2.82,0,0,1,.78.76,2.46,2.46,0,0,1,.39,1L.66,84.15A2.32,2.32,0,0,1,.15,86a2.31,2.31,0,0,1-1.63.89,2.44,2.44,0,0,1-1.82-.48,2.28,2.28,0,0,1-.91-1.62L-8.74,49.09-23.64,85.6a2.48,2.48,0,0,1-1,1.17,2.24,2.24,0,0,1-1.4.31,2.44,2.44,0,0,1-1.23-.41,2.46,2.46,0,0,1-.88-1.07Z" transform="translate(285.82 -36.19)"/><path d="M35.33,71.4H12.91l-6,14.12a2.4,2.4,0,0,1-1.37,1.34,2.46,2.46,0,0,1-1.95-.06,2.12,2.12,0,0,1-1.26-1.36,2.54,2.54,0,0,1,.13-1.87L22,38.56a2.46,2.46,0,0,1,3.59-1.09,2.49,2.49,0,0,1,.9,1.09l19.34,45a2.55,2.55,0,0,1,.14,1.89,2.17,2.17,0,0,1-1.23,1.34,2.35,2.35,0,0,1-1.91.06,2.39,2.39,0,0,1-1.4-1.3ZM15,66.49H33.26L24.1,44.92Z" transform="translate(285.82 -36.19)"/><path d="M58.65,42V84.54a2.39,2.39,0,0,1-.7,1.74A2.35,2.35,0,0,1,56.2,87a2.18,2.18,0,0,1-1.68-.72,2.48,2.48,0,0,1-.66-1.74V42H41.73A2.32,2.32,0,0,1,40,41.23a2.39,2.39,0,0,1-.7-1.73,2.39,2.39,0,0,1,2.42-2.42h29.4a2.31,2.31,0,0,1,1.72.72,2.39,2.39,0,0,1,.7,1.74,2.29,2.29,0,0,1-.7,1.73,2.36,2.36,0,0,1-1.72.69Z" transform="translate(285.82 -36.19)"/><path d="M84.51,84.58a2.31,2.31,0,0,1-.72,1.72,2.5,2.5,0,0,1-3.47,0,2.31,2.31,0,0,1-.72-1.72V39.5a2.31,2.31,0,0,1,.72-1.74,2.55,2.55,0,0,1,3.47,0,2.31,2.31,0,0,1,.72,1.74Z" transform="translate(285.82 -36.19)"/><path d="M126.45,38.72a25.56,25.56,0,0,1,8.08,5.44A25.94,25.94,0,0,1,140,52.21a24.4,24.4,0,0,1,2,9.87,25,25,0,0,1-.92,6.77,25.5,25.5,0,0,1-2.56,6.06,25.21,25.21,0,0,1-4,5.15,25.61,25.61,0,0,1-5.15,4,26,26,0,0,1-6.07,2.55,25.33,25.33,0,0,1-13.53,0A25.89,25.89,0,0,1,103.74,84a24.3,24.3,0,0,1-5.11-4,25.78,25.78,0,0,1-3.94-5.15,25.24,25.24,0,0,1-3.43-12.83,25.1,25.1,0,0,1,.89-6.75,25.42,25.42,0,0,1,6.48-11.17,25,25,0,0,1,5.11-4,24.68,24.68,0,0,1,6.06-2.55,25.31,25.31,0,0,1,6.77-.9A24.64,24.64,0,0,1,126.45,38.72Zm-17.86,4.56a20.3,20.3,0,0,0-6.47,4.37,20.58,20.58,0,0,0-4.35,6.47,20.72,20.72,0,0,0,0,16A20.32,20.32,0,0,0,108.59,81a20.9,20.9,0,0,0,16,0,20.83,20.83,0,0,0,6.5-4.37,20.52,20.52,0,0,0,4.36-6.5,20.72,20.72,0,0,0,0-16,20.38,20.38,0,0,0-10.86-10.84,20.77,20.77,0,0,0-16,0Z" transform="translate(285.82 -36.19)"/><path d="M152.17,37.39h.08a.34.34,0,0,0,.12.12h0l.08,0a.09.09,0,0,1,.07,0,.19.19,0,0,1,.16.08,1.94,1.94,0,0,1,.66.81l27.19,38.69V39.54a2.37,2.37,0,0,1,.72-1.74,2.41,2.41,0,0,1,1.77-.72,2.31,2.31,0,0,1,1.74.72,2.46,2.46,0,0,1,.68,1.74v45a2.31,2.31,0,0,1-.57,1.56,2.35,2.35,0,0,1-1.42.82,1.84,1.84,0,0,1-.47,0,2.49,2.49,0,0,1-1.83-.74L181,86l-.11-.12L153.66,47V84.58a2.28,2.28,0,0,1-.73,1.72,2.5,2.5,0,0,1-3.47,0,2.31,2.31,0,0,1-.72-1.72v-45a2.31,2.31,0,0,1,.72-1.72,2.39,2.39,0,0,1,1.74-.7h.19a3.54,3.54,0,0,1,.74.23Z" transform="translate(285.82 -36.19)"/></g><g class="cls-1"><path class="cls-2" d="M-241.25,46a2.44,2.44,0,0,1-.71,1.72,2.52,2.52,0,0,1-1.77.72,2.19,2.19,0,0,1-1.7-.68,20.82,20.82,0,0,0-6.82-4.57A20.51,20.51,0,0,0-260,41.64a20,20,0,0,0-7.94,1.6,20.5,20.5,0,0,0-6.49,4.37,20.59,20.59,0,0,0-4.37,6.51,20.09,20.09,0,0,0-1.6,8,20.06,20.06,0,0,0,1.54,7.8,20.89,20.89,0,0,0,4.25,6.51,20.43,20.43,0,0,0,6.44,4.47,19.74,19.74,0,0,0,8.09,1.65,20.84,20.84,0,0,0,7.72-1.36,19.38,19.38,0,0,0,6.83-4.52,2.56,2.56,0,0,1,1.75-.73,2.37,2.37,0,0,1,1.72.65,2.26,2.26,0,0,1,.72,1.75,2.39,2.39,0,0,1-.68,1.72,24.53,24.53,0,0,1-8.47,5.63,26.09,26.09,0,0,1-9.59,1.82,24.59,24.59,0,0,1-6.71-.92,25.92,25.92,0,0,1-6-2.55,24.81,24.81,0,0,1-5.11-4,25.23,25.23,0,0,1-3.94-5.15,26.16,26.16,0,0,1-2.54-6.06,25.51,25.51,0,0,1-.89-6.75,24.66,24.66,0,0,1,.86-6.51,25.75,25.75,0,0,1,2.43-6,26.8,26.8,0,0,1,3.84-5.19,24.84,24.84,0,0,1,5.09-4.09A24.93,24.93,0,0,1-267,37.65a24.87,24.87,0,0,1,7-1,25.1,25.1,0,0,1,9.57,1.91A25.57,25.57,0,0,1-242,44.26,2.35,2.35,0,0,1-241.25,46Z" transform="translate(285.82 -36.19)"/><path class="cls-2" d="M-202.7,38.72a25.52,25.52,0,0,1,8.07,5.44,25.94,25.94,0,0,1,5.46,8.05,24.4,24.4,0,0,1,2,9.87,25,25,0,0,1-.92,6.77,25.89,25.89,0,0,1-2.55,6.06,25.26,25.26,0,0,1-4,5.15,25.61,25.61,0,0,1-5.15,4,25.89,25.89,0,0,1-6.06,2.55,24.92,24.92,0,0,1-6.77.92,24.92,24.92,0,0,1-6.77-.92A25.89,25.89,0,0,1-225.42,84a24.56,24.56,0,0,1-5.11-4,26.16,26.16,0,0,1-3.94-5.15A25,25,0,0,1-237,68.85a25.36,25.36,0,0,1-.9-6.77,25.1,25.1,0,0,1,.9-6.75,25,25,0,0,1,2.53-6,25.75,25.75,0,0,1,3.94-5.13,25.25,25.25,0,0,1,5.11-4,24.68,24.68,0,0,1,6.06-2.55,25.31,25.31,0,0,1,6.77-.9A24.69,24.69,0,0,1-202.7,38.72Zm-17.86,4.56A20.24,20.24,0,0,0-227,47.65a20.93,20.93,0,0,0-4.35,6.47,20,20,0,0,0-1.6,8,20.17,20.17,0,0,0,1.6,8,20.83,20.83,0,0,0,4.35,6.5A20.4,20.4,0,0,0-220.56,81a20.16,20.16,0,0,0,8,1.59,20.16,20.16,0,0,0,8-1.59,20.78,20.78,0,0,0,6.49-4.37,20.71,20.71,0,0,0,4.37-6.5,20.17,20.17,0,0,0,1.6-8,20,20,0,0,0-1.6-8,20.81,20.81,0,0,0-4.37-6.47,20.61,20.61,0,0,0-6.49-4.37,20,20,0,0,0-8-1.6A20,20,0,0,0-220.56,43.28Z" transform="translate(285.82 -36.19)"/><path class="cls-2" d="M-177,37.39h.08a.25.25,0,0,0,.11.12h0l.08,0a.12.12,0,0,1,.08,0,.19.19,0,0,1,.15.08,2,2,0,0,1,.67.81l27.18,38.69V39.54a2.37,2.37,0,0,1,.72-1.74,2.41,2.41,0,0,1,1.78-.72,2.27,2.27,0,0,1,1.73.72,2.41,2.41,0,0,1,.68,1.74v45a2.35,2.35,0,0,1-.56,1.56,2.37,2.37,0,0,1-1.43.82,1.81,1.81,0,0,1-.46,0,2.53,2.53,0,0,1-1.84-.74l-.15-.23-.12-.12L-175.5,47V84.58a2.31,2.31,0,0,1-.72,1.72A2.39,2.39,0,0,1-178,87a2.39,2.39,0,0,1-1.73-.7,2.31,2.31,0,0,1-.72-1.72v-45a2.31,2.31,0,0,1,.72-1.72,2.39,2.39,0,0,1,1.73-.7h.2a3.74,3.74,0,0,1,.74.23Z" transform="translate(285.82 -36.19)"/><path class="cls-2" d="M-110.1,37.08a2.33,2.33,0,0,1,1.72.7,2.37,2.37,0,0,1,.7,1.76,2.37,2.37,0,0,1-.7,1.75,2.33,2.33,0,0,1-1.72.7h-20V59.5h14.54a2.38,2.38,0,0,1,1.74.73,2.36,2.36,0,0,1,.72,1.73,2.18,2.18,0,0,1-.72,1.68,2.48,2.48,0,0,1-1.74.66h-14.54V84.58a2.31,2.31,0,0,1-.72,1.74,2.47,2.47,0,0,1-1.74.68,2.39,2.39,0,0,1-1.76-.7,2.37,2.37,0,0,1-.7-1.72V39.46a2.77,2.77,0,0,1,.14-.82,2.13,2.13,0,0,1,.43-.78,2.23,2.23,0,0,1,.76-.57,2.75,2.75,0,0,1,1.13-.21Z" transform="translate(285.82 -36.19)"/><path class="cls-2" d="M-97,84.58a2.32,2.32,0,0,1-.73,1.72,2.39,2.39,0,0,1-1.73.7,2.39,2.39,0,0,1-1.74-.7,2.31,2.31,0,0,1-.72-1.72V39.5a2.31,2.31,0,0,1,.72-1.74,2.46,2.46,0,0,1,1.74-.68,2.45,2.45,0,0,1,1.73.68A2.32,2.32,0,0,1-97,39.5Z" transform="translate(285.82 -36.19)"/><path class="cls-2" d="M-56.55,51.35a13.88,13.88,0,0,1-.88,5,13.71,13.71,0,0,1-2.44,4.13,14.29,14.29,0,0,1-3.7,3.06,14.45,14.45,0,0,1-4.68,1.72l11.31,18.09a2.35,2.35,0,0,1,.19,2A2.38,2.38,0,0,1-58,86.73a2.28,2.28,0,0,1-1.82.17,2.48,2.48,0,0,1-1.42-1.15L-73.71,65.51h-8.23V84.58a2.31,2.31,0,0,1-.72,1.72,2.39,2.39,0,0,1-1.74.7,2.39,2.39,0,0,1-1.73-.7,2.31,2.31,0,0,1-.72-1.72V39.5a2.31,2.31,0,0,1,.72-1.74,2.45,2.45,0,0,1,1.73-.68h13.11a15.19,15.19,0,0,1,5.77,1.09,14.78,14.78,0,0,1,4.68,3A14.31,14.31,0,0,1-57.7,45.7,14,14,0,0,1-56.55,51.35Zm-25.39-9.43V60.6h10.69a10,10,0,0,0,3.9-.76,10,10,0,0,0,3.1-2.05,9.41,9.41,0,0,0,2-3,8.75,8.75,0,0,0,.74-3.57,8.86,8.86,0,0,0-.76-3.69,9.13,9.13,0,0,0-2.06-2.94,9.59,9.59,0,0,0-3.12-2,10.55,10.55,0,0,0-3.92-.72Z" transform="translate(285.82 -36.19)"/><path class="cls-2" d="M-43.14,48.9l-4.75,35.88a2.4,2.4,0,0,1-1,1.6,2.46,2.46,0,0,1-1.81.46,2.57,2.57,0,0,1-1.62-1,2.24,2.24,0,0,1-.45-1.79l5.93-44.62A2.2,2.2,0,0,1-46.06,38a3.15,3.15,0,0,1,.86-.59,2.37,2.37,0,0,1,1.85,0A2.4,2.4,0,0,1-42,38.72l16.11,39.54L-9.75,38.72a2.41,2.41,0,0,1,1.28-1.29,2.36,2.36,0,0,1,1.88,0l.43.24a2.82,2.82,0,0,1,.78.76,2.46,2.46,0,0,1,.39,1L.66,84.15A2.32,2.32,0,0,1,.15,86a2.31,2.31,0,0,1-1.63.89,2.44,2.44,0,0,1-1.82-.48,2.28,2.28,0,0,1-.91-1.62L-8.74,49.09-23.64,85.6a2.48,2.48,0,0,1-1,1.17,2.24,2.24,0,0,1-1.4.31,2.44,2.44,0,0,1-1.23-.41,2.46,2.46,0,0,1-.88-1.07Z" transform="translate(285.82 -36.19)"/><path class="cls-2" d="M35.33,71.4H12.91l-6,14.12a2.4,2.4,0,0,1-1.37,1.34,2.46,2.46,0,0,1-1.95-.06,2.12,2.12,0,0,1-1.26-1.36,2.54,2.54,0,0,1,.13-1.87L22,38.56a2.46,2.46,0,0,1,3.59-1.09,2.49,2.49,0,0,1,.9,1.09l19.34,45a2.55,2.55,0,0,1,.14,1.89,2.17,2.17,0,0,1-1.23,1.34,2.35,2.35,0,0,1-1.91.06,2.39,2.39,0,0,1-1.4-1.3ZM15,66.49H33.26L24.1,44.92Z" transform="translate(285.82 -36.19)"/><path class="cls-2" d="M58.65,42V84.54a2.39,2.39,0,0,1-.7,1.74A2.35,2.35,0,0,1,56.2,87a2.18,2.18,0,0,1-1.68-.72,2.48,2.48,0,0,1-.66-1.74V42H41.73A2.32,2.32,0,0,1,40,41.23a2.39,2.39,0,0,1-.7-1.73,2.39,2.39,0,0,1,2.42-2.42h29.4a2.31,2.31,0,0,1,1.72.72,2.39,2.39,0,0,1,.7,1.74,2.29,2.29,0,0,1-.7,1.73,2.36,2.36,0,0,1-1.72.69Z" transform="translate(285.82 -36.19)"/><path class="cls-2" d="M84.51,84.58a2.31,2.31,0,0,1-.72,1.72,2.5,2.5,0,0,1-3.47,0,2.31,2.31,0,0,1-.72-1.72V39.5a2.31,2.31,0,0,1,.72-1.74,2.55,2.55,0,0,1,3.47,0,2.31,2.31,0,0,1,.72,1.74Z" transform="translate(285.82 -36.19)"/><path class="cls-2" d="M126.45,38.72a25.56,25.56,0,0,1,8.08,5.44A25.94,25.94,0,0,1,140,52.21a24.4,24.4,0,0,1,2,9.87,25,25,0,0,1-.92,6.77,25.5,25.5,0,0,1-2.56,6.06,25.21,25.21,0,0,1-4,5.15,25.61,25.61,0,0,1-5.15,4,26,26,0,0,1-6.07,2.55,25.33,25.33,0,0,1-13.53,0A25.89,25.89,0,0,1,103.74,84a24.3,24.3,0,0,1-5.11-4,25.78,25.78,0,0,1-3.94-5.15,25.24,25.24,0,0,1-3.43-12.83,25.1,25.1,0,0,1,.89-6.75,25.42,25.42,0,0,1,6.48-11.17,25,25,0,0,1,5.11-4,24.68,24.68,0,0,1,6.06-2.55,25.31,25.31,0,0,1,6.77-.9A24.64,24.64,0,0,1,126.45,38.72Zm-17.86,4.56a20.3,20.3,0,0,0-6.47,4.37,20.58,20.58,0,0,0-4.35,6.47,20.72,20.72,0,0,0,0,16A20.32,20.32,0,0,0,108.59,81a20.9,20.9,0,0,0,16,0,20.83,20.83,0,0,0,6.5-4.37,20.52,20.52,0,0,0,4.36-6.5,20.72,20.72,0,0,0,0-16,20.38,20.38,0,0,0-10.86-10.84,20.77,20.77,0,0,0-16,0Z" transform="translate(285.82 -36.19)"/><path class="cls-2" d="M152.17,37.39h.08a.34.34,0,0,0,.12.12h0l.08,0a.09.09,0,0,1,.07,0,.19.19,0,0,1,.16.08,1.94,1.94,0,0,1,.66.81l27.19,38.69V39.54a2.37,2.37,0,0,1,.72-1.74,2.41,2.41,0,0,1,1.77-.72,2.31,2.31,0,0,1,1.74.72,2.46,2.46,0,0,1,.68,1.74v45a2.31,2.31,0,0,1-.57,1.56,2.35,2.35,0,0,1-1.42.82,1.84,1.84,0,0,1-.47,0,2.49,2.49,0,0,1-1.83-.74L181,86l-.11-.12L153.66,47V84.58a2.28,2.28,0,0,1-.73,1.72,2.5,2.5,0,0,1-3.47,0,2.31,2.31,0,0,1-.72-1.72v-45a2.31,2.31,0,0,1,.72-1.72,2.39,2.39,0,0,1,1.74-.7h.19a3.54,3.54,0,0,1,.74.23Z" transform="translate(285.82 -36.19)"/></g></g><rect id="Rectangle_93" data-name="Rectangle 93" class="cls-3" x="2.54" y="63.81" width="8.56" height="314.74"/><rect id="Rectangle_94" data-name="Rectangle 94" class="cls-4" x="884.99" y="650.45" width="8.56" height="25.53"/><rect id="Rectangle_95" data-name="Rectangle 95" class="cls-4" x="2.54" y="387.31" width="8.56" height="49.19"/><rect x="885.27" y="482.25" width="8" height="148.06"/><path d="M607.44,450.77h-8V72.87L279,72.5v-8l324.45.37a4,4,0,0,1,4,4Z" transform="translate(285.82 -36.19)"/><path d="M102.9,724.18H-279a4,4,0,0,1-4-4V612.83h8V716.18H102.9Z" transform="translate(285.82 -36.19)"/></svg>