<svg id="Calque_1" data-name="Calque 1" xmlns="http://www.w3.org/2000/svg" viewBox="0 0 422.29 324.79"><defs><style>.cls-1{isolation:isolate;}.cls-2{fill:none;stroke:#000;}.cls-3{fill:#367c6e;}.cls-4{fill:#fcb316;}</style></defs><title>confirmation_frame</title><g id="CONFIRMATION" class="cls-1"><g class="cls-1"><path d="M102.42,305.21a15,15,0,0,1-7.06,1.5,11.39,11.39,0,0,1-8.73-3.51A13,13,0,0,1,83.35,294a13.55,13.55,0,0,1,3.69-9.9,12.52,12.52,0,0,1,9.36-3.78,15,15,0,0,1,6,1.05v3.19A12.24,12.24,0,0,0,96.36,283,9.28,9.28,0,0,0,89.23,286a11,11,0,0,0-2.74,7.85,10.49,10.49,0,0,0,2.56,7.44A8.69,8.69,0,0,0,95.76,304a12.6,12.6,0,0,0,6.66-1.72Z" transform="translate(-78 -279.8)"/><path d="M116.94,306.71a11.21,11.21,0,0,1-8.7-3.59A13.26,13.26,0,0,1,105,293.8q0-6.17,3.33-9.83a11.63,11.63,0,0,1,9.07-3.67,11,11,0,0,1,8.53,3.56,13.36,13.36,0,0,1,3.23,9.32q0,6.26-3.31,9.89A11.45,11.45,0,0,1,116.94,306.71Zm.22-23.7a8.21,8.21,0,0,0-6.54,2.9,12.91,12.91,0,0,0-.07,15.23,8,8,0,0,0,6.39,2.88,8.38,8.38,0,0,0,6.63-2.75q2.43-2.75,2.43-7.68t-2.36-7.82A8.05,8.05,0,0,0,117.16,283Z" transform="translate(-78 -279.8)"/><path d="M154.76,306.28h-3.68l-13.15-20.37a9,9,0,0,1-.82-1.6H137a27.27,27.27,0,0,1,.14,3.51v18.46h-3V280.73H138l12.8,20c.53.83.87,1.4,1,1.71h.07a26.71,26.71,0,0,1-.18-3.76v-18h3Z" transform="translate(-78 -279.8)"/><path d="M174.43,283.43h-10v8.84h9.23V295h-9.23v11.32h-3V280.73h13Z" transform="translate(-78 -279.8)"/><path d="M182.27,306.28h-3V280.73h3Z" transform="translate(-78 -279.8)"/><path d="M207.3,306.28h-3.56l-4.28-7.17a15.61,15.61,0,0,0-1.14-1.7,6.18,6.18,0,0,0-1.13-1.15,4,4,0,0,0-1.25-.65,5.29,5.29,0,0,0-1.5-.2H192v10.87h-3V280.73h7.62a11.16,11.16,0,0,1,3.09.41,6.86,6.86,0,0,1,2.46,1.28,5.84,5.84,0,0,1,1.63,2.13,6.92,6.92,0,0,1,.59,3A7.12,7.12,0,0,1,204,290a6.42,6.42,0,0,1-1.14,2,7,7,0,0,1-1.78,1.49,9,9,0,0,1-2.34,1v.07a5.9,5.9,0,0,1,1.11.65,6.65,6.65,0,0,1,.9.87,12.31,12.31,0,0,1,.85,1.13c.27.42.59.91.93,1.47ZM192,283.43v9.27H196a6.09,6.09,0,0,0,2.08-.34,4.86,4.86,0,0,0,1.65-1,4.41,4.41,0,0,0,1.08-1.55,5,5,0,0,0,.4-2.06,4,4,0,0,0-1.33-3.2,5.75,5.75,0,0,0-3.84-1.15Z" transform="translate(-78 -279.8)"/><path d="M236.87,306.28h-3V289.14c0-1.36.08-3,.25-5h-.07a15.7,15.7,0,0,1-.77,2.48l-8.73,19.64h-1.46l-8.71-19.5a14.94,14.94,0,0,1-.77-2.62h-.07c.09,1,.14,2.7.14,5v17.11h-2.89V280.73h4l7.84,17.81a22.7,22.7,0,0,1,1.18,3.07h.1c.51-1.4.92-2.45,1.23-3.14l8-17.74h3.75Z" transform="translate(-78 -279.8)"/><path d="M263.36,306.28h-3.31l-2.71-7.17H246.51L244,306.28h-3.33l9.8-25.55h3.1Zm-7-9.86-4-10.88a10.66,10.66,0,0,1-.39-1.71h-.07a10.26,10.26,0,0,1-.41,1.71l-4,10.88Z" transform="translate(-78 -279.8)"/><path d="M279.62,283.43h-7.38v22.85h-3V283.43h-7.36v-2.7h17.74Z" transform="translate(-78 -279.8)"/><path d="M286.62,306.28h-3V280.73h3Z" transform="translate(-78 -279.8)"/><path d="M303.63,306.71a11.21,11.21,0,0,1-8.7-3.59,13.26,13.26,0,0,1-3.27-9.32q0-6.17,3.33-9.83a11.63,11.63,0,0,1,9.07-3.67,11,11,0,0,1,8.53,3.56,13.32,13.32,0,0,1,3.23,9.32q0,6.26-3.31,9.89A11.45,11.45,0,0,1,303.63,306.71Zm.22-23.7a8.21,8.21,0,0,0-6.54,2.9,12.93,12.93,0,0,0-.06,15.23,8,8,0,0,0,6.38,2.88,8.38,8.38,0,0,0,6.63-2.75q2.43-2.75,2.43-7.68c0-3.37-.79-6-2.35-7.82A8.07,8.07,0,0,0,303.85,283Z" transform="translate(-78 -279.8)"/><path d="M341.45,306.28h-3.67l-13.15-20.37a7.81,7.81,0,0,1-.82-1.6h-.11a27.27,27.27,0,0,1,.14,3.51v18.46h-3V280.73h3.88l12.8,20c.53.83.88,1.4,1,1.71h.07a26.71,26.71,0,0,1-.18-3.76v-18h3Z" transform="translate(-78 -279.8)"/></g><g class="cls-1"><path class="cls-2" d="M102.42,305.21a15,15,0,0,1-7.06,1.5,11.39,11.39,0,0,1-8.73-3.51A13,13,0,0,1,83.35,294a13.55,13.55,0,0,1,3.69-9.9,12.52,12.52,0,0,1,9.36-3.78,15,15,0,0,1,6,1.05v3.19A12.24,12.24,0,0,0,96.36,283,9.28,9.28,0,0,0,89.23,286a11,11,0,0,0-2.74,7.85,10.49,10.49,0,0,0,2.56,7.44A8.69,8.69,0,0,0,95.76,304a12.6,12.6,0,0,0,6.66-1.72Z" transform="translate(-78 -279.8)"/><path class="cls-2" d="M116.94,306.71a11.21,11.21,0,0,1-8.7-3.59A13.26,13.26,0,0,1,105,293.8q0-6.17,3.33-9.83a11.63,11.63,0,0,1,9.07-3.67,11,11,0,0,1,8.53,3.56,13.36,13.36,0,0,1,3.23,9.32q0,6.26-3.31,9.89A11.45,11.45,0,0,1,116.94,306.71Zm.22-23.7a8.21,8.21,0,0,0-6.54,2.9,12.91,12.91,0,0,0-.07,15.23,8,8,0,0,0,6.39,2.88,8.38,8.38,0,0,0,6.63-2.75q2.43-2.75,2.43-7.68t-2.36-7.82A8.05,8.05,0,0,0,117.16,283Z" transform="translate(-78 -279.8)"/><path class="cls-2" d="M154.76,306.28h-3.68l-13.15-20.37a9,9,0,0,1-.82-1.6H137a27.27,27.27,0,0,1,.14,3.51v18.46h-3V280.73H138l12.8,20c.53.83.87,1.4,1,1.71h.07a26.71,26.71,0,0,1-.18-3.76v-18h3Z" transform="translate(-78 -279.8)"/><path class="cls-2" d="M174.43,283.43h-10v8.84h9.23V295h-9.23v11.32h-3V280.73h13Z" transform="translate(-78 -279.8)"/><path class="cls-2" d="M182.27,306.28h-3V280.73h3Z" transform="translate(-78 -279.8)"/><path class="cls-2" d="M207.3,306.28h-3.56l-4.28-7.17a15.61,15.61,0,0,0-1.14-1.7,6.18,6.18,0,0,0-1.13-1.15,4,4,0,0,0-1.25-.65,5.29,5.29,0,0,0-1.5-.2H192v10.87h-3V280.73h7.62a11.16,11.16,0,0,1,3.09.41,6.86,6.86,0,0,1,2.46,1.28,5.84,5.84,0,0,1,1.63,2.13,6.92,6.92,0,0,1,.59,3A7.12,7.12,0,0,1,204,290a6.42,6.42,0,0,1-1.14,2,7,7,0,0,1-1.78,1.49,9,9,0,0,1-2.34,1v.07a5.9,5.9,0,0,1,1.11.65,6.65,6.65,0,0,1,.9.87,12.31,12.31,0,0,1,.85,1.13c.27.42.59.91.93,1.47ZM192,283.43v9.27H196a6.09,6.09,0,0,0,2.08-.34,4.86,4.86,0,0,0,1.65-1,4.41,4.41,0,0,0,1.08-1.55,5,5,0,0,0,.4-2.06,4,4,0,0,0-1.33-3.2,5.75,5.75,0,0,0-3.84-1.15Z" transform="translate(-78 -279.8)"/><path class="cls-2" d="M236.87,306.28h-3V289.14c0-1.36.08-3,.25-5h-.07a15.7,15.7,0,0,1-.77,2.48l-8.73,19.64h-1.46l-8.71-19.5a14.94,14.94,0,0,1-.77-2.62h-.07c.09,1,.14,2.7.14,5v17.11h-2.89V280.73h4l7.84,17.81a22.7,22.7,0,0,1,1.18,3.07h.1c.51-1.4.92-2.45,1.23-3.14l8-17.74h3.75Z" transform="translate(-78 -279.8)"/><path class="cls-2" d="M263.36,306.28h-3.31l-2.71-7.17H246.51L244,306.28h-3.33l9.8-25.55h3.1Zm-7-9.86-4-10.88a10.66,10.66,0,0,1-.39-1.71h-.07a10.26,10.26,0,0,1-.41,1.71l-4,10.88Z" transform="translate(-78 -279.8)"/><path class="cls-2" d="M279.62,283.43h-7.38v22.85h-3V283.43h-7.36v-2.7h17.74Z" transform="translate(-78 -279.8)"/><path class="cls-2" d="M286.62,306.28h-3V280.73h3Z" transform="translate(-78 -279.8)"/><path class="cls-2" d="M303.63,306.71a11.21,11.21,0,0,1-8.7-3.59,13.26,13.26,0,0,1-3.27-9.32q0-6.17,3.33-9.83a11.63,11.63,0,0,1,9.07-3.67,11,11,0,0,1,8.53,3.56,13.32,13.32,0,0,1,3.23,9.32q0,6.26-3.31,9.89A11.45,11.45,0,0,1,303.63,306.71Zm.22-23.7a8.21,8.21,0,0,0-6.54,2.9,12.93,12.93,0,0,0-.06,15.23,8,8,0,0,0,6.38,2.88,8.38,8.38,0,0,0,6.63-2.75q2.43-2.75,2.43-7.68c0-3.37-.79-6-2.35-7.82A8.07,8.07,0,0,0,303.85,283Z" transform="translate(-78 -279.8)"/><path class="cls-2" d="M341.45,306.28h-3.67l-13.15-20.37a7.81,7.81,0,0,1-.82-1.6h-.11a27.27,27.27,0,0,1,.14,3.51v18.46h-3V280.73h3.88l12.8,20c.53.83.88,1.4,1,1.71h.07a26.71,26.71,0,0,1-.18-3.76v-18h3Z" transform="translate(-78 -279.8)"/></g></g><rect id="Rectangle_93" data-name="Rectangle 93" class="cls-3" x="5.42" y="32.56" width="4" height="147.26"/><rect id="Rectangle_94" data-name="Rectangle 94" class="cls-4" x="418.29" y="307.03" width="4" height="11.95"/><rect id="Rectangle_95" data-name="Rectangle 95" class="cls-4" x="5.42" y="183.92" width="4" height="23.01"/><rect x="418.42" y="228.34" width="3.74" height="69.27"/><path d="M500.17,476.48h-3.75V299.67l-149.93-.17v-3.75l151.8.17a1.88,1.88,0,0,1,1.87,1.88Z" transform="translate(-78 -279.8)"/><path d="M258.55,604.59H79.87A1.88,1.88,0,0,1,78,602.71V552.49h3.74v48.35H258.55Z" transform="translate(-78 -279.8)"/></svg>