<svg id="Calque_1" data-name="Calque 1" xmlns="http://www.w3.org/2000/svg" viewBox="0 0 327.48 419.61"><defs><style>.cls-1{isolation:isolate;}.cls-2{fill:none;stroke:#000;}.cls-3{fill:#fcb316;}.cls-4{fill:#ef3924;}.cls-5{fill:#367c6e;}</style></defs><title>finish_frame</title><path d="M448.27,416.51h-3.72V240.92l-182.28-.17V237l184.14.17a1.86,1.86,0,0,1,1.86,1.86Z" transform="translate(-120.93 -206.23)"/><path d="M258.88,625.84H124.42a1.86,1.86,0,0,1-1.86-1.86V446.53h3.72V622.12h132.6Z" transform="translate(-120.93 -206.23)"/><g id="TerminÉ_" data-name="TerminÉ " class="cls-1"><g class="cls-1"><path d="M139,217.54h-7.33v22.69h-3V217.54h-7.31v-2.69H139Z" transform="translate(-120.93 -206.23)"/><path d="M156.47,240.23H143V214.85H155.9v2.69H146V226h9.17v2.68H146v8.88h10.48Z" transform="translate(-120.93 -206.23)"/><path d="M179.55,240.23H176l-4.25-7.11a15.92,15.92,0,0,0-1.13-1.69,6.1,6.1,0,0,0-1.13-1.14,3.65,3.65,0,0,0-1.23-.65,5,5,0,0,0-1.5-.2h-2.44v10.79h-3V214.85h7.58a10.7,10.7,0,0,1,3.07.42,7,7,0,0,1,2.44,1.26,6,6,0,0,1,1.62,2.12,7,7,0,0,1,.58,3,7.3,7.3,0,0,1-.39,2.44,6.55,6.55,0,0,1-1.14,2,6.91,6.91,0,0,1-1.77,1.48,8.74,8.74,0,0,1-2.32.94v.08a5,5,0,0,1,1.1.64,6,6,0,0,1,.9.86,12.09,12.09,0,0,1,.84,1.12l.93,1.46Zm-15.22-22.69v9.21h4a6.18,6.18,0,0,0,2.06-.34,4.77,4.77,0,0,0,1.64-1,4.46,4.46,0,0,0,1.08-1.54,5.17,5.17,0,0,0,.39-2,4,4,0,0,0-1.32-3.17,5.62,5.62,0,0,0-3.81-1.15Z" transform="translate(-120.93 -206.23)"/><path d="M208.91,240.23h-3v-17c0-1.35.08-3,.25-4.94h-.07a17.52,17.52,0,0,1-.76,2.46l-8.68,19.5h-1.45l-8.65-19.36a15,15,0,0,1-.76-2.6h-.07c.09,1,.14,2.67.14,5v17H183V214.85H187l7.79,17.7a23.75,23.75,0,0,1,1.17,3h.1c.51-1.39.92-2.43,1.22-3.11l7.95-17.63h3.72Z" transform="translate(-120.93 -206.23)"/><path d="M218.55,240.23h-3V214.85h3Z" transform="translate(-120.93 -206.23)"/><path d="M245.68,240.23H242L229,220a7.94,7.94,0,0,1-.81-1.59h-.11a25.3,25.3,0,0,1,.14,3.49v18.33h-3V214.85h3.86l12.71,19.91c.53.83.87,1.39,1,1.7h.07a26.72,26.72,0,0,1-.17-3.73V214.85h3Z" transform="translate(-120.93 -206.23)"/><path d="M265.78,240.23H252.33V214.85h12.89v2.69h-9.91V226h9.16v2.68h-9.16v8.88h10.47Zm-2.56-33.5-4.64,5.81h-2.25l3.95-5.81Z" transform="translate(-120.93 -206.23)"/></g><g class="cls-1"><path class="cls-2" d="M139,217.54h-7.33v22.69h-3V217.54h-7.31v-2.69H139Z" transform="translate(-120.93 -206.23)"/><path class="cls-2" d="M156.47,240.23H143V214.85H155.9v2.69H146V226h9.17v2.68H146v8.88h10.48Z" transform="translate(-120.93 -206.23)"/><path class="cls-2" d="M179.55,240.23H176l-4.25-7.11a15.92,15.92,0,0,0-1.13-1.69,6.1,6.1,0,0,0-1.13-1.14,3.65,3.65,0,0,0-1.23-.65,5,5,0,0,0-1.5-.2h-2.44v10.79h-3V214.85h7.58a10.7,10.7,0,0,1,3.07.42,7,7,0,0,1,2.44,1.26,6,6,0,0,1,1.62,2.12,7,7,0,0,1,.58,3,7.3,7.3,0,0,1-.39,2.44,6.55,6.55,0,0,1-1.14,2,6.91,6.91,0,0,1-1.77,1.48,8.74,8.74,0,0,1-2.32.94v.08a5,5,0,0,1,1.1.64,6,6,0,0,1,.9.86,12.09,12.09,0,0,1,.84,1.12l.93,1.46Zm-15.22-22.69v9.21h4a6.18,6.18,0,0,0,2.06-.34,4.77,4.77,0,0,0,1.64-1,4.46,4.46,0,0,0,1.08-1.54,5.17,5.17,0,0,0,.39-2,4,4,0,0,0-1.32-3.17,5.62,5.62,0,0,0-3.81-1.15Z" transform="translate(-120.93 -206.23)"/><path class="cls-2" d="M208.91,240.23h-3v-17c0-1.35.08-3,.25-4.94h-.07a17.52,17.52,0,0,1-.76,2.46l-8.68,19.5h-1.45l-8.65-19.36a15,15,0,0,1-.76-2.6h-.07c.09,1,.14,2.67.14,5v17H183V214.85H187l7.79,17.7a23.75,23.75,0,0,1,1.17,3h.1c.51-1.39.92-2.43,1.22-3.11l7.95-17.63h3.72Z" transform="translate(-120.93 -206.23)"/><path class="cls-2" d="M218.55,240.23h-3V214.85h3Z" transform="translate(-120.93 -206.23)"/><path class="cls-2" d="M245.68,240.23H242L229,220a7.94,7.94,0,0,1-.81-1.59h-.11a25.3,25.3,0,0,1,.14,3.49v18.33h-3V214.85h3.86l12.71,19.91c.53.83.87,1.39,1,1.7h.07a26.72,26.72,0,0,1-.17-3.73V214.85h3Z" transform="translate(-120.93 -206.23)"/><path class="cls-2" d="M265.78,240.23H252.33V214.85h12.89v2.69h-9.91V226h9.16v2.68h-9.16v8.88h10.47Zm-2.56-33.5-4.64,5.81h-2.25l3.95-5.81Z" transform="translate(-120.93 -206.23)"/></g></g><rect id="Rectangle_93" data-name="Rectangle 93" class="cls-3" x="1.5" y="40.04" width="3.98" height="146.24"/><rect id="Rectangle_94" data-name="Rectangle 94" class="cls-4" x="323.5" y="405.85" width="3.98" height="11.86"/><rect id="Rectangle_95" data-name="Rectangle 95" class="cls-5" x="1.5" y="190.35" width="3.98" height="22.85"/><rect x="323.62" y="329.03" width="3.72" height="68.79"/></svg>