<svg id="Calque_1" data-name="Calque 1" xmlns="http://www.w3.org/2000/svg" viewBox="0 0 705.23 895.8"><defs><style>.cls-1{isolation:isolate;}.cls-2{fill:none;stroke:#000;}.cls-3{fill:#fcb316;}.cls-4{fill:#ef3924;}.cls-5{fill:#367c6e;}</style></defs><title>finish_frame</title><path d="M401,408h-8V30.1h-411v-8H397a4,4,0,0,1,4,4Z" transform="translate(303.95 35.9)"/><path d="M-6.63,859.9H-296a4,4,0,0,1-4-4V474h8V851.9H-6.63Z" transform="translate(303.95 35.9)"/><g id="Terminé_" data-name="Terminé " class="cls-1"><g class="cls-1"><path d="M-284.11-15V27.54a2.39,2.39,0,0,1-.7,1.74,2.37,2.37,0,0,1-1.76.72,2.17,2.17,0,0,1-1.67-.72,2.45,2.45,0,0,1-.67-1.74V-15H-301a2.31,2.31,0,0,1-1.71-.73,2.39,2.39,0,0,1-.7-1.73,2.33,2.33,0,0,1,.7-1.72,2.32,2.32,0,0,1,1.71-.7h29.41a2.31,2.31,0,0,1,1.72.72,2.43,2.43,0,0,1,.7,1.74,2.33,2.33,0,0,1-.7,1.73,2.36,2.36,0,0,1-1.72.69Z" transform="translate(303.95 35.9)"/><path d="M-260.91,30a2.29,2.29,0,0,1-1.63-.8,2.55,2.55,0,0,1-.63-1.74V-17.46a2.33,2.33,0,0,1,.74-1.78,2.6,2.6,0,0,1,1.8-.68h22.27a2.32,2.32,0,0,1,1.71.7,2.37,2.37,0,0,1,.7,1.76,2.39,2.39,0,0,1-.7,1.73,2.3,2.3,0,0,1-1.71.72h-19.89V2.66h14.66a2.26,2.26,0,0,1,1.76.68,2.45,2.45,0,0,1,.7,1.74,2.31,2.31,0,0,1-.7,1.7,2.45,2.45,0,0,1-1.76.68h-14.66V25.13h19.89a2.32,2.32,0,0,1,1.71.7,2.31,2.31,0,0,1,.7,1.71,2.44,2.44,0,0,1-.7,1.78,2.16,2.16,0,0,1-1.71.68Z" transform="translate(303.95 35.9)"/><path d="M-198.35-5.65a13.88,13.88,0,0,1-.88,5,13.71,13.71,0,0,1-2.44,4.13,14.29,14.29,0,0,1-3.7,3.06A14.45,14.45,0,0,1-210,8.24l11.31,18.09a2.39,2.39,0,0,1,.2,2,2.42,2.42,0,0,1-1.29,1.41,2.28,2.28,0,0,1-1.82.17,2.48,2.48,0,0,1-1.42-1.15L-215.51,8.51h-8.23V27.58a2.31,2.31,0,0,1-.72,1.72,2.39,2.39,0,0,1-1.74.7,2.39,2.39,0,0,1-1.73-.7,2.31,2.31,0,0,1-.72-1.72V-17.5a2.31,2.31,0,0,1,.72-1.74,2.45,2.45,0,0,1,1.73-.68h13.11a15.15,15.15,0,0,1,5.77,1.09,14.78,14.78,0,0,1,4.68,3,14.15,14.15,0,0,1,3.14,4.53A13.82,13.82,0,0,1-198.35-5.65Zm-25.39-9.43V3.6H-213a10,10,0,0,0,3.9-.76,9.91,9.91,0,0,0,3.1-2,9.41,9.41,0,0,0,2-3,8.76,8.76,0,0,0,.75-3.57A9,9,0,0,0-204-9.45a9.31,9.31,0,0,0-2.07-2.94,9.59,9.59,0,0,0-3.12-2,10.55,10.55,0,0,0-3.92-.72Z" transform="translate(303.95 35.9)"/><path d="M-184.94-8.1l-4.75,35.88a2.4,2.4,0,0,1-1,1.6,2.46,2.46,0,0,1-1.81.46,2.57,2.57,0,0,1-1.62-1,2.28,2.28,0,0,1-.45-1.79l5.93-44.62a2.2,2.2,0,0,1,.74-1.44,3.15,3.15,0,0,1,.86-.59,2.37,2.37,0,0,1,1.85,0,2.45,2.45,0,0,1,1.39,1.31l16.1,39.54,16.11-39.54a2.4,2.4,0,0,1,1.29-1.29,2.34,2.34,0,0,1,1.87,0l.43.24a2.82,2.82,0,0,1,.78.76,2.46,2.46,0,0,1,.39,1l5.65,44.69a2.32,2.32,0,0,1-.51,1.8,2.31,2.31,0,0,1-1.63.89,2.46,2.46,0,0,1-1.82-.48,2.28,2.28,0,0,1-.91-1.62l-4.53-35.65-14.9,36.51a2.48,2.48,0,0,1-1,1.17,2.24,2.24,0,0,1-1.4.31,2.47,2.47,0,0,1-1.23-.41A2.46,2.46,0,0,1-170,28.6Z" transform="translate(303.95 35.9)"/><path d="M-130.41,27.58a2.31,2.31,0,0,1-.72,1.72,2.41,2.41,0,0,1-1.74.7,2.41,2.41,0,0,1-1.74-.7,2.31,2.31,0,0,1-.72-1.72V-17.5a2.31,2.31,0,0,1,.72-1.74,2.47,2.47,0,0,1,1.74-.68,2.47,2.47,0,0,1,1.74.68,2.31,2.31,0,0,1,.72,1.74Z" transform="translate(303.95 35.9)"/><path d="M-116.84-19.61h.08a.25.25,0,0,0,.11.12h0l.08,0a.1.1,0,0,1,.08,0,.19.19,0,0,1,.15.08,2,2,0,0,1,.67.81l27.18,38.69V-17.46a2.37,2.37,0,0,1,.72-1.74,2.41,2.41,0,0,1,1.78-.72,2.27,2.27,0,0,1,1.73.72,2.41,2.41,0,0,1,.68,1.74v45a2.3,2.3,0,0,1-.56,1.56,2.37,2.37,0,0,1-1.42.82A2,2,0,0,1-86,30a2.53,2.53,0,0,1-1.84-.74L-88,29l-.12-.12-27.26-39V27.58a2.31,2.31,0,0,1-.72,1.72,2.39,2.39,0,0,1-1.74.7,2.39,2.39,0,0,1-1.73-.7,2.31,2.31,0,0,1-.72-1.72v-45a2.31,2.31,0,0,1,.72-1.72,2.39,2.39,0,0,1,1.73-.7h.2a3.54,3.54,0,0,1,.74.23Z" transform="translate(303.95 35.9)"/><path d="M-72.65,30a2.29,2.29,0,0,1-1.64-.8,2.55,2.55,0,0,1-.63-1.74V-17.46a2.33,2.33,0,0,1,.74-1.78,2.6,2.6,0,0,1,1.8-.68h22.27a2.31,2.31,0,0,1,1.71.7,2.38,2.38,0,0,1,.71,1.76,2.39,2.39,0,0,1-.71,1.73,2.29,2.29,0,0,1-1.71.72H-70V2.66h14.66a2.26,2.26,0,0,1,1.76.68,2.45,2.45,0,0,1,.7,1.74,2.31,2.31,0,0,1-.7,1.7,2.45,2.45,0,0,1-1.76.68H-70V25.13h19.89a2.31,2.31,0,0,1,1.71.7,2.32,2.32,0,0,1,.71,1.71,2.44,2.44,0,0,1-.71,1.78,2.15,2.15,0,0,1-1.71.68Zm12.59-54.72a2.48,2.48,0,0,1-1.81.78,2.16,2.16,0,0,1-1.7-.74,2.34,2.34,0,0,1-.76-1.71,2.41,2.41,0,0,1,.76-1.8l6.4-6.47a2.37,2.37,0,0,1,1.75-.74,2.47,2.47,0,0,1,1.76.7,2.41,2.41,0,0,1,.78,1.75,2.37,2.37,0,0,1-.74,1.72Z" transform="translate(303.95 35.9)"/></g><g class="cls-1"><path class="cls-2" d="M-284.11-15V27.54a2.39,2.39,0,0,1-.7,1.74,2.37,2.37,0,0,1-1.76.72,2.17,2.17,0,0,1-1.67-.72,2.45,2.45,0,0,1-.67-1.74V-15H-301a2.31,2.31,0,0,1-1.71-.73,2.39,2.39,0,0,1-.7-1.73,2.33,2.33,0,0,1,.7-1.72,2.32,2.32,0,0,1,1.71-.7h29.41a2.31,2.31,0,0,1,1.72.72,2.43,2.43,0,0,1,.7,1.74,2.33,2.33,0,0,1-.7,1.73,2.36,2.36,0,0,1-1.72.69Z" transform="translate(303.95 35.9)"/><path class="cls-2" d="M-260.91,30a2.29,2.29,0,0,1-1.63-.8,2.55,2.55,0,0,1-.63-1.74V-17.46a2.33,2.33,0,0,1,.74-1.78,2.6,2.6,0,0,1,1.8-.68h22.27a2.32,2.32,0,0,1,1.71.7,2.37,2.37,0,0,1,.7,1.76,2.39,2.39,0,0,1-.7,1.73,2.3,2.3,0,0,1-1.71.72h-19.89V2.66h14.66a2.26,2.26,0,0,1,1.76.68,2.45,2.45,0,0,1,.7,1.74,2.31,2.31,0,0,1-.7,1.7,2.45,2.45,0,0,1-1.76.68h-14.66V25.13h19.89a2.32,2.32,0,0,1,1.71.7,2.31,2.31,0,0,1,.7,1.71,2.44,2.44,0,0,1-.7,1.78,2.16,2.16,0,0,1-1.71.68Z" transform="translate(303.95 35.9)"/><path class="cls-2" d="M-198.35-5.65a13.88,13.88,0,0,1-.88,5,13.71,13.71,0,0,1-2.44,4.13,14.29,14.29,0,0,1-3.7,3.06A14.45,14.45,0,0,1-210,8.24l11.31,18.09a2.39,2.39,0,0,1,.2,2,2.42,2.42,0,0,1-1.29,1.41,2.28,2.28,0,0,1-1.82.17,2.48,2.48,0,0,1-1.42-1.15L-215.51,8.51h-8.23V27.58a2.31,2.31,0,0,1-.72,1.72,2.39,2.39,0,0,1-1.74.7,2.39,2.39,0,0,1-1.73-.7,2.31,2.31,0,0,1-.72-1.72V-17.5a2.31,2.31,0,0,1,.72-1.74,2.45,2.45,0,0,1,1.73-.68h13.11a15.15,15.15,0,0,1,5.77,1.09,14.78,14.78,0,0,1,4.68,3,14.15,14.15,0,0,1,3.14,4.53A13.82,13.82,0,0,1-198.35-5.65Zm-25.39-9.43V3.6H-213a10,10,0,0,0,3.9-.76,9.91,9.91,0,0,0,3.1-2,9.41,9.41,0,0,0,2-3,8.76,8.76,0,0,0,.75-3.57A9,9,0,0,0-204-9.45a9.31,9.31,0,0,0-2.07-2.94,9.59,9.59,0,0,0-3.12-2,10.55,10.55,0,0,0-3.92-.72Z" transform="translate(303.95 35.9)"/><path class="cls-2" d="M-184.94-8.1l-4.75,35.88a2.4,2.4,0,0,1-1,1.6,2.46,2.46,0,0,1-1.81.46,2.57,2.57,0,0,1-1.62-1,2.28,2.28,0,0,1-.45-1.79l5.93-44.62a2.2,2.2,0,0,1,.74-1.44,3.15,3.15,0,0,1,.86-.59,2.37,2.37,0,0,1,1.85,0,2.45,2.45,0,0,1,1.39,1.31l16.1,39.54,16.11-39.54a2.4,2.4,0,0,1,1.29-1.29,2.34,2.34,0,0,1,1.87,0l.43.24a2.82,2.82,0,0,1,.78.76,2.46,2.46,0,0,1,.39,1l5.65,44.69a2.32,2.32,0,0,1-.51,1.8,2.31,2.31,0,0,1-1.63.89,2.46,2.46,0,0,1-1.82-.48,2.28,2.28,0,0,1-.91-1.62l-4.53-35.65-14.9,36.51a2.48,2.48,0,0,1-1,1.17,2.24,2.24,0,0,1-1.4.31,2.47,2.47,0,0,1-1.23-.41A2.46,2.46,0,0,1-170,28.6Z" transform="translate(303.95 35.9)"/><path class="cls-2" d="M-130.41,27.58a2.31,2.31,0,0,1-.72,1.72,2.41,2.41,0,0,1-1.74.7,2.41,2.41,0,0,1-1.74-.7,2.31,2.31,0,0,1-.72-1.72V-17.5a2.31,2.31,0,0,1,.72-1.74,2.47,2.47,0,0,1,1.74-.68,2.47,2.47,0,0,1,1.74.68,2.31,2.31,0,0,1,.72,1.74Z" transform="translate(303.95 35.9)"/><path class="cls-2" d="M-116.84-19.61h.08a.25.25,0,0,0,.11.12h0l.08,0a.1.1,0,0,1,.08,0,.19.19,0,0,1,.15.08,2,2,0,0,1,.67.81l27.18,38.69V-17.46a2.37,2.37,0,0,1,.72-1.74,2.41,2.41,0,0,1,1.78-.72,2.27,2.27,0,0,1,1.73.72,2.41,2.41,0,0,1,.68,1.74v45a2.3,2.3,0,0,1-.56,1.56,2.37,2.37,0,0,1-1.42.82A2,2,0,0,1-86,30a2.53,2.53,0,0,1-1.84-.74L-88,29l-.12-.12-27.26-39V27.58a2.31,2.31,0,0,1-.72,1.72,2.39,2.39,0,0,1-1.74.7,2.39,2.39,0,0,1-1.73-.7,2.31,2.31,0,0,1-.72-1.72v-45a2.31,2.31,0,0,1,.72-1.72,2.39,2.39,0,0,1,1.73-.7h.2a3.54,3.54,0,0,1,.74.23Z" transform="translate(303.95 35.9)"/><path class="cls-2" d="M-72.65,30a2.29,2.29,0,0,1-1.64-.8,2.55,2.55,0,0,1-.63-1.74V-17.46a2.33,2.33,0,0,1,.74-1.78,2.6,2.6,0,0,1,1.8-.68h22.27a2.31,2.31,0,0,1,1.71.7,2.38,2.38,0,0,1,.71,1.76,2.39,2.39,0,0,1-.71,1.73,2.29,2.29,0,0,1-1.71.72H-70V2.66h14.66a2.26,2.26,0,0,1,1.76.68,2.45,2.45,0,0,1,.7,1.74,2.31,2.31,0,0,1-.7,1.7,2.45,2.45,0,0,1-1.76.68H-70V25.13h19.89a2.31,2.31,0,0,1,1.71.7,2.32,2.32,0,0,1,.71,1.71,2.44,2.44,0,0,1-.71,1.78,2.15,2.15,0,0,1-1.71.68Zm12.59-54.72a2.48,2.48,0,0,1-1.81.78,2.16,2.16,0,0,1-1.7-.74,2.34,2.34,0,0,1-.76-1.71,2.41,2.41,0,0,1,.76-1.8l6.4-6.47a2.37,2.37,0,0,1,1.75-.74,2.47,2.47,0,0,1,1.76.7,2.41,2.41,0,0,1,.78,1.75,2.37,2.37,0,0,1-.74,1.72Z" transform="translate(303.95 35.9)"/></g></g><rect id="Rectangle_93" data-name="Rectangle 93" class="cls-3" x="3.68" y="78.9" width="8.56" height="314.74"/><rect id="Rectangle_94" data-name="Rectangle 94" class="cls-4" x="696.68" y="866.18" width="8.56" height="25.53"/><rect id="Rectangle_95" data-name="Rectangle 95" class="cls-5" x="3.68" y="402.4" width="8.56" height="49.19"/><rect x="696.92" y="700.86" width="8" height="148.06"/></svg>