<svg id="Calque_1" data-name="Calque 1" xmlns="http://www.w3.org/2000/svg" viewBox="0 0 427.31 448.29"><defs><style>.cls-1,.cls-2,.cls-6{isolation:isolate;}.cls-2,.cls-6{font-size:37.21px;font-family:SegoeUI, Segoe UI;letter-spacing:-0.03em;}.cls-3{letter-spacing:0em;}.cls-4{letter-spacing:-0.02em;}.cls-5{letter-spacing:0em;}.cls-6{fill:none;stroke:#000;}.cls-7{fill:#ef3924;}.cls-8{fill:#367c6e;}.cls-9{fill:#fcb316;}</style></defs><title>login_frame</title><path d="M514.86,392.18h-3.29V211.91H411v-3.82H513.21a1.8,1.8,0,0,1,1.65,1.91Z" transform="translate(-87.69 -184.58)"/><path d="M228,632.87H90a1.91,1.91,0,0,1-1.91-1.9V448.79h3.82V629.06H228Z" transform="translate(-87.69 -184.58)"/><g id="CONNECTEZ-VOUS_" data-name="CONNECTEZ-VOUS " class="cls-1"><text class="cls-2" transform="translate(0.5 32.13)">C<tspan class="cls-3" x="22.04" y="0">ONNECTEZ-</tspan><tspan class="cls-4" x="222.03" y="0">V</tspan><tspan class="cls-5" x="244.23" y="0">OUS</tspan></text><text class="cls-6" transform="translate(0.5 32.13)">C<tspan class="cls-3" x="22.04" y="0">ONNECTEZ-</tspan><tspan class="cls-4" x="222.03" y="0">V</tspan><tspan class="cls-5" x="244.23" y="0">OUS</tspan></text></g><rect id="Rectangle_93" data-name="Rectangle 93" class="cls-7" x="2.27" y="38.33" width="4.08" height="150.14"/><rect id="Rectangle_94" data-name="Rectangle 94" class="cls-8" x="423.23" y="413.93" width="4.08" height="12.18"/><rect id="Rectangle_95" data-name="Rectangle 95" class="cls-9" x="2.27" y="192.65" width="4.08" height="23.46"/><rect x="423.36" y="329.98" width="3.82" height="70.63"/></svg>