<svg id="Calque_1" data-name="Calque 1" xmlns="http://www.w3.org/2000/svg" viewBox="0 0 895.01 923.21"><defs><style>.cls-1{isolation:isolate;}.cls-2{fill:none;stroke:#000;}.cls-3{fill:#ef3924;}.cls-4{fill:#367c6e;}.cls-5{fill:#fcb316;}</style></defs><title>login_frame</title><path d="M663.72,430.83h-8V52.93H411.45v-8H659.72a4,4,0,0,1,4,4Z" transform="translate(231 -12.19)"/><path d="M62.37,935.4H-227a4,4,0,0,1-4-4V549.5h8V927.4H62.37Z" transform="translate(231 -12.19)"/><g id="CONNECTEZ-VOUS_" data-name="CONNECTEZ-VOUS " class="cls-1"><g class="cls-1"><path d="M-185,22a2.44,2.44,0,0,1-.71,1.72,2.52,2.52,0,0,1-1.77.72,2.18,2.18,0,0,1-1.7-.68A20.92,20.92,0,0,0-196,19.16a20.55,20.55,0,0,0-7.76-1.52,20,20,0,0,0-7.94,1.6,20.5,20.5,0,0,0-6.49,4.37,20.59,20.59,0,0,0-4.37,6.51,20.09,20.09,0,0,0-1.6,8,20.06,20.06,0,0,0,1.54,7.8,20.72,20.72,0,0,0,4.25,6.51,20.43,20.43,0,0,0,6.44,4.47,19.74,19.74,0,0,0,8.09,1.65,20.84,20.84,0,0,0,7.72-1.36,19.38,19.38,0,0,0,6.83-4.52,2.55,2.55,0,0,1,1.75-.73,2.37,2.37,0,0,1,1.72.65,2.26,2.26,0,0,1,.72,1.75,2.39,2.39,0,0,1-.68,1.72,24.53,24.53,0,0,1-8.47,5.63,26.09,26.09,0,0,1-9.59,1.82,24.54,24.54,0,0,1-6.71-.92,25.92,25.92,0,0,1-6-2.55,24.54,24.54,0,0,1-5.11-4,25.23,25.23,0,0,1-3.94-5.15,26.16,26.16,0,0,1-2.54-6.06,25.1,25.1,0,0,1-.89-6.75,25.07,25.07,0,0,1,.85-6.51,26.21,26.21,0,0,1,2.44-6,26,26,0,0,1,3.84-5.19,24.84,24.84,0,0,1,5.09-4.09,24.93,24.93,0,0,1,6.13-2.67,24.87,24.87,0,0,1,7-1,25.1,25.1,0,0,1,9.57,1.91,25.57,25.57,0,0,1,8.41,5.66A2.35,2.35,0,0,1-185,22Z" transform="translate(231 -12.19)"/><path d="M-146.42,14.72a25.52,25.52,0,0,1,8.07,5.44,25.94,25.94,0,0,1,5.46,8.05,24.4,24.4,0,0,1,2,9.87,25,25,0,0,1-.92,6.77,25.89,25.89,0,0,1-2.55,6.06,25.26,25.26,0,0,1-4,5.15,25.61,25.61,0,0,1-5.15,4,25.89,25.89,0,0,1-6.06,2.55,24.92,24.92,0,0,1-6.77.92,24.92,24.92,0,0,1-6.77-.92A25.89,25.89,0,0,1-169.14,60a24.56,24.56,0,0,1-5.11-4,26.16,26.16,0,0,1-3.94-5.15,25,25,0,0,1-2.53-6.06,25.36,25.36,0,0,1-.9-6.77,25.1,25.1,0,0,1,.9-6.75,25,25,0,0,1,2.53-6,25.75,25.75,0,0,1,3.94-5.13,25.25,25.25,0,0,1,5.11-4,24.68,24.68,0,0,1,6.06-2.55,25.31,25.31,0,0,1,6.77-.9A24.69,24.69,0,0,1-146.42,14.72Zm-17.87,4.56a20.3,20.3,0,0,0-6.47,4.37,20.93,20.93,0,0,0-4.35,6.47,20,20,0,0,0-1.6,8,20.17,20.17,0,0,0,1.6,8,20.83,20.83,0,0,0,4.35,6.5A20.47,20.47,0,0,0-164.29,57a20.25,20.25,0,0,0,8,1.59,20.08,20.08,0,0,0,8-1.59,20.71,20.71,0,0,0,6.5-4.37,20.71,20.71,0,0,0,4.37-6.5,20.17,20.17,0,0,0,1.6-8,20,20,0,0,0-1.6-8,20.81,20.81,0,0,0-4.37-6.47,20.55,20.55,0,0,0-6.5-4.37,19.91,19.91,0,0,0-8-1.6A20.08,20.08,0,0,0-164.29,19.28Z" transform="translate(231 -12.19)"/><path d="M-120.7,13.39h.07a.34.34,0,0,0,.12.12h0l.08,0a.12.12,0,0,1,.08,0,.19.19,0,0,1,.15.08,2,2,0,0,1,.67.81l27.18,38.69V15.54a2.37,2.37,0,0,1,.72-1.74,2.41,2.41,0,0,1,1.78-.72,2.27,2.27,0,0,1,1.73.72,2.46,2.46,0,0,1,.68,1.74v45A2.35,2.35,0,0,1-88,62.14a2.37,2.37,0,0,1-1.43.82,1.81,1.81,0,0,1-.46,0,2.53,2.53,0,0,1-1.84-.74l-.15-.23-.12-.12-27.26-39V60.58a2.31,2.31,0,0,1-.72,1.72,2.39,2.39,0,0,1-1.74.7,2.39,2.39,0,0,1-1.73-.7,2.28,2.28,0,0,1-.73-1.72v-45a2.28,2.28,0,0,1,.73-1.72,2.39,2.39,0,0,1,1.73-.7h.2a3.74,3.74,0,0,1,.74.23Z" transform="translate(231 -12.19)"/><path d="M-75.35,13.39h.08a.34.34,0,0,0,.12.12h0l.08,0a.09.09,0,0,1,.07,0,.19.19,0,0,1,.16.08,1.94,1.94,0,0,1,.66.81l27.19,38.69V15.54a2.37,2.37,0,0,1,.72-1.74,2.41,2.41,0,0,1,1.77-.72,2.31,2.31,0,0,1,1.74.72A2.46,2.46,0,0,1-42,15.54v45a2.31,2.31,0,0,1-.57,1.56A2.35,2.35,0,0,1-44,63a1.84,1.84,0,0,1-.47,0,2.49,2.49,0,0,1-1.83-.74l-.16-.23-.11-.12L-73.86,23V60.58a2.28,2.28,0,0,1-.73,1.72,2.39,2.39,0,0,1-1.73.7,2.39,2.39,0,0,1-1.74-.7,2.31,2.31,0,0,1-.72-1.72v-45a2.31,2.31,0,0,1,.72-1.72,2.39,2.39,0,0,1,1.74-.7h.19a3.54,3.54,0,0,1,.74.23Z" transform="translate(231 -12.19)"/><path d="M-31.16,63a2.31,2.31,0,0,1-1.64-.8,2.59,2.59,0,0,1-.62-1.74V15.54a2.33,2.33,0,0,1,.74-1.78,2.56,2.56,0,0,1,1.79-.68H-8.62a2.33,2.33,0,0,1,1.72.7,2.37,2.37,0,0,1,.7,1.76,2.39,2.39,0,0,1-.7,1.73A2.31,2.31,0,0,1-8.62,18H-28.51V35.66h14.67a2.24,2.24,0,0,1,1.75.68,2.41,2.41,0,0,1,.7,1.74,2.27,2.27,0,0,1-.7,1.7,2.43,2.43,0,0,1-1.75.68H-28.51V58.13H-8.62a2.33,2.33,0,0,1,1.72.7,2.31,2.31,0,0,1,.7,1.71,2.44,2.44,0,0,1-.7,1.78A2.17,2.17,0,0,1-8.62,63Z" transform="translate(231 -12.19)"/><path d="M39.47,22a2.43,2.43,0,0,1-.7,1.72,2.56,2.56,0,0,1-1.78.72,2.15,2.15,0,0,1-1.69-.68,21,21,0,0,0-6.83-4.57,20.47,20.47,0,0,0-7.76-1.52,20,20,0,0,0-7.94,1.6A20.37,20.37,0,0,0,1.91,30.12a20.66,20.66,0,0,0-.06,15.8A20.89,20.89,0,0,0,6.1,52.43a20.54,20.54,0,0,0,6.44,4.47,19.74,19.74,0,0,0,8.09,1.65,20.84,20.84,0,0,0,7.72-1.36,19.38,19.38,0,0,0,6.83-4.52,2.56,2.56,0,0,1,1.75-.73,2.37,2.37,0,0,1,1.72.65,2.26,2.26,0,0,1,.72,1.75,2.39,2.39,0,0,1-.68,1.72,24.59,24.59,0,0,1-8.46,5.63,26.19,26.19,0,0,1-9.6,1.82,24.59,24.59,0,0,1-6.71-.92,26.1,26.1,0,0,1-6-2.55,24.81,24.81,0,0,1-5.11-4A25.41,25.41,0,0,1-3.7,44.87a25.42,25.42,0,0,1,0-13.26,25.75,25.75,0,0,1,2.43-6,26.45,26.45,0,0,1,3.85-5.19,24.31,24.31,0,0,1,5.09-4.09,25.06,25.06,0,0,1,13.12-3.63,25,25,0,0,1,9.57,1.91,25.57,25.57,0,0,1,8.41,5.66A2.35,2.35,0,0,1,39.47,22Z" transform="translate(231 -12.19)"/><path d="M61,18V60.54a2.4,2.4,0,0,1-.71,1.74,2.33,2.33,0,0,1-1.75.72,2.18,2.18,0,0,1-1.68-.72,2.48,2.48,0,0,1-.66-1.74V18H44.11a2.32,2.32,0,0,1-1.72-.73,2.39,2.39,0,0,1-.7-1.73,2.39,2.39,0,0,1,2.42-2.42H73.52a2.3,2.3,0,0,1,1.71.72,2.39,2.39,0,0,1,.7,1.74,2.29,2.29,0,0,1-.7,1.73,2.35,2.35,0,0,1-1.71.69Z" transform="translate(231 -12.19)"/><path d="M84.24,63a2.31,2.31,0,0,1-1.64-.8A2.59,2.59,0,0,1,82,60.46V15.54a2.3,2.3,0,0,1,.74-1.78,2.56,2.56,0,0,1,1.79-.68h22.27a2.33,2.33,0,0,1,1.72.7,2.52,2.52,0,0,1,0,3.49,2.31,2.31,0,0,1-1.72.72H86.89V35.66h14.67a2.24,2.24,0,0,1,1.75.68,2.41,2.41,0,0,1,.7,1.74,2.27,2.27,0,0,1-.7,1.7,2.43,2.43,0,0,1-1.75.68H86.89V58.13h19.89a2.39,2.39,0,0,1,2.42,2.41,2.44,2.44,0,0,1-.7,1.78,2.17,2.17,0,0,1-1.72.68Z" transform="translate(231 -12.19)"/><path d="M152.41,63h-37a1.93,1.93,0,0,1-1.4-.58,2.45,2.45,0,0,1-.88-1.68,2.32,2.32,0,0,1,.6-1.83L146.91,18H116.57a2.31,2.31,0,0,1-1.72-.72,2.43,2.43,0,0,1-.7-1.73,2.35,2.35,0,0,1,.74-1.74,2.45,2.45,0,0,1,1.76-.72h35.41a2.72,2.72,0,0,1,1.64.66,2.3,2.3,0,0,1,.84,1.66,2.42,2.42,0,0,1-.61,1.77L120.67,58.09h31.74a2.31,2.31,0,0,1,1.72.72,2.5,2.5,0,0,1,0,3.47A2.31,2.31,0,0,1,152.41,63Z" transform="translate(231 -12.19)"/><path d="M161.61,44.08a2.48,2.48,0,0,1-1.79-4.25,2.45,2.45,0,0,1,1.79-.74h24.14a2.49,2.49,0,0,1,2.54,2.5,2.41,2.41,0,0,1-.72,1.77,2.47,2.47,0,0,1-1.82.72Z" transform="translate(231 -12.19)"/><path d="M193.05,16.51a2.18,2.18,0,0,1,0-1.85,2.47,2.47,0,0,1,4.56,0l17.12,39.82,17.08-39.82a2.5,2.5,0,0,1,1.33-1.31,2.33,2.33,0,0,1,1.83,0,2.44,2.44,0,0,1,1.35,1.31,2.18,2.18,0,0,1,0,1.85l-19.34,45a2.56,2.56,0,0,1-1,1.17,2.42,2.42,0,0,1-1.4.35,2.47,2.47,0,0,1-1.23-.41,2.42,2.42,0,0,1-.88-1.11Z" transform="translate(231 -12.19)"/><path d="M272.31,14.72a25.45,25.45,0,0,1,8.08,5.44,25.94,25.94,0,0,1,5.46,8.05,24.4,24.4,0,0,1,2,9.87,25,25,0,0,1-.92,6.77,25.89,25.89,0,0,1-2.55,6.06A25.6,25.6,0,0,1,275.26,60a25.89,25.89,0,0,1-6.06,2.55,25.37,25.37,0,0,1-13.54,0A25.89,25.89,0,0,1,249.6,60a24.56,24.56,0,0,1-5.11-4,25.78,25.78,0,0,1-3.94-5.15A25.45,25.45,0,0,1,238,44.85a25.77,25.77,0,0,1-.89-6.77,25.41,25.41,0,0,1,12.48-21.9,24.68,24.68,0,0,1,6.06-2.55,25.31,25.31,0,0,1,6.77-.9A24.64,24.64,0,0,1,272.31,14.72Zm-17.86,4.56A20.3,20.3,0,0,0,248,23.65a20.93,20.93,0,0,0-4.35,6.47,20.72,20.72,0,0,0,0,16,20.83,20.83,0,0,0,4.35,6.5A20.47,20.47,0,0,0,254.45,57a20.9,20.9,0,0,0,16,0A20.3,20.3,0,0,0,281.3,46.09a20.72,20.72,0,0,0,0-16,20.38,20.38,0,0,0-10.86-10.84,20.77,20.77,0,0,0-16,0Z" transform="translate(231 -12.19)"/><path d="M323.38,15.46a2.32,2.32,0,0,1,.73-1.72,2.52,2.52,0,0,1,3.49,0,2.33,2.33,0,0,1,.7,1.72V46A17.85,17.85,0,0,1,327,52.78a17.08,17.08,0,0,1-3.62,5.56,17.34,17.34,0,0,1-5.5,3.74,17.13,17.13,0,0,1-7,1.39,17.78,17.78,0,0,1-7.08-1.39,18.07,18.07,0,0,1-5.66-3.74A17.36,17.36,0,0,1,293,46V15.62a2.35,2.35,0,0,1,.72-1.76,2.51,2.51,0,0,1,3.48,0,2.35,2.35,0,0,1,.72,1.75v30.2a12.66,12.66,0,0,0,1,5,12.37,12.37,0,0,0,2.73,4.05,12.69,12.69,0,0,0,4.1,2.71,13,13,0,0,0,5.09,1,12.31,12.31,0,0,0,8.95-3.68,12.29,12.29,0,0,0,2.59-4,13.24,13.24,0,0,0,1-4.89Z" transform="translate(231 -12.19)"/><path d="M345.85,37.44A20.12,20.12,0,0,1,341,34.82,13,13,0,0,1,337.5,31a10,10,0,0,1-1.32-5.21,11.33,11.33,0,0,1,1.32-5.48A13.37,13.37,0,0,1,341,16.22a16.35,16.35,0,0,1,4.9-2.61,17.29,17.29,0,0,1,5.53-.92,20.76,20.76,0,0,1,4.41.47,17.66,17.66,0,0,1,4,1.38,15.18,15.18,0,0,1,3.39,2.26,12.25,12.25,0,0,1,2.54,3.14,1.67,1.67,0,0,1,.19,1.43,2.86,2.86,0,0,1-.66,1.15,2.39,2.39,0,0,1-1.42.6,2.32,2.32,0,0,1-1.7-.52,13,13,0,0,0-4.84-3.88,14.43,14.43,0,0,0-5.85-1.12,13.22,13.22,0,0,0-3.66.53,11.72,11.72,0,0,0-3.34,1.54,8.31,8.31,0,0,0-2.45,2.56,6.56,6.56,0,0,0-1,3.56,5.59,5.59,0,0,0,1.13,3.57,9.55,9.55,0,0,0,2.87,2.4,17.74,17.74,0,0,0,3.8,1.58c1.38.4,2.69.76,3.94,1.07q2.88.9,5.63,2a21.31,21.31,0,0,1,4.88,2.77,13,13,0,0,1,3.41,3.9A10.76,10.76,0,0,1,368,48.53a13.74,13.74,0,0,1-1.35,6.14,14.49,14.49,0,0,1-3.62,4.72,16.19,16.19,0,0,1-5.31,3,18.69,18.69,0,0,1-6.34,1.08,19.4,19.4,0,0,1-5.34-.74,21.39,21.39,0,0,1-4.74-2,16.76,16.76,0,0,1-3.78-3A13,13,0,0,1,335.08,54a2.4,2.4,0,0,1-.17-2.09,2.75,2.75,0,0,1,1.19-1.26,2,2,0,0,1,1.69-.22,4,4,0,0,1,1.66,1.39,10,10,0,0,0,2,2.8,12.89,12.89,0,0,0,2.87,2.13,14.9,14.9,0,0,0,3.47,1.35,15.93,15.93,0,0,0,3.86.46,14.18,14.18,0,0,0,4.11-.62,11.68,11.68,0,0,0,3.69-1.87,9.81,9.81,0,0,0,2.65-3.1,8.73,8.73,0,0,0,1-4.27,6.48,6.48,0,0,0-1-3.73,9.07,9.07,0,0,0-2.69-2.57,19,19,0,0,0-3.78-1.84c-1.41-.5-2.82-1-4.25-1.46A43.62,43.62,0,0,1,345.85,37.44Z" transform="translate(231 -12.19)"/></g><g class="cls-1"><path class="cls-2" d="M-185,22a2.44,2.44,0,0,1-.71,1.72,2.52,2.52,0,0,1-1.77.72,2.18,2.18,0,0,1-1.7-.68A20.92,20.92,0,0,0-196,19.16a20.55,20.55,0,0,0-7.76-1.52,20,20,0,0,0-7.94,1.6,20.5,20.5,0,0,0-6.49,4.37,20.59,20.59,0,0,0-4.37,6.51,20.09,20.09,0,0,0-1.6,8,20.06,20.06,0,0,0,1.54,7.8,20.72,20.72,0,0,0,4.25,6.51,20.43,20.43,0,0,0,6.44,4.47,19.74,19.74,0,0,0,8.09,1.65,20.84,20.84,0,0,0,7.72-1.36,19.38,19.38,0,0,0,6.83-4.52,2.55,2.55,0,0,1,1.75-.73,2.37,2.37,0,0,1,1.72.65,2.26,2.26,0,0,1,.72,1.75,2.39,2.39,0,0,1-.68,1.72,24.53,24.53,0,0,1-8.47,5.63,26.09,26.09,0,0,1-9.59,1.82,24.54,24.54,0,0,1-6.71-.92,25.92,25.92,0,0,1-6-2.55,24.54,24.54,0,0,1-5.11-4,25.23,25.23,0,0,1-3.94-5.15,26.16,26.16,0,0,1-2.54-6.06,25.1,25.1,0,0,1-.89-6.75,25.07,25.07,0,0,1,.85-6.51,26.21,26.21,0,0,1,2.44-6,26,26,0,0,1,3.84-5.19,24.84,24.84,0,0,1,5.09-4.09,24.93,24.93,0,0,1,6.13-2.67,24.87,24.87,0,0,1,7-1,25.1,25.1,0,0,1,9.57,1.91,25.57,25.57,0,0,1,8.41,5.66A2.35,2.35,0,0,1-185,22Z" transform="translate(231 -12.19)"/><path class="cls-2" d="M-146.42,14.72a25.52,25.52,0,0,1,8.07,5.44,25.94,25.94,0,0,1,5.46,8.05,24.4,24.4,0,0,1,2,9.87,25,25,0,0,1-.92,6.77,25.89,25.89,0,0,1-2.55,6.06,25.26,25.26,0,0,1-4,5.15,25.61,25.61,0,0,1-5.15,4,25.89,25.89,0,0,1-6.06,2.55,24.92,24.92,0,0,1-6.77.92,24.92,24.92,0,0,1-6.77-.92A25.89,25.89,0,0,1-169.14,60a24.56,24.56,0,0,1-5.11-4,26.16,26.16,0,0,1-3.94-5.15,25,25,0,0,1-2.53-6.06,25.36,25.36,0,0,1-.9-6.77,25.1,25.1,0,0,1,.9-6.75,25,25,0,0,1,2.53-6,25.75,25.75,0,0,1,3.94-5.13,25.25,25.25,0,0,1,5.11-4,24.68,24.68,0,0,1,6.06-2.55,25.31,25.31,0,0,1,6.77-.9A24.69,24.69,0,0,1-146.42,14.72Zm-17.87,4.56a20.3,20.3,0,0,0-6.47,4.37,20.93,20.93,0,0,0-4.35,6.47,20,20,0,0,0-1.6,8,20.17,20.17,0,0,0,1.6,8,20.83,20.83,0,0,0,4.35,6.5A20.47,20.47,0,0,0-164.29,57a20.25,20.25,0,0,0,8,1.59,20.08,20.08,0,0,0,8-1.59,20.71,20.71,0,0,0,6.5-4.37,20.71,20.71,0,0,0,4.37-6.5,20.17,20.17,0,0,0,1.6-8,20,20,0,0,0-1.6-8,20.81,20.81,0,0,0-4.37-6.47,20.55,20.55,0,0,0-6.5-4.37,19.91,19.91,0,0,0-8-1.6A20.08,20.08,0,0,0-164.29,19.28Z" transform="translate(231 -12.19)"/><path class="cls-2" d="M-120.7,13.39h.07a.34.34,0,0,0,.12.12h0l.08,0a.12.12,0,0,1,.08,0,.19.19,0,0,1,.15.08,2,2,0,0,1,.67.81l27.18,38.69V15.54a2.37,2.37,0,0,1,.72-1.74,2.41,2.41,0,0,1,1.78-.72,2.27,2.27,0,0,1,1.73.72,2.46,2.46,0,0,1,.68,1.74v45A2.35,2.35,0,0,1-88,62.14a2.37,2.37,0,0,1-1.43.82,1.81,1.81,0,0,1-.46,0,2.53,2.53,0,0,1-1.84-.74l-.15-.23-.12-.12-27.26-39V60.58a2.31,2.31,0,0,1-.72,1.72,2.39,2.39,0,0,1-1.74.7,2.39,2.39,0,0,1-1.73-.7,2.28,2.28,0,0,1-.73-1.72v-45a2.28,2.28,0,0,1,.73-1.72,2.39,2.39,0,0,1,1.73-.7h.2a3.74,3.74,0,0,1,.74.23Z" transform="translate(231 -12.19)"/><path class="cls-2" d="M-75.35,13.39h.08a.34.34,0,0,0,.12.12h0l.08,0a.09.09,0,0,1,.07,0,.19.19,0,0,1,.16.08,1.94,1.94,0,0,1,.66.81l27.19,38.69V15.54a2.37,2.37,0,0,1,.72-1.74,2.41,2.41,0,0,1,1.77-.72,2.31,2.31,0,0,1,1.74.72A2.46,2.46,0,0,1-42,15.54v45a2.31,2.31,0,0,1-.57,1.56A2.35,2.35,0,0,1-44,63a1.84,1.84,0,0,1-.47,0,2.49,2.49,0,0,1-1.83-.74l-.16-.23-.11-.12L-73.86,23V60.58a2.28,2.28,0,0,1-.73,1.72,2.39,2.39,0,0,1-1.73.7,2.39,2.39,0,0,1-1.74-.7,2.31,2.31,0,0,1-.72-1.72v-45a2.31,2.31,0,0,1,.72-1.72,2.39,2.39,0,0,1,1.74-.7h.19a3.54,3.54,0,0,1,.74.23Z" transform="translate(231 -12.19)"/><path class="cls-2" d="M-31.16,63a2.31,2.31,0,0,1-1.64-.8,2.59,2.59,0,0,1-.62-1.74V15.54a2.33,2.33,0,0,1,.74-1.78,2.56,2.56,0,0,1,1.79-.68H-8.62a2.33,2.33,0,0,1,1.72.7,2.37,2.37,0,0,1,.7,1.76,2.39,2.39,0,0,1-.7,1.73A2.31,2.31,0,0,1-8.62,18H-28.51V35.66h14.67a2.24,2.24,0,0,1,1.75.68,2.41,2.41,0,0,1,.7,1.74,2.27,2.27,0,0,1-.7,1.7,2.43,2.43,0,0,1-1.75.68H-28.51V58.13H-8.62a2.33,2.33,0,0,1,1.72.7,2.31,2.31,0,0,1,.7,1.71,2.44,2.44,0,0,1-.7,1.78A2.17,2.17,0,0,1-8.62,63Z" transform="translate(231 -12.19)"/><path class="cls-2" d="M39.47,22a2.43,2.43,0,0,1-.7,1.72,2.56,2.56,0,0,1-1.78.72,2.15,2.15,0,0,1-1.69-.68,21,21,0,0,0-6.83-4.57,20.47,20.47,0,0,0-7.76-1.52,20,20,0,0,0-7.94,1.6A20.37,20.37,0,0,0,1.91,30.12a20.66,20.66,0,0,0-.06,15.8A20.89,20.89,0,0,0,6.1,52.43a20.54,20.54,0,0,0,6.44,4.47,19.74,19.74,0,0,0,8.09,1.65,20.84,20.84,0,0,0,7.72-1.36,19.38,19.38,0,0,0,6.83-4.52,2.56,2.56,0,0,1,1.75-.73,2.37,2.37,0,0,1,1.72.65,2.26,2.26,0,0,1,.72,1.75,2.39,2.39,0,0,1-.68,1.72,24.59,24.59,0,0,1-8.46,5.63,26.19,26.19,0,0,1-9.6,1.82,24.59,24.59,0,0,1-6.71-.92,26.1,26.1,0,0,1-6-2.55,24.81,24.81,0,0,1-5.11-4A25.41,25.41,0,0,1-3.7,44.87a25.42,25.42,0,0,1,0-13.26,25.75,25.75,0,0,1,2.43-6,26.45,26.45,0,0,1,3.85-5.19,24.31,24.31,0,0,1,5.09-4.09,25.06,25.06,0,0,1,13.12-3.63,25,25,0,0,1,9.57,1.91,25.57,25.57,0,0,1,8.41,5.66A2.35,2.35,0,0,1,39.47,22Z" transform="translate(231 -12.19)"/><path class="cls-2" d="M61,18V60.54a2.4,2.4,0,0,1-.71,1.74,2.33,2.33,0,0,1-1.75.72,2.18,2.18,0,0,1-1.68-.72,2.48,2.48,0,0,1-.66-1.74V18H44.11a2.32,2.32,0,0,1-1.72-.73,2.39,2.39,0,0,1-.7-1.73,2.39,2.39,0,0,1,2.42-2.42H73.52a2.3,2.3,0,0,1,1.71.72,2.39,2.39,0,0,1,.7,1.74,2.29,2.29,0,0,1-.7,1.73,2.35,2.35,0,0,1-1.71.69Z" transform="translate(231 -12.19)"/><path class="cls-2" d="M84.24,63a2.31,2.31,0,0,1-1.64-.8A2.59,2.59,0,0,1,82,60.46V15.54a2.3,2.3,0,0,1,.74-1.78,2.56,2.56,0,0,1,1.79-.68h22.27a2.33,2.33,0,0,1,1.72.7,2.52,2.52,0,0,1,0,3.49,2.31,2.31,0,0,1-1.72.72H86.89V35.66h14.67a2.24,2.24,0,0,1,1.75.68,2.41,2.41,0,0,1,.7,1.74,2.27,2.27,0,0,1-.7,1.7,2.43,2.43,0,0,1-1.75.68H86.89V58.13h19.89a2.39,2.39,0,0,1,2.42,2.41,2.44,2.44,0,0,1-.7,1.78,2.17,2.17,0,0,1-1.72.68Z" transform="translate(231 -12.19)"/><path class="cls-2" d="M152.41,63h-37a1.93,1.93,0,0,1-1.4-.58,2.45,2.45,0,0,1-.88-1.68,2.32,2.32,0,0,1,.6-1.83L146.91,18H116.57a2.31,2.31,0,0,1-1.72-.72,2.43,2.43,0,0,1-.7-1.73,2.35,2.35,0,0,1,.74-1.74,2.45,2.45,0,0,1,1.76-.72h35.41a2.72,2.72,0,0,1,1.64.66,2.3,2.3,0,0,1,.84,1.66,2.42,2.42,0,0,1-.61,1.77L120.67,58.09h31.74a2.31,2.31,0,0,1,1.72.72,2.5,2.5,0,0,1,0,3.47A2.31,2.31,0,0,1,152.41,63Z" transform="translate(231 -12.19)"/><path class="cls-2" d="M161.61,44.08a2.48,2.48,0,0,1-1.79-4.25,2.45,2.45,0,0,1,1.79-.74h24.14a2.49,2.49,0,0,1,2.54,2.5,2.41,2.41,0,0,1-.72,1.77,2.47,2.47,0,0,1-1.82.72Z" transform="translate(231 -12.19)"/><path class="cls-2" d="M193.05,16.51a2.18,2.18,0,0,1,0-1.85,2.47,2.47,0,0,1,4.56,0l17.12,39.82,17.08-39.82a2.5,2.5,0,0,1,1.33-1.31,2.33,2.33,0,0,1,1.83,0,2.44,2.44,0,0,1,1.35,1.31,2.18,2.18,0,0,1,0,1.85l-19.34,45a2.56,2.56,0,0,1-1,1.17,2.42,2.42,0,0,1-1.4.35,2.47,2.47,0,0,1-1.23-.41,2.42,2.42,0,0,1-.88-1.11Z" transform="translate(231 -12.19)"/><path class="cls-2" d="M272.31,14.72a25.45,25.45,0,0,1,8.08,5.44,25.94,25.94,0,0,1,5.46,8.05,24.4,24.4,0,0,1,2,9.87,25,25,0,0,1-.92,6.77,25.89,25.89,0,0,1-2.55,6.06A25.6,25.6,0,0,1,275.26,60a25.89,25.89,0,0,1-6.06,2.55,25.37,25.37,0,0,1-13.54,0A25.89,25.89,0,0,1,249.6,60a24.56,24.56,0,0,1-5.11-4,25.78,25.78,0,0,1-3.94-5.15A25.45,25.45,0,0,1,238,44.85a25.77,25.77,0,0,1-.89-6.77,25.41,25.41,0,0,1,12.48-21.9,24.68,24.68,0,0,1,6.06-2.55,25.31,25.31,0,0,1,6.77-.9A24.64,24.64,0,0,1,272.31,14.72Zm-17.86,4.56A20.3,20.3,0,0,0,248,23.65a20.93,20.93,0,0,0-4.35,6.47,20.72,20.72,0,0,0,0,16,20.83,20.83,0,0,0,4.35,6.5A20.47,20.47,0,0,0,254.45,57a20.9,20.9,0,0,0,16,0A20.3,20.3,0,0,0,281.3,46.09a20.72,20.72,0,0,0,0-16,20.38,20.38,0,0,0-10.86-10.84,20.77,20.77,0,0,0-16,0Z" transform="translate(231 -12.19)"/><path class="cls-2" d="M323.38,15.46a2.32,2.32,0,0,1,.73-1.72,2.52,2.52,0,0,1,3.49,0,2.33,2.33,0,0,1,.7,1.72V46A17.85,17.85,0,0,1,327,52.78a17.08,17.08,0,0,1-3.62,5.56,17.34,17.34,0,0,1-5.5,3.74,17.13,17.13,0,0,1-7,1.39,17.78,17.78,0,0,1-7.08-1.39,18.07,18.07,0,0,1-5.66-3.74A17.36,17.36,0,0,1,293,46V15.62a2.35,2.35,0,0,1,.72-1.76,2.51,2.51,0,0,1,3.48,0,2.35,2.35,0,0,1,.72,1.75v30.2a12.66,12.66,0,0,0,1,5,12.37,12.37,0,0,0,2.73,4.05,12.69,12.69,0,0,0,4.1,2.71,13,13,0,0,0,5.09,1,12.31,12.31,0,0,0,8.95-3.68,12.29,12.29,0,0,0,2.59-4,13.24,13.24,0,0,0,1-4.89Z" transform="translate(231 -12.19)"/><path class="cls-2" d="M345.85,37.44A20.12,20.12,0,0,1,341,34.82,13,13,0,0,1,337.5,31a10,10,0,0,1-1.32-5.21,11.33,11.33,0,0,1,1.32-5.48A13.37,13.37,0,0,1,341,16.22a16.35,16.35,0,0,1,4.9-2.61,17.29,17.29,0,0,1,5.53-.92,20.76,20.76,0,0,1,4.41.47,17.66,17.66,0,0,1,4,1.38,15.18,15.18,0,0,1,3.39,2.26,12.25,12.25,0,0,1,2.54,3.14,1.67,1.67,0,0,1,.19,1.43,2.86,2.86,0,0,1-.66,1.15,2.39,2.39,0,0,1-1.42.6,2.32,2.32,0,0,1-1.7-.52,13,13,0,0,0-4.84-3.88,14.43,14.43,0,0,0-5.85-1.12,13.22,13.22,0,0,0-3.66.53,11.72,11.72,0,0,0-3.34,1.54,8.31,8.31,0,0,0-2.45,2.56,6.56,6.56,0,0,0-1,3.56,5.59,5.59,0,0,0,1.13,3.57,9.55,9.55,0,0,0,2.87,2.4,17.74,17.74,0,0,0,3.8,1.58c1.38.4,2.69.76,3.94,1.07q2.88.9,5.63,2a21.31,21.31,0,0,1,4.88,2.77,13,13,0,0,1,3.41,3.9A10.76,10.76,0,0,1,368,48.53a13.74,13.74,0,0,1-1.35,6.14,14.49,14.49,0,0,1-3.62,4.72,16.19,16.19,0,0,1-5.31,3,18.69,18.69,0,0,1-6.34,1.08,19.4,19.4,0,0,1-5.34-.74,21.39,21.39,0,0,1-4.74-2,16.76,16.76,0,0,1-3.78-3A13,13,0,0,1,335.08,54a2.4,2.4,0,0,1-.17-2.09,2.75,2.75,0,0,1,1.19-1.26,2,2,0,0,1,1.69-.22,4,4,0,0,1,1.66,1.39,10,10,0,0,0,2,2.8,12.89,12.89,0,0,0,2.87,2.13,14.9,14.9,0,0,0,3.47,1.35,15.93,15.93,0,0,0,3.86.46,14.18,14.18,0,0,0,4.11-.62,11.68,11.68,0,0,0,3.69-1.87,9.81,9.81,0,0,0,2.65-3.1,8.73,8.73,0,0,0,1-4.27,6.48,6.48,0,0,0-1-3.73,9.07,9.07,0,0,0-2.69-2.57,19,19,0,0,0-3.78-1.84c-1.41-.5-2.82-1-4.25-1.46A43.62,43.62,0,0,1,345.85,37.44Z" transform="translate(231 -12.19)"/></g></g><rect id="Rectangle_93" data-name="Rectangle 93" class="cls-3" x="4" y="63.81" width="8.56" height="314.74"/><rect id="Rectangle_94" data-name="Rectangle 94" class="cls-4" x="886.45" y="851.18" width="8.56" height="25.53"/><rect id="Rectangle_95" data-name="Rectangle 95" class="cls-5" x="4" y="387.31" width="8.56" height="49.19"/><rect x="886.73" y="675.19" width="8" height="148.06"/></svg>