<svg id="Calque_1" data-name="Calque 1" xmlns="http://www.w3.org/2000/svg" viewBox="0 0 523.62 319.66"><defs><style>.cls-1{fill:#ef3924;}</style></defs><title>red_top_elem</title><path d="M487.2,570.06a3.15,3.15,0,0,1-.85-.11L184.18,489l1.69-6.3,299,80.14,68.26-253.48,6.3,1.7-69.1,256.63A3.27,3.27,0,0,1,487.2,570.06Z" transform="translate(-35.83 -250.41)"/><path id="Tracé_527-2" data-name="Tracé 527-2" class="cls-1" d="M444.15,252.23,295.91,471.47,37.65,297.27" transform="translate(-35.83 -250.41)"/><path d="M295.91,474.73a3.29,3.29,0,0,1-1.82-.55L35.83,300l3.65-5.41L295,466.94,441.45,250.41l5.4,3.65L298.61,473.3A3.26,3.26,0,0,1,295.91,474.73Z" transform="translate(-35.83 -250.41)"/></svg>