<svg id="Calque_1" data-name="Calque 1" xmlns="http://www.w3.org/2000/svg" viewBox="0 0 891 532.2"><defs><style>.cls-1{isolation:isolate;}.cls-2{fill:none;stroke:#000;}.cls-3{fill:#fcb316;}.cls-4{fill:#367c6e;}.cls-5{fill:#ef3924;}</style></defs><title>payment_frame</title><path d="M436.72,348.83h-8V-29.07H324.61v-8H432.72a4,4,0,0,1,4,4Z" transform="translate(454 84.9)"/><path d="M-160.35,447.29H-449.72a4,4,0,0,1-4-4V388.72h8v50.57h285.37Z" transform="translate(454 84.9)"/><g id="PROCÉDEZ_AU_PAIEMENT" data-name="PROCÉDEZ AU PAIEMENT" class="cls-1"><g class="cls-1"><path d="M-447.74-40.49v19.07a2.31,2.31,0,0,1-.72,1.72,2.39,2.39,0,0,1-1.73.7,2.39,2.39,0,0,1-1.74-.7,2.31,2.31,0,0,1-.72-1.72V-66.5a2.31,2.31,0,0,1,.72-1.74,2.46,2.46,0,0,1,1.74-.68h13.1a15.15,15.15,0,0,1,5.77,1.09,14.56,14.56,0,0,1,4.68,3,14.15,14.15,0,0,1,3.14,4.53,13.82,13.82,0,0,1,1.15,5.65A13.71,13.71,0,0,1-423.5-49a13.83,13.83,0,0,1-3.14,4.48,14.32,14.32,0,0,1-4.68,3,15.53,15.53,0,0,1-5.77,1.07Zm0-23.59V-45.4H-437a10,10,0,0,0,3.9-.76,9.91,9.91,0,0,0,3.1-2.05,9.61,9.61,0,0,0,2.05-3,8.92,8.92,0,0,0,.74-3.57,9,9,0,0,0-.76-3.69,9.31,9.31,0,0,0-2.07-2.94,9.59,9.59,0,0,0-3.12-2,10.51,10.51,0,0,0-3.92-.72Z" transform="translate(454 84.9)"/><path d="M-385.22-54.65a13.88,13.88,0,0,1-.88,5,13.89,13.89,0,0,1-2.43,4.13,14.51,14.51,0,0,1-3.71,3.06,14.45,14.45,0,0,1-4.68,1.72l11.31,18.09a2.39,2.39,0,0,1,.2,2,2.42,2.42,0,0,1-1.29,1.41,2.28,2.28,0,0,1-1.82.17,2.48,2.48,0,0,1-1.42-1.15l-12.44-20.24h-8.23v19.07a2.31,2.31,0,0,1-.72,1.72,2.39,2.39,0,0,1-1.74.7,2.39,2.39,0,0,1-1.73-.7,2.31,2.31,0,0,1-.72-1.72V-66.5a2.31,2.31,0,0,1,.72-1.74,2.45,2.45,0,0,1,1.73-.68H-400a15.15,15.15,0,0,1,5.77,1.09,14.78,14.78,0,0,1,4.68,3,14.15,14.15,0,0,1,3.14,4.53A13.82,13.82,0,0,1-385.22-54.65Zm-25.39-9.43V-45.4h10.69a10,10,0,0,0,3.9-.76,9.91,9.91,0,0,0,3.1-2.05,9.41,9.41,0,0,0,2-3,8.76,8.76,0,0,0,.75-3.57,9,9,0,0,0-.76-3.69A9.31,9.31,0,0,0-393-61.39a9.59,9.59,0,0,0-3.12-2,10.55,10.55,0,0,0-3.92-.72Z" transform="translate(454 84.9)"/><path d="M-345.15-67.28a25.52,25.52,0,0,1,8.07,5.44,25.8,25.8,0,0,1,5.47,8.05,24.56,24.56,0,0,1,2,9.87,25,25,0,0,1-.91,6.77,25.91,25.91,0,0,1-2.56,6.06,25.26,25.26,0,0,1-4,5.15,25.55,25.55,0,0,1-5.14,4,26.14,26.14,0,0,1-6.07,2.55,24.85,24.85,0,0,1-6.76.92,24.92,24.92,0,0,1-6.77-.92A26.14,26.14,0,0,1-367.87-22a24.5,24.5,0,0,1-5.1-4,25.78,25.78,0,0,1-3.94-5.15,25,25,0,0,1-2.54-6.06,25.36,25.36,0,0,1-.9-6.77,25.1,25.1,0,0,1,.9-6.75,25.07,25.07,0,0,1,2.54-6A25.38,25.38,0,0,1-373-61.84a25.19,25.19,0,0,1,5.1-4,24.91,24.91,0,0,1,6.07-2.55,25.31,25.31,0,0,1,6.77-.9A24.64,24.64,0,0,1-345.15-67.28ZM-363-62.72a20.3,20.3,0,0,0-6.47,4.37,20.58,20.58,0,0,0-4.35,6.47,19.83,19.83,0,0,0-1.6,8,20,20,0,0,0,1.6,8,20.49,20.49,0,0,0,4.35,6.5A20.47,20.47,0,0,0-363-25a20.16,20.16,0,0,0,8,1.59A20.09,20.09,0,0,0-347-25a20.67,20.67,0,0,0,6.49-4.37,20.55,20.55,0,0,0,4.37-6.5,20,20,0,0,0,1.6-8,19.83,19.83,0,0,0-1.6-8,20.64,20.64,0,0,0-4.37-6.47A20.5,20.5,0,0,0-347-62.72a19.92,19.92,0,0,0-8-1.6A20,20,0,0,0-363-62.72Z" transform="translate(454 84.9)"/><path d="M-282.18-60a2.47,2.47,0,0,1-.7,1.72,2.56,2.56,0,0,1-1.78.72,2.19,2.19,0,0,1-1.7-.68,20.82,20.82,0,0,0-6.82-4.57,20.51,20.51,0,0,0-7.76-1.52,20,20,0,0,0-7.94,1.6,20.5,20.5,0,0,0-6.49,4.37,20.59,20.59,0,0,0-4.37,6.51,20.09,20.09,0,0,0-1.6,8,20.06,20.06,0,0,0,1.54,7.8,20.89,20.89,0,0,0,4.25,6.51,20.43,20.43,0,0,0,6.44,4.47A19.74,19.74,0,0,0-301-23.45a21,21,0,0,0,7.72-1.36,19.38,19.38,0,0,0,6.83-4.52,2.56,2.56,0,0,1,1.75-.73,2.37,2.37,0,0,1,1.72.65,2.26,2.26,0,0,1,.72,1.75,2.39,2.39,0,0,1-.68,1.72,24.53,24.53,0,0,1-8.47,5.63A26.09,26.09,0,0,1-301-18.49a24.59,24.59,0,0,1-6.71-.92,25.92,25.92,0,0,1-6-2.55,25.16,25.16,0,0,1-5.11-4,25.23,25.23,0,0,1-3.94-5.15,26.16,26.16,0,0,1-2.54-6.06,25.51,25.51,0,0,1-.89-6.75,24.66,24.66,0,0,1,.86-6.51,25.75,25.75,0,0,1,2.43-6,26.8,26.8,0,0,1,3.84-5.19A24.84,24.84,0,0,1-314-65.68a24.93,24.93,0,0,1,6.13-2.67,24.87,24.87,0,0,1,7-1,25.1,25.1,0,0,1,9.57,1.91,25.42,25.42,0,0,1,8.41,5.66A2.35,2.35,0,0,1-282.18-60Z" transform="translate(454 84.9)"/><path d="M-273.17-19a2.29,2.29,0,0,1-1.64-.8,2.55,2.55,0,0,1-.63-1.74V-66.46a2.33,2.33,0,0,1,.74-1.78,2.6,2.6,0,0,1,1.8-.68h22.27a2.31,2.31,0,0,1,1.71.7,2.38,2.38,0,0,1,.71,1.76,2.39,2.39,0,0,1-.71,1.73,2.29,2.29,0,0,1-1.71.72h-19.89v17.67h14.66a2.26,2.26,0,0,1,1.76.68,2.45,2.45,0,0,1,.7,1.74,2.31,2.31,0,0,1-.7,1.7,2.45,2.45,0,0,1-1.76.68h-14.66v17.66h19.89a2.32,2.32,0,0,1,1.71.71,2.32,2.32,0,0,1,.71,1.71,2.44,2.44,0,0,1-.71,1.78,2.15,2.15,0,0,1-1.71.68Zm12.59-54.72a2.48,2.48,0,0,1-1.81.78,2.16,2.16,0,0,1-1.7-.74,2.34,2.34,0,0,1-.76-1.71,2.41,2.41,0,0,1,.76-1.8l6.4-6.47a2.37,2.37,0,0,1,1.75-.74,2.47,2.47,0,0,1,1.76.7,2.41,2.41,0,0,1,.78,1.75,2.37,2.37,0,0,1-.74,1.72Z" transform="translate(454 84.9)"/><path d="M-230.09-68.92a25.63,25.63,0,0,1,6.76.88,25,25,0,0,1,6.05,2.49,26.65,26.65,0,0,1,5.15,3.88,23.78,23.78,0,0,1,4,5,25.29,25.29,0,0,1,2.55,6,24.52,24.52,0,0,1,.92,6.73,24,24,0,0,1-2,9.81,25.06,25.06,0,0,1-5.45,7.91,25.12,25.12,0,0,1-8.07,5.29A25.6,25.6,0,0,1-230.09-19h-8.38a2.39,2.39,0,0,1-1.73-.7,2.31,2.31,0,0,1-.72-1.72V-66.5a2.31,2.31,0,0,1,.72-1.74,2.45,2.45,0,0,1,1.73-.68ZM-230-64h-6v40.1h6a20.76,20.76,0,0,0,8-1.53,20.13,20.13,0,0,0,6.5-4.21A20,20,0,0,0-211.2-36a19.65,19.65,0,0,0,1.59-7.94,19.65,19.65,0,0,0-1.59-7.89,20.2,20.2,0,0,0-4.35-6.36A20.53,20.53,0,0,0-222-62.44,20.15,20.15,0,0,0-230-64Z" transform="translate(454 84.9)"/><path d="M-195-19a2.31,2.31,0,0,1-1.64-.8,2.54,2.54,0,0,1-.62-1.74V-66.46a2.3,2.3,0,0,1,.74-1.78,2.56,2.56,0,0,1,1.79-.68h22.27a2.33,2.33,0,0,1,1.72.7,2.37,2.37,0,0,1,.7,1.76,2.39,2.39,0,0,1-.7,1.73,2.31,2.31,0,0,1-1.72.72h-19.89v17.67h14.66a2.25,2.25,0,0,1,1.76.68,2.41,2.41,0,0,1,.7,1.74,2.27,2.27,0,0,1-.7,1.7,2.44,2.44,0,0,1-1.76.68h-14.66v17.66h19.89a2.34,2.34,0,0,1,1.72.71,2.31,2.31,0,0,1,.7,1.71,2.44,2.44,0,0,1-.7,1.78,2.17,2.17,0,0,1-1.72.68Z" transform="translate(454 84.9)"/><path d="M-126.81-19h-37a1.93,1.93,0,0,1-1.4-.58,2.41,2.41,0,0,1-.88-1.68,2.32,2.32,0,0,1,.6-1.83L-132.31-64h-30.34a2.31,2.31,0,0,1-1.72-.72,2.43,2.43,0,0,1-.7-1.73,2.35,2.35,0,0,1,.74-1.74,2.45,2.45,0,0,1,1.76-.72h35.41a2.72,2.72,0,0,1,1.64.66,2.3,2.3,0,0,1,.84,1.66,2.46,2.46,0,0,1-.61,1.77l-33.27,40.92h31.75a2.31,2.31,0,0,1,1.72.72,2.43,2.43,0,0,1,.7,1.73,2.43,2.43,0,0,1-.7,1.74A2.31,2.31,0,0,1-126.81-19Z" transform="translate(454 84.9)"/><path d="M-71.24-34.6H-93.66l-6,14.12A2.39,2.39,0,0,1-101-19.14a2.46,2.46,0,0,1-2-.06,2.14,2.14,0,0,1-1.27-1.36,2.49,2.49,0,0,1,.14-1.87l19.46-45a2.29,2.29,0,0,1,2.26-1.48,2.33,2.33,0,0,1,1.32.39,2.43,2.43,0,0,1,.9,1.09l19.35,45a2.6,2.6,0,0,1,.13,1.89,2.12,2.12,0,0,1-1.23,1.34,2.35,2.35,0,0,1-1.91.06,2.39,2.39,0,0,1-1.4-1.3Zm-20.35-4.91H-73.3l-9.17-21.57Z" transform="translate(454 84.9)"/><path d="M-25.84-66.54a2.31,2.31,0,0,1,.72-1.72,2.43,2.43,0,0,1,1.74-.7,2.41,2.41,0,0,1,1.75.7,2.33,2.33,0,0,1,.7,1.72V-36a17.88,17.88,0,0,1-1.3,6.82,17.11,17.11,0,0,1-3.63,5.56,17.34,17.34,0,0,1-5.5,3.74,17.13,17.13,0,0,1-7,1.39,17.78,17.78,0,0,1-7.08-1.39A17.91,17.91,0,0,1-51-23.66a17.15,17.15,0,0,1-3.77-5.56A17.2,17.2,0,0,1-56.18-36V-66.38a2.35,2.35,0,0,1,.72-1.76,2.39,2.39,0,0,1,1.73-.7,2.39,2.39,0,0,1,1.74.7,2.35,2.35,0,0,1,.72,1.75v30.2a12.49,12.49,0,0,0,1,5,12.37,12.37,0,0,0,2.73,4.05,12.65,12.65,0,0,0,4.09,2.71,13,13,0,0,0,5.09,1,12.45,12.45,0,0,0,5-1,12.36,12.36,0,0,0,3.94-2.69,12.13,12.13,0,0,0,2.59-4,13.24,13.24,0,0,0,1-4.89Z" transform="translate(454 84.9)"/><path d="M10.43-40.49v19.07a2.31,2.31,0,0,1-.72,1.72A2.41,2.41,0,0,1,8-19a2.41,2.41,0,0,1-1.74-.7,2.31,2.31,0,0,1-.72-1.72V-66.5a2.31,2.31,0,0,1,.72-1.74A2.47,2.47,0,0,1,8-68.92h13.1a15.2,15.2,0,0,1,5.78,1.09,14.78,14.78,0,0,1,4.68,3,14.31,14.31,0,0,1,3.14,4.53,14,14,0,0,1,1.15,5.65A13.87,13.87,0,0,1,34.67-49a14,14,0,0,1-3.14,4.48,14.54,14.54,0,0,1-4.68,3,15.59,15.59,0,0,1-5.78,1.07Zm0-23.59V-45.4H21.11a10,10,0,0,0,3.9-.76,9.8,9.8,0,0,0,3.1-2.05,9.44,9.44,0,0,0,2.05-3,8.75,8.75,0,0,0,.74-3.57,8.86,8.86,0,0,0-.76-3.69,9.29,9.29,0,0,0-2.06-2.94,9.81,9.81,0,0,0-3.12-2A10.55,10.55,0,0,0,21-64.08Z" transform="translate(454 84.9)"/><path d="M65.61-34.6H43.19l-6,14.12a2.39,2.39,0,0,1-1.36,1.34,2.46,2.46,0,0,1-2-.06,2.14,2.14,0,0,1-1.27-1.36,2.49,2.49,0,0,1,.14-1.87l19.46-45a2.29,2.29,0,0,1,2.26-1.48,2.33,2.33,0,0,1,1.32.39,2.49,2.49,0,0,1,.9,1.09l19.35,45a2.6,2.6,0,0,1,.13,1.89A2.12,2.12,0,0,1,75-19.2a2.35,2.35,0,0,1-1.91.06,2.39,2.39,0,0,1-1.4-1.3ZM45.26-39.51H63.55L54.38-61.08Z" transform="translate(454 84.9)"/><path d="M87.14-21.42a2.31,2.31,0,0,1-.72,1.72,2.39,2.39,0,0,1-1.74.7A2.39,2.39,0,0,1,83-19.7a2.31,2.31,0,0,1-.72-1.72V-66.5A2.31,2.31,0,0,1,83-68.24a2.45,2.45,0,0,1,1.73-.68,2.46,2.46,0,0,1,1.74.68,2.31,2.31,0,0,1,.72,1.74Z" transform="translate(454 84.9)"/><path d="M99.54-19a2.29,2.29,0,0,1-1.63-.8,2.55,2.55,0,0,1-.63-1.74V-66.46A2.33,2.33,0,0,1,98-68.24a2.58,2.58,0,0,1,1.8-.68h22.26a2.33,2.33,0,0,1,1.72.7,2.37,2.37,0,0,1,.7,1.76,2.39,2.39,0,0,1-.7,1.73,2.31,2.31,0,0,1-1.72.72H102.2v17.67h14.66a2.23,2.23,0,0,1,1.75.68,2.42,2.42,0,0,1,.71,1.74,2.28,2.28,0,0,1-.71,1.7,2.41,2.41,0,0,1-1.75.68H102.2v17.66h19.88a2.34,2.34,0,0,1,1.72.71,2.31,2.31,0,0,1,.7,1.71,2.44,2.44,0,0,1-.7,1.78,2.17,2.17,0,0,1-1.72.68Z" transform="translate(454 84.9)"/><path d="M136.94-57.1l-4.76,35.88a2.35,2.35,0,0,1-1,1.6,2.46,2.46,0,0,1-1.81.46,2.57,2.57,0,0,1-1.62-1,2.2,2.2,0,0,1-.45-1.79l5.93-44.62A2.15,2.15,0,0,1,134-68a3.15,3.15,0,0,1,.86-.59,2.37,2.37,0,0,1,1.85,0,2.4,2.4,0,0,1,1.38,1.31l16.11,39.54,16.11-39.54a2.41,2.41,0,0,1,1.28-1.29,2.36,2.36,0,0,1,1.88,0l.43.24a2.66,2.66,0,0,1,.77.76,2.22,2.22,0,0,1,.39,1l5.66,44.69a2.32,2.32,0,0,1-.51,1.8,2.31,2.31,0,0,1-1.64.89,2.43,2.43,0,0,1-1.81-.48,2.32,2.32,0,0,1-.92-1.62l-4.52-35.65L156.44-20.4a2.48,2.48,0,0,1-1,1.17,2.26,2.26,0,0,1-1.41.31,2.44,2.44,0,0,1-1.22-.41,2.46,2.46,0,0,1-.88-1.07Z" transform="translate(454 84.9)"/><path d="M188.81-19a2.33,2.33,0,0,1-1.64-.8,2.59,2.59,0,0,1-.62-1.74V-66.46a2.33,2.33,0,0,1,.74-1.78,2.58,2.58,0,0,1,1.8-.68h22.26a2.33,2.33,0,0,1,1.72.7,2.37,2.37,0,0,1,.7,1.76,2.39,2.39,0,0,1-.7,1.73,2.31,2.31,0,0,1-1.72.72H191.46v17.67h14.67a2.23,2.23,0,0,1,1.75.68,2.42,2.42,0,0,1,.71,1.74,2.28,2.28,0,0,1-.71,1.7,2.41,2.41,0,0,1-1.75.68H191.46v17.66h19.89a2.34,2.34,0,0,1,1.72.71,2.31,2.31,0,0,1,.7,1.71,2.44,2.44,0,0,1-.7,1.78,2.17,2.17,0,0,1-1.72.68Z" transform="translate(454 84.9)"/><path d="M224.5-68.61h.07a.34.34,0,0,0,.12.12h0l.08,0a.12.12,0,0,1,.08,0,.19.19,0,0,1,.15.08,2,2,0,0,1,.67.81l27.18,38.69V-66.46a2.37,2.37,0,0,1,.72-1.74,2.41,2.41,0,0,1,1.77-.72,2.29,2.29,0,0,1,1.74.72,2.46,2.46,0,0,1,.68,1.74v45a2.35,2.35,0,0,1-.56,1.56,2.4,2.4,0,0,1-1.43.82,1.84,1.84,0,0,1-.47,0,2.52,2.52,0,0,1-1.83-.74l-.15-.23-.12-.12L226-59v37.63a2.31,2.31,0,0,1-.72,1.72,2.39,2.39,0,0,1-1.74.7,2.37,2.37,0,0,1-1.73-.7,2.28,2.28,0,0,1-.73-1.72v-45a2.28,2.28,0,0,1,.73-1.72,2.37,2.37,0,0,1,1.73-.7h.2a3.74,3.74,0,0,1,.74.23Z" transform="translate(454 84.9)"/><path d="M281.24-64v42.58a2.39,2.39,0,0,1-.7,1.74,2.35,2.35,0,0,1-1.76.72,2.17,2.17,0,0,1-1.67-.72,2.49,2.49,0,0,1-.67-1.74V-64H264.32a2.32,2.32,0,0,1-1.72-.73,2.39,2.39,0,0,1-.7-1.73,2.33,2.33,0,0,1,.7-1.72,2.33,2.33,0,0,1,1.72-.7h29.4a2.31,2.31,0,0,1,1.72.72,2.39,2.39,0,0,1,.7,1.74,2.29,2.29,0,0,1-.7,1.73,2.36,2.36,0,0,1-1.72.69Z" transform="translate(454 84.9)"/></g><g class="cls-1"><path class="cls-2" d="M-447.74-40.49v19.07a2.31,2.31,0,0,1-.72,1.72,2.39,2.39,0,0,1-1.73.7,2.39,2.39,0,0,1-1.74-.7,2.31,2.31,0,0,1-.72-1.72V-66.5a2.31,2.31,0,0,1,.72-1.74,2.46,2.46,0,0,1,1.74-.68h13.1a15.15,15.15,0,0,1,5.77,1.09,14.56,14.56,0,0,1,4.68,3,14.15,14.15,0,0,1,3.14,4.53,13.82,13.82,0,0,1,1.15,5.65A13.71,13.71,0,0,1-423.5-49a13.83,13.83,0,0,1-3.14,4.48,14.32,14.32,0,0,1-4.68,3,15.53,15.53,0,0,1-5.77,1.07Zm0-23.59V-45.4H-437a10,10,0,0,0,3.9-.76,9.91,9.91,0,0,0,3.1-2.05,9.61,9.61,0,0,0,2.05-3,8.92,8.92,0,0,0,.74-3.57,9,9,0,0,0-.76-3.69,9.31,9.31,0,0,0-2.07-2.94,9.59,9.59,0,0,0-3.12-2,10.51,10.51,0,0,0-3.92-.72Z" transform="translate(454 84.9)"/><path class="cls-2" d="M-385.22-54.65a13.88,13.88,0,0,1-.88,5,13.89,13.89,0,0,1-2.43,4.13,14.51,14.51,0,0,1-3.71,3.06,14.45,14.45,0,0,1-4.68,1.72l11.31,18.09a2.39,2.39,0,0,1,.2,2,2.42,2.42,0,0,1-1.29,1.41,2.28,2.28,0,0,1-1.82.17,2.48,2.48,0,0,1-1.42-1.15l-12.44-20.24h-8.23v19.07a2.31,2.31,0,0,1-.72,1.72,2.39,2.39,0,0,1-1.74.7,2.39,2.39,0,0,1-1.73-.7,2.31,2.31,0,0,1-.72-1.72V-66.5a2.31,2.31,0,0,1,.72-1.74,2.45,2.45,0,0,1,1.73-.68H-400a15.15,15.15,0,0,1,5.77,1.09,14.78,14.78,0,0,1,4.68,3,14.15,14.15,0,0,1,3.14,4.53A13.82,13.82,0,0,1-385.22-54.65Zm-25.39-9.43V-45.4h10.69a10,10,0,0,0,3.9-.76,9.91,9.91,0,0,0,3.1-2.05,9.41,9.41,0,0,0,2-3,8.76,8.76,0,0,0,.75-3.57,9,9,0,0,0-.76-3.69A9.31,9.31,0,0,0-393-61.39a9.59,9.59,0,0,0-3.12-2,10.55,10.55,0,0,0-3.92-.72Z" transform="translate(454 84.9)"/><path class="cls-2" d="M-345.15-67.28a25.52,25.52,0,0,1,8.07,5.44,25.8,25.8,0,0,1,5.47,8.05,24.56,24.56,0,0,1,2,9.87,25,25,0,0,1-.91,6.77,25.91,25.91,0,0,1-2.56,6.06,25.26,25.26,0,0,1-4,5.15,25.55,25.55,0,0,1-5.14,4,26.14,26.14,0,0,1-6.07,2.55,24.85,24.85,0,0,1-6.76.92,24.92,24.92,0,0,1-6.77-.92A26.14,26.14,0,0,1-367.87-22a24.5,24.5,0,0,1-5.1-4,25.78,25.78,0,0,1-3.94-5.15,25,25,0,0,1-2.54-6.06,25.36,25.36,0,0,1-.9-6.77,25.1,25.1,0,0,1,.9-6.75,25.07,25.07,0,0,1,2.54-6A25.38,25.38,0,0,1-373-61.84a25.19,25.19,0,0,1,5.1-4,24.91,24.91,0,0,1,6.07-2.55,25.31,25.31,0,0,1,6.77-.9A24.64,24.64,0,0,1-345.15-67.28ZM-363-62.72a20.3,20.3,0,0,0-6.47,4.37,20.58,20.58,0,0,0-4.35,6.47,19.83,19.83,0,0,0-1.6,8,20,20,0,0,0,1.6,8,20.49,20.49,0,0,0,4.35,6.5A20.47,20.47,0,0,0-363-25a20.16,20.16,0,0,0,8,1.59A20.09,20.09,0,0,0-347-25a20.67,20.67,0,0,0,6.49-4.37,20.55,20.55,0,0,0,4.37-6.5,20,20,0,0,0,1.6-8,19.83,19.83,0,0,0-1.6-8,20.64,20.64,0,0,0-4.37-6.47A20.5,20.5,0,0,0-347-62.72a19.92,19.92,0,0,0-8-1.6A20,20,0,0,0-363-62.72Z" transform="translate(454 84.9)"/><path class="cls-2" d="M-282.18-60a2.47,2.47,0,0,1-.7,1.72,2.56,2.56,0,0,1-1.78.72,2.19,2.19,0,0,1-1.7-.68,20.82,20.82,0,0,0-6.82-4.57,20.51,20.51,0,0,0-7.76-1.52,20,20,0,0,0-7.94,1.6,20.5,20.5,0,0,0-6.49,4.37,20.59,20.59,0,0,0-4.37,6.51,20.09,20.09,0,0,0-1.6,8,20.06,20.06,0,0,0,1.54,7.8,20.89,20.89,0,0,0,4.25,6.51,20.43,20.43,0,0,0,6.44,4.47A19.74,19.74,0,0,0-301-23.45a21,21,0,0,0,7.72-1.36,19.38,19.38,0,0,0,6.83-4.52,2.56,2.56,0,0,1,1.75-.73,2.37,2.37,0,0,1,1.72.65,2.26,2.26,0,0,1,.72,1.75,2.39,2.39,0,0,1-.68,1.72,24.53,24.53,0,0,1-8.47,5.63A26.09,26.09,0,0,1-301-18.49a24.59,24.59,0,0,1-6.71-.92,25.92,25.92,0,0,1-6-2.55,25.16,25.16,0,0,1-5.11-4,25.23,25.23,0,0,1-3.94-5.15,26.16,26.16,0,0,1-2.54-6.06,25.51,25.51,0,0,1-.89-6.75,24.66,24.66,0,0,1,.86-6.51,25.75,25.75,0,0,1,2.43-6,26.8,26.8,0,0,1,3.84-5.19A24.84,24.84,0,0,1-314-65.68a24.93,24.93,0,0,1,6.13-2.67,24.87,24.87,0,0,1,7-1,25.1,25.1,0,0,1,9.57,1.91,25.42,25.42,0,0,1,8.41,5.66A2.35,2.35,0,0,1-282.18-60Z" transform="translate(454 84.9)"/><path class="cls-2" d="M-273.17-19a2.29,2.29,0,0,1-1.64-.8,2.55,2.55,0,0,1-.63-1.74V-66.46a2.33,2.33,0,0,1,.74-1.78,2.6,2.6,0,0,1,1.8-.68h22.27a2.31,2.31,0,0,1,1.71.7,2.38,2.38,0,0,1,.71,1.76,2.39,2.39,0,0,1-.71,1.73,2.29,2.29,0,0,1-1.71.72h-19.89v17.67h14.66a2.26,2.26,0,0,1,1.76.68,2.45,2.45,0,0,1,.7,1.74,2.31,2.31,0,0,1-.7,1.7,2.45,2.45,0,0,1-1.76.68h-14.66v17.66h19.89a2.32,2.32,0,0,1,1.71.71,2.32,2.32,0,0,1,.71,1.71,2.44,2.44,0,0,1-.71,1.78,2.15,2.15,0,0,1-1.71.68Zm12.59-54.72a2.48,2.48,0,0,1-1.81.78,2.16,2.16,0,0,1-1.7-.74,2.34,2.34,0,0,1-.76-1.71,2.41,2.41,0,0,1,.76-1.8l6.4-6.47a2.37,2.37,0,0,1,1.75-.74,2.47,2.47,0,0,1,1.76.7,2.41,2.41,0,0,1,.78,1.75,2.37,2.37,0,0,1-.74,1.72Z" transform="translate(454 84.9)"/><path class="cls-2" d="M-230.09-68.92a25.63,25.63,0,0,1,6.76.88,25,25,0,0,1,6.05,2.49,26.65,26.65,0,0,1,5.15,3.88,23.78,23.78,0,0,1,4,5,25.29,25.29,0,0,1,2.55,6,24.52,24.52,0,0,1,.92,6.73,24,24,0,0,1-2,9.81,25.06,25.06,0,0,1-5.45,7.91,25.12,25.12,0,0,1-8.07,5.29A25.6,25.6,0,0,1-230.09-19h-8.38a2.39,2.39,0,0,1-1.73-.7,2.31,2.31,0,0,1-.72-1.72V-66.5a2.31,2.31,0,0,1,.72-1.74,2.45,2.45,0,0,1,1.73-.68ZM-230-64h-6v40.1h6a20.76,20.76,0,0,0,8-1.53,20.13,20.13,0,0,0,6.5-4.21A20,20,0,0,0-211.2-36a19.65,19.65,0,0,0,1.59-7.94,19.65,19.65,0,0,0-1.59-7.89,20.2,20.2,0,0,0-4.35-6.36A20.53,20.53,0,0,0-222-62.44,20.15,20.15,0,0,0-230-64Z" transform="translate(454 84.9)"/><path class="cls-2" d="M-195-19a2.31,2.31,0,0,1-1.64-.8,2.54,2.54,0,0,1-.62-1.74V-66.46a2.3,2.3,0,0,1,.74-1.78,2.56,2.56,0,0,1,1.79-.68h22.27a2.33,2.33,0,0,1,1.72.7,2.37,2.37,0,0,1,.7,1.76,2.39,2.39,0,0,1-.7,1.73,2.31,2.31,0,0,1-1.72.72h-19.89v17.67h14.66a2.25,2.25,0,0,1,1.76.68,2.41,2.41,0,0,1,.7,1.74,2.27,2.27,0,0,1-.7,1.7,2.44,2.44,0,0,1-1.76.68h-14.66v17.66h19.89a2.34,2.34,0,0,1,1.72.71,2.31,2.31,0,0,1,.7,1.71,2.44,2.44,0,0,1-.7,1.78,2.17,2.17,0,0,1-1.72.68Z" transform="translate(454 84.9)"/><path class="cls-2" d="M-126.81-19h-37a1.93,1.93,0,0,1-1.4-.58,2.41,2.41,0,0,1-.88-1.68,2.32,2.32,0,0,1,.6-1.83L-132.31-64h-30.34a2.31,2.31,0,0,1-1.72-.72,2.43,2.43,0,0,1-.7-1.73,2.35,2.35,0,0,1,.74-1.74,2.45,2.45,0,0,1,1.76-.72h35.41a2.72,2.72,0,0,1,1.64.66,2.3,2.3,0,0,1,.84,1.66,2.46,2.46,0,0,1-.61,1.77l-33.27,40.92h31.75a2.31,2.31,0,0,1,1.72.72,2.43,2.43,0,0,1,.7,1.73,2.43,2.43,0,0,1-.7,1.74A2.31,2.31,0,0,1-126.81-19Z" transform="translate(454 84.9)"/><path class="cls-2" d="M-71.24-34.6H-93.66l-6,14.12A2.39,2.39,0,0,1-101-19.14a2.46,2.46,0,0,1-2-.06,2.14,2.14,0,0,1-1.27-1.36,2.49,2.49,0,0,1,.14-1.87l19.46-45a2.29,2.29,0,0,1,2.26-1.48,2.33,2.33,0,0,1,1.32.39,2.43,2.43,0,0,1,.9,1.09l19.35,45a2.6,2.6,0,0,1,.13,1.89,2.12,2.12,0,0,1-1.23,1.34,2.35,2.35,0,0,1-1.91.06,2.39,2.39,0,0,1-1.4-1.3Zm-20.35-4.91H-73.3l-9.17-21.57Z" transform="translate(454 84.9)"/><path class="cls-2" d="M-25.84-66.54a2.31,2.31,0,0,1,.72-1.72,2.43,2.43,0,0,1,1.74-.7,2.41,2.41,0,0,1,1.75.7,2.33,2.33,0,0,1,.7,1.72V-36a17.88,17.88,0,0,1-1.3,6.82,17.11,17.11,0,0,1-3.63,5.56,17.34,17.34,0,0,1-5.5,3.74,17.13,17.13,0,0,1-7,1.39,17.78,17.78,0,0,1-7.08-1.39A17.91,17.91,0,0,1-51-23.66a17.15,17.15,0,0,1-3.77-5.56A17.2,17.2,0,0,1-56.18-36V-66.38a2.35,2.35,0,0,1,.72-1.76,2.39,2.39,0,0,1,1.73-.7,2.39,2.39,0,0,1,1.74.7,2.35,2.35,0,0,1,.72,1.75v30.2a12.49,12.49,0,0,0,1,5,12.37,12.37,0,0,0,2.73,4.05,12.65,12.65,0,0,0,4.09,2.71,13,13,0,0,0,5.09,1,12.45,12.45,0,0,0,5-1,12.36,12.36,0,0,0,3.94-2.69,12.13,12.13,0,0,0,2.59-4,13.24,13.24,0,0,0,1-4.89Z" transform="translate(454 84.9)"/><path class="cls-2" d="M10.43-40.49v19.07a2.31,2.31,0,0,1-.72,1.72A2.41,2.41,0,0,1,8-19a2.41,2.41,0,0,1-1.74-.7,2.31,2.31,0,0,1-.72-1.72V-66.5a2.31,2.31,0,0,1,.72-1.74A2.47,2.47,0,0,1,8-68.92h13.1a15.2,15.2,0,0,1,5.78,1.09,14.78,14.78,0,0,1,4.68,3,14.31,14.31,0,0,1,3.14,4.53,14,14,0,0,1,1.15,5.65A13.87,13.87,0,0,1,34.67-49a14,14,0,0,1-3.14,4.48,14.54,14.54,0,0,1-4.68,3,15.59,15.59,0,0,1-5.78,1.07Zm0-23.59V-45.4H21.11a10,10,0,0,0,3.9-.76,9.8,9.8,0,0,0,3.1-2.05,9.44,9.44,0,0,0,2.05-3,8.75,8.75,0,0,0,.74-3.57,8.86,8.86,0,0,0-.76-3.69,9.29,9.29,0,0,0-2.06-2.94,9.81,9.81,0,0,0-3.12-2A10.55,10.55,0,0,0,21-64.08Z" transform="translate(454 84.9)"/><path class="cls-2" d="M65.61-34.6H43.19l-6,14.12a2.39,2.39,0,0,1-1.36,1.34,2.46,2.46,0,0,1-2-.06,2.14,2.14,0,0,1-1.27-1.36,2.49,2.49,0,0,1,.14-1.87l19.46-45a2.29,2.29,0,0,1,2.26-1.48,2.33,2.33,0,0,1,1.32.39,2.49,2.49,0,0,1,.9,1.09l19.35,45a2.6,2.6,0,0,1,.13,1.89A2.12,2.12,0,0,1,75-19.2a2.35,2.35,0,0,1-1.91.06,2.39,2.39,0,0,1-1.4-1.3ZM45.26-39.51H63.55L54.38-61.08Z" transform="translate(454 84.9)"/><path class="cls-2" d="M87.14-21.42a2.31,2.31,0,0,1-.72,1.72,2.39,2.39,0,0,1-1.74.7A2.39,2.39,0,0,1,83-19.7a2.31,2.31,0,0,1-.72-1.72V-66.5A2.31,2.31,0,0,1,83-68.24a2.45,2.45,0,0,1,1.73-.68,2.46,2.46,0,0,1,1.74.68,2.31,2.31,0,0,1,.72,1.74Z" transform="translate(454 84.9)"/><path class="cls-2" d="M99.54-19a2.29,2.29,0,0,1-1.63-.8,2.55,2.55,0,0,1-.63-1.74V-66.46A2.33,2.33,0,0,1,98-68.24a2.58,2.58,0,0,1,1.8-.68h22.26a2.33,2.33,0,0,1,1.72.7,2.37,2.37,0,0,1,.7,1.76,2.39,2.39,0,0,1-.7,1.73,2.31,2.31,0,0,1-1.72.72H102.2v17.67h14.66a2.23,2.23,0,0,1,1.75.68,2.42,2.42,0,0,1,.71,1.74,2.28,2.28,0,0,1-.71,1.7,2.41,2.41,0,0,1-1.75.68H102.2v17.66h19.88a2.34,2.34,0,0,1,1.72.71,2.31,2.31,0,0,1,.7,1.71,2.44,2.44,0,0,1-.7,1.78,2.17,2.17,0,0,1-1.72.68Z" transform="translate(454 84.9)"/><path class="cls-2" d="M136.94-57.1l-4.76,35.88a2.35,2.35,0,0,1-1,1.6,2.46,2.46,0,0,1-1.81.46,2.57,2.57,0,0,1-1.62-1,2.2,2.2,0,0,1-.45-1.79l5.93-44.62A2.15,2.15,0,0,1,134-68a3.15,3.15,0,0,1,.86-.59,2.37,2.37,0,0,1,1.85,0,2.4,2.4,0,0,1,1.38,1.31l16.11,39.54,16.11-39.54a2.41,2.41,0,0,1,1.28-1.29,2.36,2.36,0,0,1,1.88,0l.43.24a2.66,2.66,0,0,1,.77.76,2.22,2.22,0,0,1,.39,1l5.66,44.69a2.32,2.32,0,0,1-.51,1.8,2.31,2.31,0,0,1-1.64.89,2.43,2.43,0,0,1-1.81-.48,2.32,2.32,0,0,1-.92-1.62l-4.52-35.65L156.44-20.4a2.48,2.48,0,0,1-1,1.17,2.26,2.26,0,0,1-1.41.31,2.44,2.44,0,0,1-1.22-.41,2.46,2.46,0,0,1-.88-1.07Z" transform="translate(454 84.9)"/><path class="cls-2" d="M188.81-19a2.33,2.33,0,0,1-1.64-.8,2.59,2.59,0,0,1-.62-1.74V-66.46a2.33,2.33,0,0,1,.74-1.78,2.58,2.58,0,0,1,1.8-.68h22.26a2.33,2.33,0,0,1,1.72.7,2.37,2.37,0,0,1,.7,1.76,2.39,2.39,0,0,1-.7,1.73,2.31,2.31,0,0,1-1.72.72H191.46v17.67h14.67a2.23,2.23,0,0,1,1.75.68,2.42,2.42,0,0,1,.71,1.74,2.28,2.28,0,0,1-.71,1.7,2.41,2.41,0,0,1-1.75.68H191.46v17.66h19.89a2.34,2.34,0,0,1,1.72.71,2.31,2.31,0,0,1,.7,1.71,2.44,2.44,0,0,1-.7,1.78,2.17,2.17,0,0,1-1.72.68Z" transform="translate(454 84.9)"/><path class="cls-2" d="M224.5-68.61h.07a.34.34,0,0,0,.12.12h0l.08,0a.12.12,0,0,1,.08,0,.19.19,0,0,1,.15.08,2,2,0,0,1,.67.81l27.18,38.69V-66.46a2.37,2.37,0,0,1,.72-1.74,2.41,2.41,0,0,1,1.77-.72,2.29,2.29,0,0,1,1.74.72,2.46,2.46,0,0,1,.68,1.74v45a2.35,2.35,0,0,1-.56,1.56,2.4,2.4,0,0,1-1.43.82,1.84,1.84,0,0,1-.47,0,2.52,2.52,0,0,1-1.83-.74l-.15-.23-.12-.12L226-59v37.63a2.31,2.31,0,0,1-.72,1.72,2.39,2.39,0,0,1-1.74.7,2.37,2.37,0,0,1-1.73-.7,2.28,2.28,0,0,1-.73-1.72v-45a2.28,2.28,0,0,1,.73-1.72,2.37,2.37,0,0,1,1.73-.7h.2a3.74,3.74,0,0,1,.74.23Z" transform="translate(454 84.9)"/><path class="cls-2" d="M281.24-64v42.58a2.39,2.39,0,0,1-.7,1.74,2.35,2.35,0,0,1-1.76.72,2.17,2.17,0,0,1-1.67-.72,2.49,2.49,0,0,1-.67-1.74V-64H264.32a2.32,2.32,0,0,1-1.72-.73,2.39,2.39,0,0,1-.7-1.73,2.33,2.33,0,0,1,.7-1.72,2.33,2.33,0,0,1,1.72-.7h29.4a2.31,2.31,0,0,1,1.72.72,2.39,2.39,0,0,1,.7,1.74,2.29,2.29,0,0,1-.7,1.73,2.36,2.36,0,0,1-1.72.69Z" transform="translate(454 84.9)"/></g></g><rect id="Rectangle_93" data-name="Rectangle 93" class="cls-3" y="78.9" width="8.56" height="314.74"/><rect id="Rectangle_94" data-name="Rectangle 94" class="cls-4" x="882.45" y="451.59" width="8.56" height="25.53"/><rect id="Rectangle_95" data-name="Rectangle 95" class="cls-5" y="402.4" width="8.56" height="49.19"/></svg>