<svg id="Calque_1" data-name="Calque 1" xmlns="http://www.w3.org/2000/svg" viewBox="0 0 364.95 385.62"><defs><style>.cls-1{isolation:isolate;}.cls-2{fill:none;stroke:#000;}.cls-3{fill:#ef3924;}.cls-4{fill:#367c6e;}.cls-5{fill:#fcb316;}</style></defs><title>registration_frame</title><path d="M522.42,390.68h-3.27V236.59H477v-3.26h43.77a1.64,1.64,0,0,1,1.64,1.63Z" transform="translate(-157.58 -206.25)"/><path d="M277.21,591.87h-118a1.63,1.63,0,0,1-1.64-1.63V434.52h3.27V588.61H277.21Z" transform="translate(-157.58 -206.25)"/><g id="CRÉEZ_VOTRE_COMPTE_" data-name="CRÉEZ VOTRE COMPTE " class="cls-1"><g class="cls-1"><path d="M175.78,235.21a13.08,13.08,0,0,1-6.15,1.31,9.91,9.91,0,0,1-7.61-3.06,11.28,11.28,0,0,1-2.86-8,11.87,11.87,0,0,1,3.21-8.64,10.94,10.94,0,0,1,8.16-3.29,13.1,13.1,0,0,1,5.25.92v2.78a10.68,10.68,0,0,0-5.28-1.34,8.13,8.13,0,0,0-6.22,2.56,9.67,9.67,0,0,0-2.39,6.85,9.22,9.22,0,0,0,2.23,6.49,7.6,7.6,0,0,0,5.85,2.41,11,11,0,0,0,5.81-1.49Z" transform="translate(-157.58 -206.25)"/><path d="M196.28,236.14h-3.11l-3.73-6.24a13.53,13.53,0,0,0-1-1.48,5.52,5.52,0,0,0-1-1,3.41,3.41,0,0,0-1.08-.57,4.48,4.48,0,0,0-1.32-.18h-2.14v9.47h-2.61V213.87H187a9.56,9.56,0,0,1,2.69.37,5.94,5.94,0,0,1,2.15,1.11,5.25,5.25,0,0,1,1.42,1.86,6.15,6.15,0,0,1,.51,2.6,6.34,6.34,0,0,1-.35,2.13,5.58,5.58,0,0,1-1,1.73,6,6,0,0,1-1.56,1.3,7.79,7.79,0,0,1-2,.83v.06a5,5,0,0,1,1,.57,5,5,0,0,1,.79.75,10.61,10.61,0,0,1,.73,1c.25.37.52.79.82,1.28Zm-13.36-19.91v8.08h3.54a5.54,5.54,0,0,0,1.81-.29,4.32,4.32,0,0,0,1.44-.85,3.82,3.82,0,0,0,.94-1.35A4.51,4.51,0,0,0,191,220a3.47,3.47,0,0,0-1.16-2.78,5,5,0,0,0-3.35-1Z" transform="translate(-157.58 -206.25)"/><path d="M211.14,236.14H199.33V213.87h11.31v2.36h-8.7v7.41H210V226h-8.05v7.79h9.2Zm-2.25-29.39-4.07,5.09h-2l3.47-5.09Z" transform="translate(-157.58 -206.25)"/><path d="M227.23,236.14H215.42V213.87h11.31v2.36H218v7.41h8.05V226H218v7.79h9.2Z" transform="translate(-157.58 -206.25)"/><path d="M246.05,214.5,233,233.78h12.74v2.36H229.11v-.73L242,216.23H230.15v-2.36h15.9Z" transform="translate(-157.58 -206.25)"/><path d="M274.92,213.87l-8.25,22.27H263.8l-8.08-22.27h2.91l6.16,17.66a10.05,10.05,0,0,1,.45,2h.07a9.34,9.34,0,0,1,.51-2l6.29-17.63Z" transform="translate(-157.58 -206.25)"/><path d="M286.32,236.52a9.78,9.78,0,0,1-7.59-3.12,11.6,11.6,0,0,1-2.85-8.13,12.24,12.24,0,0,1,2.91-8.57,10.14,10.14,0,0,1,7.9-3.2,9.57,9.57,0,0,1,7.43,3.11,11.62,11.62,0,0,1,2.82,8.12c0,3.63-1,6.51-2.89,8.62A10,10,0,0,1,286.32,236.52Zm.18-20.66a7.2,7.2,0,0,0-5.7,2.53,11.25,11.25,0,0,0-.05,13.27,6.94,6.94,0,0,0,5.57,2.51,7.3,7.3,0,0,0,5.77-2.39,9.76,9.76,0,0,0,2.12-6.69,10.25,10.25,0,0,0-2-6.82A7,7,0,0,0,286.5,215.86Z" transform="translate(-157.58 -206.25)"/><path d="M313.06,216.23h-6.43v19.91H304V216.23h-6.41v-2.36h15.45Z" transform="translate(-157.58 -206.25)"/><path d="M332.52,236.14h-3.11l-3.72-6.24a15.07,15.07,0,0,0-1-1.48,5.83,5.83,0,0,0-1-1,3.45,3.45,0,0,0-1.09-.57,4.46,4.46,0,0,0-1.31-.18h-2.15v9.47h-2.61V213.87h6.65a9.56,9.56,0,0,1,2.69.37,5.94,5.94,0,0,1,2.15,1.11,5.25,5.25,0,0,1,1.42,1.86,6.15,6.15,0,0,1,.51,2.6,6.34,6.34,0,0,1-.35,2.13,5.38,5.38,0,0,1-1,1.73,6.13,6.13,0,0,1-1.55,1.3,8,8,0,0,1-2.05.83v.06a4.68,4.68,0,0,1,1,.57,5,5,0,0,1,.79.75,10.62,10.62,0,0,1,.74,1c.24.37.51.79.81,1.28Zm-13.36-19.91v8.08h3.54a5.5,5.5,0,0,0,1.81-.29,4.23,4.23,0,0,0,1.44-.85,4,4,0,0,0,.95-1.35,4.69,4.69,0,0,0,.34-1.8,3.47,3.47,0,0,0-1.16-2.78,5,5,0,0,0-3.35-1Z" transform="translate(-157.58 -206.25)"/><path d="M347.38,236.14h-11.8V213.87h11.3v2.36h-8.69v7.41h8V226h-8v7.79h9.19Z" transform="translate(-157.58 -206.25)"/><path d="M375.54,235.21a13.08,13.08,0,0,1-6.15,1.31,9.91,9.91,0,0,1-7.61-3.06,11.28,11.28,0,0,1-2.86-8,11.87,11.87,0,0,1,3.21-8.64,10.94,10.94,0,0,1,8.16-3.29,13.1,13.1,0,0,1,5.25.92v2.78a10.68,10.68,0,0,0-5.28-1.34,8.13,8.13,0,0,0-6.22,2.56,9.67,9.67,0,0,0-2.39,6.85,9.22,9.22,0,0,0,2.23,6.49,7.6,7.6,0,0,0,5.85,2.41,11,11,0,0,0,5.81-1.49Z" transform="translate(-157.58 -206.25)"/><path d="M388.19,236.52a9.76,9.76,0,0,1-7.58-3.12,11.6,11.6,0,0,1-2.85-8.13,12.24,12.24,0,0,1,2.9-8.57,10.16,10.16,0,0,1,7.91-3.2,9.57,9.57,0,0,1,7.43,3.11,11.61,11.61,0,0,1,2.81,8.12c0,3.63-1,6.51-2.88,8.62A10,10,0,0,1,388.19,236.52Zm.19-20.66a7.2,7.2,0,0,0-5.7,2.53,11.25,11.25,0,0,0-.05,13.27,6.92,6.92,0,0,0,5.56,2.51,7.32,7.32,0,0,0,5.78-2.39,9.76,9.76,0,0,0,2.11-6.69c0-2.94-.68-5.22-2.05-6.82A7,7,0,0,0,388.38,215.86Z" transform="translate(-157.58 -206.25)"/><path d="M425.9,236.14h-2.59V221.2c0-1.18.07-2.62.21-4.33h-.06a13.28,13.28,0,0,1-.67,2.16l-7.61,17.11h-1.27l-7.59-17a12.87,12.87,0,0,1-.67-2.28h-.06c.08.89.12,2.35.12,4.37v14.9h-2.52V213.87h3.45l6.83,15.53a20.45,20.45,0,0,1,1,2.68h.09c.45-1.23.81-2.14,1.08-2.74l7-15.47h3.26Z" transform="translate(-157.58 -206.25)"/><path d="M434.36,227.73v8.41h-2.61V213.87h6.12a8.09,8.09,0,0,1,5.54,1.74,6.22,6.22,0,0,1,2,4.91,6.74,6.74,0,0,1-2.18,5.19,8.35,8.35,0,0,1-5.89,2Zm0-11.5v9.14h2.74a6.07,6.07,0,0,0,4.12-1.24,4.35,4.35,0,0,0,1.42-3.48c0-2.94-1.74-4.42-5.22-4.42Z" transform="translate(-157.58 -206.25)"/><path d="M462.74,216.23h-6.43v19.91H453.7V216.23h-6.42v-2.36h15.46Z" transform="translate(-157.58 -206.25)"/><path d="M478,236.14h-11.8V213.87h11.31v2.36h-8.7v7.41h8V226h-8v7.79H478Z" transform="translate(-157.58 -206.25)"/></g><g class="cls-1"><path class="cls-2" d="M175.78,235.21a13.08,13.08,0,0,1-6.15,1.31,9.91,9.91,0,0,1-7.61-3.06,11.28,11.28,0,0,1-2.86-8,11.87,11.87,0,0,1,3.21-8.64,10.94,10.94,0,0,1,8.16-3.29,13.1,13.1,0,0,1,5.25.92v2.78a10.68,10.68,0,0,0-5.28-1.34,8.13,8.13,0,0,0-6.22,2.56,9.67,9.67,0,0,0-2.39,6.85,9.22,9.22,0,0,0,2.23,6.49,7.6,7.6,0,0,0,5.85,2.41,11,11,0,0,0,5.81-1.49Z" transform="translate(-157.58 -206.25)"/><path class="cls-2" d="M196.28,236.14h-3.11l-3.73-6.24a13.53,13.53,0,0,0-1-1.48,5.52,5.52,0,0,0-1-1,3.41,3.41,0,0,0-1.08-.57,4.48,4.48,0,0,0-1.32-.18h-2.14v9.47h-2.61V213.87H187a9.56,9.56,0,0,1,2.69.37,5.94,5.94,0,0,1,2.15,1.11,5.25,5.25,0,0,1,1.42,1.86,6.15,6.15,0,0,1,.51,2.6,6.34,6.34,0,0,1-.35,2.13,5.58,5.58,0,0,1-1,1.73,6,6,0,0,1-1.56,1.3,7.79,7.79,0,0,1-2,.83v.06a5,5,0,0,1,1,.57,5,5,0,0,1,.79.75,10.61,10.61,0,0,1,.73,1c.25.37.52.79.82,1.28Zm-13.36-19.91v8.08h3.54a5.54,5.54,0,0,0,1.81-.29,4.32,4.32,0,0,0,1.44-.85,3.82,3.82,0,0,0,.94-1.35A4.51,4.51,0,0,0,191,220a3.47,3.47,0,0,0-1.16-2.78,5,5,0,0,0-3.35-1Z" transform="translate(-157.58 -206.25)"/><path class="cls-2" d="M211.14,236.14H199.33V213.87h11.31v2.36h-8.7v7.41H210V226h-8.05v7.79h9.2Zm-2.25-29.39-4.07,5.09h-2l3.47-5.09Z" transform="translate(-157.58 -206.25)"/><path class="cls-2" d="M227.23,236.14H215.42V213.87h11.31v2.36H218v7.41h8.05V226H218v7.79h9.2Z" transform="translate(-157.58 -206.25)"/><path class="cls-2" d="M246.05,214.5,233,233.78h12.74v2.36H229.11v-.73L242,216.23H230.15v-2.36h15.9Z" transform="translate(-157.58 -206.25)"/><path class="cls-2" d="M274.92,213.87l-8.25,22.27H263.8l-8.08-22.27h2.91l6.16,17.66a10.05,10.05,0,0,1,.45,2h.07a9.34,9.34,0,0,1,.51-2l6.29-17.63Z" transform="translate(-157.58 -206.25)"/><path class="cls-2" d="M286.32,236.52a9.78,9.78,0,0,1-7.59-3.12,11.6,11.6,0,0,1-2.85-8.13,12.24,12.24,0,0,1,2.91-8.57,10.14,10.14,0,0,1,7.9-3.2,9.57,9.57,0,0,1,7.43,3.11,11.62,11.62,0,0,1,2.82,8.12c0,3.63-1,6.51-2.89,8.62A10,10,0,0,1,286.32,236.52Zm.18-20.66a7.2,7.2,0,0,0-5.7,2.53,11.25,11.25,0,0,0-.05,13.27,6.94,6.94,0,0,0,5.57,2.51,7.3,7.3,0,0,0,5.77-2.39,9.76,9.76,0,0,0,2.12-6.69,10.25,10.25,0,0,0-2-6.82A7,7,0,0,0,286.5,215.86Z" transform="translate(-157.58 -206.25)"/><path class="cls-2" d="M313.06,216.23h-6.43v19.91H304V216.23h-6.41v-2.36h15.45Z" transform="translate(-157.58 -206.25)"/><path class="cls-2" d="M332.52,236.14h-3.11l-3.72-6.24a15.07,15.07,0,0,0-1-1.48,5.83,5.83,0,0,0-1-1,3.45,3.45,0,0,0-1.09-.57,4.46,4.46,0,0,0-1.31-.18h-2.15v9.47h-2.61V213.87h6.65a9.56,9.56,0,0,1,2.69.37,5.94,5.94,0,0,1,2.15,1.11,5.25,5.25,0,0,1,1.42,1.86,6.15,6.15,0,0,1,.51,2.6,6.34,6.34,0,0,1-.35,2.13,5.38,5.38,0,0,1-1,1.73,6.13,6.13,0,0,1-1.55,1.3,8,8,0,0,1-2.05.83v.06a4.68,4.68,0,0,1,1,.57,5,5,0,0,1,.79.75,10.62,10.62,0,0,1,.74,1c.24.37.51.79.81,1.28Zm-13.36-19.91v8.08h3.54a5.5,5.5,0,0,0,1.81-.29,4.23,4.23,0,0,0,1.44-.85,4,4,0,0,0,.95-1.35,4.69,4.69,0,0,0,.34-1.8,3.47,3.47,0,0,0-1.16-2.78,5,5,0,0,0-3.35-1Z" transform="translate(-157.58 -206.25)"/><path class="cls-2" d="M347.38,236.14h-11.8V213.87h11.3v2.36h-8.69v7.41h8V226h-8v7.79h9.19Z" transform="translate(-157.58 -206.25)"/><path class="cls-2" d="M375.54,235.21a13.08,13.08,0,0,1-6.15,1.31,9.91,9.91,0,0,1-7.61-3.06,11.28,11.28,0,0,1-2.86-8,11.87,11.87,0,0,1,3.21-8.64,10.94,10.94,0,0,1,8.16-3.29,13.1,13.1,0,0,1,5.25.92v2.78a10.68,10.68,0,0,0-5.28-1.34,8.13,8.13,0,0,0-6.22,2.56,9.67,9.67,0,0,0-2.39,6.85,9.22,9.22,0,0,0,2.23,6.49,7.6,7.6,0,0,0,5.85,2.41,11,11,0,0,0,5.81-1.49Z" transform="translate(-157.58 -206.25)"/><path class="cls-2" d="M388.19,236.52a9.76,9.76,0,0,1-7.58-3.12,11.6,11.6,0,0,1-2.85-8.13,12.24,12.24,0,0,1,2.9-8.57,10.16,10.16,0,0,1,7.91-3.2,9.57,9.57,0,0,1,7.43,3.11,11.61,11.61,0,0,1,2.81,8.12c0,3.63-1,6.51-2.88,8.62A10,10,0,0,1,388.19,236.52Zm.19-20.66a7.2,7.2,0,0,0-5.7,2.53,11.25,11.25,0,0,0-.05,13.27,6.92,6.92,0,0,0,5.56,2.51,7.32,7.32,0,0,0,5.78-2.39,9.76,9.76,0,0,0,2.11-6.69c0-2.94-.68-5.22-2.05-6.82A7,7,0,0,0,388.38,215.86Z" transform="translate(-157.58 -206.25)"/><path class="cls-2" d="M425.9,236.14h-2.59V221.2c0-1.18.07-2.62.21-4.33h-.06a13.28,13.28,0,0,1-.67,2.16l-7.61,17.11h-1.27l-7.59-17a12.87,12.87,0,0,1-.67-2.28h-.06c.08.89.12,2.35.12,4.37v14.9h-2.52V213.87h3.45l6.83,15.53a20.45,20.45,0,0,1,1,2.68h.09c.45-1.23.81-2.14,1.08-2.74l7-15.47h3.26Z" transform="translate(-157.58 -206.25)"/><path class="cls-2" d="M434.36,227.73v8.41h-2.61V213.87h6.12a8.09,8.09,0,0,1,5.54,1.74,6.22,6.22,0,0,1,2,4.91,6.74,6.74,0,0,1-2.18,5.19,8.35,8.35,0,0,1-5.89,2Zm0-11.5v9.14h2.74a6.07,6.07,0,0,0,4.12-1.24,4.35,4.35,0,0,0,1.42-3.48c0-2.94-1.74-4.42-5.22-4.42Z" transform="translate(-157.58 -206.25)"/><path class="cls-2" d="M462.74,216.23h-6.43v19.91H453.7V216.23h-6.42v-2.36h15.46Z" transform="translate(-157.58 -206.25)"/><path class="cls-2" d="M478,236.14h-11.8V213.87h11.31v2.36h-8.7v7.41h8V226h-8v7.79H478Z" transform="translate(-157.58 -206.25)"/></g></g><rect id="Rectangle_93" data-name="Rectangle 93" class="cls-3" x="1.63" y="35.2" width="3.49" height="128.34"/><rect id="Rectangle_94" data-name="Rectangle 94" class="cls-4" x="361.46" y="356.25" width="3.49" height="10.41"/><rect id="Rectangle_95" data-name="Rectangle 95" class="cls-5" x="1.63" y="167.11" width="3.49" height="20.06"/><rect x="361.57" y="284.49" width="3.26" height="60.37"/></svg>