<svg id="Calque_1" data-name="Calque 1" xmlns="http://www.w3.org/2000/svg" viewBox="0 0 895.01 938.3"><defs><style>.cls-1{isolation:isolate;}.cls-2{fill:#ef3924;}.cls-3{fill:#367c6e;}.cls-4{fill:#fcb316;}</style></defs><title>registration_frame</title><path d="M607.72,385.83h-8V7.93H496.38v-8H603.72a4,4,0,0,1,4,4Z" transform="translate(287 47.9)"/><path d="M6.37,890.4H-283a4,4,0,0,1-4-4V504.5h8V882.4H6.37Z" transform="translate(287 47.9)"/><g id="CRÉEZ_VOTRE_COMPTE_" data-name="CRÉEZ VOTRE COMPTE " class="cls-1"><g class="cls-1"><path d="M-241-23a2.44,2.44,0,0,1-.71,1.72,2.52,2.52,0,0,1-1.77.72,2.18,2.18,0,0,1-1.7-.68A20.92,20.92,0,0,0-252-25.84a20.55,20.55,0,0,0-7.76-1.52,20,20,0,0,0-7.94,1.6,20.5,20.5,0,0,0-6.49,4.37,20.59,20.59,0,0,0-4.37,6.51,20.09,20.09,0,0,0-1.6,8,20.06,20.06,0,0,0,1.54,7.8,20.72,20.72,0,0,0,4.25,6.51,20.43,20.43,0,0,0,6.44,4.47,19.74,19.74,0,0,0,8.09,1.65,20.84,20.84,0,0,0,7.72-1.36,19.38,19.38,0,0,0,6.83-4.52,2.55,2.55,0,0,1,1.75-.73,2.37,2.37,0,0,1,1.72.65,2.26,2.26,0,0,1,.72,1.75,2.39,2.39,0,0,1-.68,1.72,24.53,24.53,0,0,1-8.47,5.63,26.09,26.09,0,0,1-9.59,1.82,24.54,24.54,0,0,1-6.71-.92,25.92,25.92,0,0,1-6-2.55,24.54,24.54,0,0,1-5.11-4,25.23,25.23,0,0,1-3.94-5.15,26.16,26.16,0,0,1-2.54-6.06A25.1,25.1,0,0,1-285-6.88a25.07,25.07,0,0,1,.85-6.51,26.21,26.21,0,0,1,2.44-6,26,26,0,0,1,3.84-5.19,24.84,24.84,0,0,1,5.09-4.09,24.93,24.93,0,0,1,6.13-2.67,24.87,24.87,0,0,1,7-1,25.1,25.1,0,0,1,9.57,1.91,25.42,25.42,0,0,1,8.41,5.66A2.35,2.35,0,0,1-241-23Z" transform="translate(287 47.9)"/><path d="M-203.92-17.65a14.1,14.1,0,0,1-.88,5,13.92,13.92,0,0,1-2.44,4.13,14.46,14.46,0,0,1-3.7,3.06,14.59,14.59,0,0,1-4.69,1.72l11.32,18.09a2.39,2.39,0,0,1,.19,2,2.36,2.36,0,0,1-1.29,1.41,2.26,2.26,0,0,1-1.81.17,2.45,2.45,0,0,1-1.42-1.15L-221.08-3.49h-8.23V15.58A2.28,2.28,0,0,1-230,17.3a2.39,2.39,0,0,1-1.73.7,2.39,2.39,0,0,1-1.74-.7,2.31,2.31,0,0,1-.72-1.72V-29.5a2.31,2.31,0,0,1,.72-1.74,2.46,2.46,0,0,1,1.74-.68h13.1a15.12,15.12,0,0,1,5.77,1.09,14.72,14.72,0,0,1,4.69,3,14.13,14.13,0,0,1,3.13,4.53A13.83,13.83,0,0,1-203.92-17.65Zm-25.39-9.43V-8.4h10.68a10,10,0,0,0,3.9-.76,9.8,9.8,0,0,0,3.1-2.05,9.44,9.44,0,0,0,2-3,8.92,8.92,0,0,0,.74-3.57,8.86,8.86,0,0,0-.76-3.69,9.31,9.31,0,0,0-2.07-2.94,9.59,9.59,0,0,0-3.12-2,10.51,10.51,0,0,0-3.92-.72Z" transform="translate(287 47.9)"/><path d="M-193.4,18a2.29,2.29,0,0,1-1.63-.8,2.55,2.55,0,0,1-.63-1.74V-29.46a2.33,2.33,0,0,1,.74-1.78,2.6,2.6,0,0,1,1.8-.68h22.27a2.32,2.32,0,0,1,1.71.7,2.37,2.37,0,0,1,.7,1.76,2.39,2.39,0,0,1-.7,1.73,2.3,2.3,0,0,1-1.71.72h-19.89V-9.34h14.66a2.26,2.26,0,0,1,1.76.68,2.45,2.45,0,0,1,.7,1.74,2.31,2.31,0,0,1-.7,1.7,2.45,2.45,0,0,1-1.76.68h-14.66V13.13h19.89a2.32,2.32,0,0,1,1.71.7,2.31,2.31,0,0,1,.7,1.71,2.44,2.44,0,0,1-.7,1.78,2.16,2.16,0,0,1-1.71.68Zm12.6-54.72a2.48,2.48,0,0,1-1.81.78,2.16,2.16,0,0,1-1.7-.74,2.34,2.34,0,0,1-.76-1.71,2.41,2.41,0,0,1,.76-1.8l6.4-6.47a2.37,2.37,0,0,1,1.75-.74,2.47,2.47,0,0,1,1.76.7,2.41,2.41,0,0,1,.78,1.75,2.37,2.37,0,0,1-.74,1.72Z" transform="translate(287 47.9)"/><path d="M-158.88,18a2.31,2.31,0,0,1-1.64-.8,2.54,2.54,0,0,1-.62-1.74V-29.46a2.3,2.3,0,0,1,.74-1.78,2.56,2.56,0,0,1,1.79-.68h22.27a2.33,2.33,0,0,1,1.72.7,2.41,2.41,0,0,1,.7,1.76,2.43,2.43,0,0,1-.7,1.73,2.31,2.31,0,0,1-1.72.72h-19.89V-9.34h14.66a2.25,2.25,0,0,1,1.76.68,2.41,2.41,0,0,1,.7,1.74,2.27,2.27,0,0,1-.7,1.7,2.44,2.44,0,0,1-1.76.68h-14.66V13.13h19.89a2.33,2.33,0,0,1,1.72.7,2.35,2.35,0,0,1,.7,1.71,2.48,2.48,0,0,1-.7,1.78,2.17,2.17,0,0,1-1.72.68Z" transform="translate(287 47.9)"/><path d="M-90.71,18h-37a2,2,0,0,1-1.41-.58,2.44,2.44,0,0,1-.87-1.68,2.32,2.32,0,0,1,.6-1.83L-96.21-27h-30.34a2.31,2.31,0,0,1-1.72-.72,2.39,2.39,0,0,1-.7-1.73,2.35,2.35,0,0,1,.74-1.74,2.45,2.45,0,0,1,1.76-.72h35.41a2.74,2.74,0,0,1,1.64.66,2.3,2.3,0,0,1,.84,1.66,2.46,2.46,0,0,1-.61,1.77l-33.27,40.92h31.75a2.31,2.31,0,0,1,1.72.72,2.43,2.43,0,0,1,.7,1.73,2.43,2.43,0,0,1-.7,1.74A2.31,2.31,0,0,1-90.71,18Z" transform="translate(287 47.9)"/><path d="M-68-28.49a2.18,2.18,0,0,1,0-1.85,2.37,2.37,0,0,1,1.36-1.31,2.39,2.39,0,0,1,1.84,0,2.4,2.4,0,0,1,1.36,1.33L-46.37,9.46l17.08-39.82A2.5,2.5,0,0,1-28-31.67a2.33,2.33,0,0,1,1.83,0,2.48,2.48,0,0,1,1.35,1.31,2.18,2.18,0,0,1,0,1.85l-19.35,45a2.48,2.48,0,0,1-1,1.17,2.42,2.42,0,0,1-1.4.35,2.44,2.44,0,0,1-1.23-.41,2.42,2.42,0,0,1-.88-1.11Z" transform="translate(287 47.9)"/><path d="M11.25-30.28a25.56,25.56,0,0,1,8.08,5.44,25.94,25.94,0,0,1,5.46,8.05,24.4,24.4,0,0,1,2,9.87,25,25,0,0,1-.92,6.77,25.89,25.89,0,0,1-2.55,6.06,25.61,25.61,0,0,1-4,5.15,25.61,25.61,0,0,1-5.15,4,25.78,25.78,0,0,1-6.07,2.55,24.85,24.85,0,0,1-6.76.92,24.92,24.92,0,0,1-6.77-.92A25.89,25.89,0,0,1-11.46,15a24.56,24.56,0,0,1-5.11-4,25.78,25.78,0,0,1-3.94-5.15A25.45,25.45,0,0,1-23-.15a25.77,25.77,0,0,1-.89-6.77A25.51,25.51,0,0,1-23-13.67a25.47,25.47,0,0,1,2.54-6,25.38,25.38,0,0,1,3.94-5.13,25.25,25.25,0,0,1,5.11-4A24.68,24.68,0,0,1-5.4-31.37a25.31,25.31,0,0,1,6.77-.9A24.64,24.64,0,0,1,11.25-30.28ZM-6.61-25.72a20.3,20.3,0,0,0-6.47,4.37,20.93,20.93,0,0,0-4.35,6.47,19.83,19.83,0,0,0-1.6,8,20,20,0,0,0,1.6,8,20.83,20.83,0,0,0,4.35,6.5A20.47,20.47,0,0,0-6.61,12a20.21,20.21,0,0,0,8,1.59,20.08,20.08,0,0,0,8-1.59,20.71,20.71,0,0,0,6.5-4.37,20.52,20.52,0,0,0,4.36-6.5,20,20,0,0,0,1.6-8,19.83,19.83,0,0,0-1.6-8,20.61,20.61,0,0,0-4.36-6.47,20.55,20.55,0,0,0-6.5-4.37,19.91,19.91,0,0,0-8-1.6A20,20,0,0,0-6.61-25.72Z" transform="translate(287 47.9)"/><path d="M46.22-27V15.54a2.43,2.43,0,0,1-.7,1.74,2.37,2.37,0,0,1-1.76.72,2.19,2.19,0,0,1-1.68-.72,2.48,2.48,0,0,1-.66-1.74V-27H29.29a2.3,2.3,0,0,1-1.71-.73,2.39,2.39,0,0,1-.71-1.73,2.34,2.34,0,0,1,.71-1.72,2.31,2.31,0,0,1,1.71-.7H58.7a2.29,2.29,0,0,1,1.71.72,2.4,2.4,0,0,1,.71,1.74,2.3,2.3,0,0,1-.71,1.73A2.34,2.34,0,0,1,58.7-27Z" transform="translate(287 47.9)"/><path d="M97.46-17.65a14.09,14.09,0,0,1-.87,5,13.92,13.92,0,0,1-2.44,4.13,14.34,14.34,0,0,1-3.71,3.06,14.45,14.45,0,0,1-4.68,1.72L97.07,14.33A2.39,2.39,0,0,1,96,17.73a2.26,2.26,0,0,1-1.81.17,2.45,2.45,0,0,1-1.42-1.15L80.3-3.49H72.08V15.58a2.32,2.32,0,0,1-.73,1.72,2.5,2.5,0,0,1-3.47,0,2.31,2.31,0,0,1-.72-1.72V-29.5a2.31,2.31,0,0,1,.72-1.74,2.46,2.46,0,0,1,1.74-.68h13.1a15.12,15.12,0,0,1,5.77,1.09,14.56,14.56,0,0,1,4.68,3,14,14,0,0,1,3.14,4.53A13.82,13.82,0,0,1,97.46-17.65ZM72.08-27.08V-8.4H82.76a10,10,0,0,0,3.9-.76,9.8,9.8,0,0,0,3.1-2.05,9.61,9.61,0,0,0,2-3,8.92,8.92,0,0,0,.74-3.57,8.86,8.86,0,0,0-.76-3.69,9.31,9.31,0,0,0-2.07-2.94,9.59,9.59,0,0,0-3.12-2,10.51,10.51,0,0,0-3.92-.72Z" transform="translate(287 47.9)"/><path d="M108,18a2.29,2.29,0,0,1-1.63-.8,2.55,2.55,0,0,1-.63-1.74V-29.46a2.33,2.33,0,0,1,.74-1.78,2.58,2.58,0,0,1,1.8-.68h22.27a2.32,2.32,0,0,1,1.71.7,2.37,2.37,0,0,1,.7,1.76,2.39,2.39,0,0,1-.7,1.73,2.3,2.3,0,0,1-1.71.72H110.65V-9.34h14.66a2.23,2.23,0,0,1,1.75.68,2.42,2.42,0,0,1,.71,1.74,2.28,2.28,0,0,1-.71,1.7,2.41,2.41,0,0,1-1.75.68H110.65V13.13h19.89A2.39,2.39,0,0,1,133,15.54a2.44,2.44,0,0,1-.7,1.78,2.16,2.16,0,0,1-1.71.68Z" transform="translate(287 47.9)"/><path d="M198.47-23a2.43,2.43,0,0,1-.7,1.72,2.54,2.54,0,0,1-1.77.72,2.18,2.18,0,0,1-1.7-.68,21,21,0,0,0-6.83-4.57,20.47,20.47,0,0,0-7.76-1.52,20,20,0,0,0-7.93,1.6,20.55,20.55,0,0,0-6.5,4.37,20.56,20.56,0,0,0-4.36,6.51,20.09,20.09,0,0,0-1.6,8,20.06,20.06,0,0,0,1.54,7.8,20.55,20.55,0,0,0,4.25,6.51,20.38,20.38,0,0,0,6.43,4.47,19.74,19.74,0,0,0,8.09,1.65,20.89,20.89,0,0,0,7.73-1.36,19.35,19.35,0,0,0,6.82-4.52,2.57,2.57,0,0,1,1.76-.73,2.36,2.36,0,0,1,1.71.65,2.19,2.19,0,0,1,.72,1.75,2.39,2.39,0,0,1-.68,1.72,24.59,24.59,0,0,1-8.46,5.63,26.15,26.15,0,0,1-9.6,1.82,24.47,24.47,0,0,1-6.7-.92A26,26,0,0,1,166.88,15a25.08,25.08,0,0,1-5.11-4,26,26,0,0,1-3.94-5.15A26.13,26.13,0,0,1,155.3-.13a25.1,25.1,0,0,1-.9-6.75,25.08,25.08,0,0,1,.86-6.51,25.35,25.35,0,0,1,2.44-6,26,26,0,0,1,3.84-5.19,24.57,24.57,0,0,1,5.09-4.09,24.69,24.69,0,0,1,6.12-2.67,24.93,24.93,0,0,1,7-1,25.11,25.11,0,0,1,9.58,1.91,25.48,25.48,0,0,1,8.4,5.66A2.35,2.35,0,0,1,198.47-23Z" transform="translate(287 47.9)"/><path d="M237-30.28a25.52,25.52,0,0,1,8.07,5.44,25.6,25.6,0,0,1,5.46,8.05,24.4,24.4,0,0,1,2,9.87,25,25,0,0,1-.91,6.77,25.91,25.91,0,0,1-2.56,6.06,25.26,25.26,0,0,1-4,5.15A25.55,25.55,0,0,1,240,15a26.14,26.14,0,0,1-6.07,2.55,24.85,24.85,0,0,1-6.76.92,24.92,24.92,0,0,1-6.77-.92A26.14,26.14,0,0,1,214.3,15a24.5,24.5,0,0,1-5.1-4,25.78,25.78,0,0,1-3.94-5.15,25,25,0,0,1-2.54-6.06,25.36,25.36,0,0,1-.9-6.77,25.1,25.1,0,0,1,.9-6.75,25.07,25.07,0,0,1,2.54-6,25.38,25.38,0,0,1,3.94-5.13,25.19,25.19,0,0,1,5.1-4,24.91,24.91,0,0,1,6.07-2.55,25.31,25.31,0,0,1,6.77-.9A24.64,24.64,0,0,1,237-30.28Zm-17.86,4.56a20.3,20.3,0,0,0-6.47,4.37,20.58,20.58,0,0,0-4.35,6.47,19.83,19.83,0,0,0-1.6,8,20,20,0,0,0,1.6,8,20.49,20.49,0,0,0,4.35,6.5A20.47,20.47,0,0,0,219.16,12a20.16,20.16,0,0,0,8,1.59,20.09,20.09,0,0,0,8-1.59,20.67,20.67,0,0,0,6.49-4.37A20.38,20.38,0,0,0,246,1.09a20,20,0,0,0,1.6-8,19.83,19.83,0,0,0-1.6-8,20.47,20.47,0,0,0-4.37-6.47,20.5,20.5,0,0,0-6.49-4.37,19.92,19.92,0,0,0-8-1.6A20,20,0,0,0,219.16-25.72Z" transform="translate(287 47.9)"/><path d="M264.46-20.1,259.7,15.78a2.35,2.35,0,0,1-.95,1.6,2.49,2.49,0,0,1-1.82.46,2.6,2.6,0,0,1-1.62-1,2.28,2.28,0,0,1-.45-1.79l5.93-44.62a2.24,2.24,0,0,1,.74-1.44,3.31,3.31,0,0,1,.86-.59,2.37,2.37,0,0,1,1.85,0,2.45,2.45,0,0,1,1.39,1.31L281.74,9.26l16.1-39.54a2.4,2.4,0,0,1,1.29-1.29,2.34,2.34,0,0,1,1.87,0l.43.24a2.82,2.82,0,0,1,.78.76,2.22,2.22,0,0,1,.39,1l5.65,44.69a2.36,2.36,0,0,1-.5,1.8,2.33,2.33,0,0,1-1.64.89,2.42,2.42,0,0,1-1.81-.48,2.29,2.29,0,0,1-.92-1.62l-4.52-35.65L284,16.6a2.5,2.5,0,0,1-1,1.17,2.24,2.24,0,0,1-1.4.31,2.5,2.5,0,0,1-1.23-.41,2.46,2.46,0,0,1-.88-1.07Z" transform="translate(287 47.9)"/><path d="M319-3.49V15.58a2.31,2.31,0,0,1-.72,1.72,2.5,2.5,0,0,1-3.47,0,2.31,2.31,0,0,1-.72-1.72V-29.5a2.31,2.31,0,0,1,.72-1.74,2.45,2.45,0,0,1,1.73-.68h13.11a15.15,15.15,0,0,1,5.77,1.09,14.78,14.78,0,0,1,4.68,3,14.15,14.15,0,0,1,3.14,4.53,13.82,13.82,0,0,1,1.15,5.65A13.71,13.71,0,0,1,343.22-12a13.83,13.83,0,0,1-3.14,4.48,14.54,14.54,0,0,1-4.68,3,15.53,15.53,0,0,1-5.77,1.07Zm0-23.59V-8.4h10.69a10,10,0,0,0,3.9-.76,10,10,0,0,0,3.1-2.05,9.41,9.41,0,0,0,2-3,8.76,8.76,0,0,0,.75-3.57,8.87,8.87,0,0,0-.77-3.69,9.13,9.13,0,0,0-2.06-2.94,9.59,9.59,0,0,0-3.12-2,10.55,10.55,0,0,0-3.92-.72Z" transform="translate(287 47.9)"/><path d="M366-27V15.54a2.39,2.39,0,0,1-.7,1.74,2.35,2.35,0,0,1-1.75.72,2.18,2.18,0,0,1-1.68-.72,2.48,2.48,0,0,1-.66-1.74V-27H349.09a2.32,2.32,0,0,1-1.72-.73,2.39,2.39,0,0,1-.7-1.73,2.33,2.33,0,0,1,.7-1.72,2.33,2.33,0,0,1,1.72-.7h29.4a2.31,2.31,0,0,1,1.72.72,2.39,2.39,0,0,1,.7,1.74,2.29,2.29,0,0,1-.7,1.73,2.36,2.36,0,0,1-1.72.69Z" transform="translate(287 47.9)"/><path d="M389.22,18a2.31,2.31,0,0,1-1.64-.8,2.54,2.54,0,0,1-.62-1.74V-29.46a2.3,2.3,0,0,1,.74-1.78,2.56,2.56,0,0,1,1.79-.68h22.27a2.33,2.33,0,0,1,1.72.7,2.41,2.41,0,0,1,.7,1.76,2.43,2.43,0,0,1-.7,1.73,2.31,2.31,0,0,1-1.72.72H391.87V-9.34h14.67a2.24,2.24,0,0,1,1.75.68,2.41,2.41,0,0,1,.7,1.74,2.27,2.27,0,0,1-.7,1.7,2.43,2.43,0,0,1-1.75.68H391.87V13.13h19.89a2.39,2.39,0,0,1,2.42,2.41,2.48,2.48,0,0,1-.7,1.78,2.17,2.17,0,0,1-1.72.68Z" transform="translate(287 47.9)"/></g><g class="cls-1"><path d="M-259.81,19a25.1,25.1,0,0,1-6.84-.94,26.59,26.59,0,0,1-6.17-2.6,25.44,25.44,0,0,1-5.21-4,26,26,0,0,1-4-5.25A26.39,26.39,0,0,1-284.63,0a25.67,25.67,0,0,1-.91-6.88,25.59,25.59,0,0,1,.87-6.64,26.37,26.37,0,0,1,2.49-6.13,26.25,26.25,0,0,1,3.91-5.28,25.25,25.25,0,0,1,5.19-4.18,25.56,25.56,0,0,1,6.25-2.72,25.5,25.5,0,0,1,7.14-1,25.68,25.68,0,0,1,9.76,2,26,26,0,0,1,8.57,5.76,2.86,2.86,0,0,1,.89,2.07,3,3,0,0,1-.84,2.06,3.09,3.09,0,0,1-2.13.88,2.69,2.69,0,0,1-2.07-.84,20.42,20.42,0,0,0-6.65-4.44,20.09,20.09,0,0,0-15.31.07A20.15,20.15,0,0,0-273.81-21a20.13,20.13,0,0,0-4.26,6.36,19.61,19.61,0,0,0-1.56,7.8,19.86,19.86,0,0,0,1.5,7.61A20.47,20.47,0,0,0-274,7.08a19.93,19.93,0,0,0,6.28,4.36,19.76,19.76,0,0,0,8.1,1.61,20.47,20.47,0,0,0,7.33-1.33,18.9,18.9,0,0,0,6.65-4.41,3.1,3.1,0,0,1,2.1-.87,2.79,2.79,0,0,1,2.07.78,2.78,2.78,0,0,1,.88,2.13,2.92,2.92,0,0,1-.83,2.06A25.11,25.11,0,0,1-250,17.16,26.7,26.7,0,0,1-259.81,19Zm.12-50.82a24.37,24.37,0,0,0-6.87.94,25.19,25.19,0,0,0-6,2.61,24.19,24.19,0,0,0-5,4,25.64,25.64,0,0,0-3.77,5.08,25.1,25.1,0,0,0-2.39,5.89,24.58,24.58,0,0,0-.84,6.39,24.47,24.47,0,0,0,.88,6.61,25,25,0,0,0,2.48,5.95,25.32,25.32,0,0,0,3.86,5.05,24.39,24.39,0,0,0,5,3.87,25.6,25.6,0,0,0,5.93,2.51,23.9,23.9,0,0,0,6.57.9,25.77,25.77,0,0,0,9.41-1.78,24.07,24.07,0,0,0,8.29-5.53,1.88,1.88,0,0,0,.54-1.37A1.76,1.76,0,0,0-242.14,8a1.79,1.79,0,0,0-1.36-.51,2,2,0,0,0-1.42.59,20,20,0,0,1-7,4.63,21.87,21.87,0,0,1-7.91,1.39,20.26,20.26,0,0,1-8.29-1.7,20.87,20.87,0,0,1-6.59-4.57A21.25,21.25,0,0,1-279,1.11a20.67,20.67,0,0,1-1.58-8A20.65,20.65,0,0,1-279-15.07a21.07,21.07,0,0,1,4.47-6.67,21.18,21.18,0,0,1,6.65-4.48,20.48,20.48,0,0,1,8.14-1.64,21.12,21.12,0,0,1,8,1.56,21.45,21.45,0,0,1,7,4.67,1.7,1.7,0,0,0,1.34.54,2.05,2.05,0,0,0,1.44-.58,2,2,0,0,0,.55-1.36,1.87,1.87,0,0,0-.6-1.36,25.13,25.13,0,0,0-8.24-5.55A24.68,24.68,0,0,0-259.69-31.81Z" transform="translate(287 47.9)"/><path d="M-206.51,18.52a2.87,2.87,0,0,1-.86-.14,3,3,0,0,1-1.7-1.37L-221.36-3h-7.45V15.58a2.83,2.83,0,0,1-.88,2.08,2.87,2.87,0,0,1-2.08.84,2.87,2.87,0,0,1-2.08-.84,2.81,2.81,0,0,1-.88-2.08V-29.5a2.79,2.79,0,0,1,.88-2.1,2.93,2.93,0,0,1,2.08-.82h13.1a15.73,15.73,0,0,1,6,1.13,15.1,15.1,0,0,1,4.84,3.1,14.61,14.61,0,0,1,3.25,4.69,14.47,14.47,0,0,1,1.2,5.85,14.53,14.53,0,0,1-.91,5.15,14.51,14.51,0,0,1-2.53,4.29A14.9,14.9,0,0,1-210.69-5a14.83,14.83,0,0,1-4.13,1.63l10.93,17.49a2.86,2.86,0,0,1,.24,2.42,2.84,2.84,0,0,1-1.55,1.69A2.81,2.81,0,0,1-206.51,18.52ZM-229.81-4h9l12.59,20.48a2,2,0,0,0,1.15.94,1.81,1.81,0,0,0,1.43-.15,1.86,1.86,0,0,0,1-1.13,1.83,1.83,0,0,0-.17-1.58L-216.44-4.12l.72-.13a13.93,13.93,0,0,0,4.52-1.66,13.74,13.74,0,0,0,3.58-3,13.25,13.25,0,0,0,2.35-4,13.54,13.54,0,0,0,.85-4.8,13.55,13.55,0,0,0-1.11-5.45,13.71,13.71,0,0,0-3-4.36,14.08,14.08,0,0,0-4.52-2.9,14.83,14.83,0,0,0-5.59-1.06h-13.1a1.92,1.92,0,0,0-1.39.55,1.78,1.78,0,0,0-.57,1.37V15.58a1.82,1.82,0,0,0,.57,1.36,2,2,0,0,0,2.78,0,1.82,1.82,0,0,0,.57-1.36Zm11.18-3.91h-11.18V-27.58h11.1a11.08,11.08,0,0,1,4.11.75,10.15,10.15,0,0,1,3.28,2.08,9.77,9.77,0,0,1,2.18,3.1,9.5,9.5,0,0,1,.8,3.89,9.36,9.36,0,0,1-.78,3.77,10,10,0,0,1-2.16,3.14,10.46,10.46,0,0,1-3.25,2.15A10.45,10.45,0,0,1-218.63-7.9Zm-10.18-1h10.18a9.62,9.62,0,0,0,3.71-.72,9.38,9.38,0,0,0,2.94-2A9,9,0,0,0-210-14.39a8.31,8.31,0,0,0,.7-3.37,8.37,8.37,0,0,0-.72-3.48A8.61,8.61,0,0,0-212-24a9.33,9.33,0,0,0-3-1.87,10.15,10.15,0,0,0-3.74-.68h-10.1Z" transform="translate(287 47.9)"/><path d="M-170.75,18.5h-22.68a2.8,2.8,0,0,1-2-1,3,3,0,0,1-.75-2.07V-29.46a2.81,2.81,0,0,1,.9-2.14,3,3,0,0,1,2.14-.82h22.27a2.85,2.85,0,0,1,2.07.85,2.87,2.87,0,0,1,.84,2.11,2.87,2.87,0,0,1-.84,2.08,2.78,2.78,0,0,1-2.07.87h-19.39V-9.84h14.16A2.68,2.68,0,0,1-174-9a2.88,2.88,0,0,1,.85,2.08A2.75,2.75,0,0,1-174-4.87a2.9,2.9,0,0,1-2.1.83h-14.16V12.63h19.39a2.85,2.85,0,0,1,2.07.84,2.85,2.85,0,0,1,.84,2.07,3,3,0,0,1-.84,2.13A2.67,2.67,0,0,1-170.75,18.5Zm-22.63-1h22.53A1.68,1.68,0,0,0-169.5,17a1.94,1.94,0,0,0,.56-1.43,1.84,1.84,0,0,0-.55-1.36,1.86,1.86,0,0,0-1.36-.55h-20.39V-5h15.16a2,2,0,0,0,1.41-.54,1.78,1.78,0,0,0,.55-1.34,1.93,1.93,0,0,0-.56-1.39,1.73,1.73,0,0,0-1.38-.53h-15.18V-27.51h20.39a1.76,1.76,0,0,0,1.35-.57,1.87,1.87,0,0,0,.56-1.38,1.88,1.88,0,0,0-.55-1.4,1.83,1.83,0,0,0-1.36-.56h-22.27a2.06,2.06,0,0,0-1.46.55,1.81,1.81,0,0,0-.58,1.41V15.46a2.1,2.1,0,0,0,.5,1.41A1.8,1.8,0,0,0-193.38,17.5Zm10.77-52.94a2.66,2.66,0,0,1-2.07-.9,2.81,2.81,0,0,1-.89-2,2.87,2.87,0,0,1,.91-2.16l6.39-6.47a2.9,2.9,0,0,1,2.11-.89,3,3,0,0,1,2.1.84,2.89,2.89,0,0,1,.94,2.11,2.84,2.84,0,0,1-.89,2.07l-6.43,6.52A3,3,0,0,1-182.61-35.44Zm6.45-11.46a1.9,1.9,0,0,0-1.4.59l-6.39,6.47a1.91,1.91,0,0,0-.62,1.44A1.84,1.84,0,0,0-184-37a1.68,1.68,0,0,0,1.35.6,2,2,0,0,0,1.46-.63l6.43-6.51a1.88,1.88,0,0,0,.6-1.37,1.94,1.94,0,0,0-.64-1.4A2,2,0,0,0-176.16-46.9Z" transform="translate(287 47.9)"/><path d="M-136.24,18.5h-22.68a2.8,2.8,0,0,1-2-1,3.09,3.09,0,0,1-.74-2.07V-29.46a2.78,2.78,0,0,1,.9-2.14,3,3,0,0,1,2.13-.82h22.27a2.84,2.84,0,0,1,2.07.85,2.88,2.88,0,0,1,.85,2.11,2.88,2.88,0,0,1-.85,2.08,2.78,2.78,0,0,1-2.07.87h-19.39V-9.84h14.16a2.7,2.7,0,0,1,2.12.84,2.87,2.87,0,0,1,.84,2.08,2.78,2.78,0,0,1-.85,2.05,2.9,2.9,0,0,1-2.11.83h-14.16V12.63h19.39a2.83,2.83,0,0,1,2.07.84,2.85,2.85,0,0,1,.85,2.07,3,3,0,0,1-.85,2.13A2.65,2.65,0,0,1-136.24,18.5Zm-22.62-1h22.52A1.7,1.7,0,0,0-135,17a1.94,1.94,0,0,0,.56-1.43,1.81,1.81,0,0,0-.56-1.36,1.84,1.84,0,0,0-1.36-.55h-20.39V-5h15.16a1.92,1.92,0,0,0,1.41-.54,1.78,1.78,0,0,0,.55-1.34,1.89,1.89,0,0,0-.56-1.39,1.73,1.73,0,0,0-1.38-.53h-15.18V-27.51h20.39a1.78,1.78,0,0,0,1.36-.57,1.87,1.87,0,0,0,.56-1.38,1.85,1.85,0,0,0-.56-1.4,1.81,1.81,0,0,0-1.36-.56h-22.27a2,2,0,0,0-1.45.55,1.81,1.81,0,0,0-.58,1.41V15.46a2,2,0,0,0,.5,1.41A1.76,1.76,0,0,0-158.86,17.5Z" transform="translate(287 47.9)"/><path d="M-90.71,18.5h-37a2.44,2.44,0,0,1-1.76-.73,2.91,2.91,0,0,1-1-2,2.85,2.85,0,0,1,.72-2.21l32.52-40.09h-29.29a2.82,2.82,0,0,1-2.08-.87,2.87,2.87,0,0,1-.84-2.08,2.84,2.84,0,0,1,.89-2.1,3,3,0,0,1,2.11-.86h35.41a3.24,3.24,0,0,1,2,.79,2.73,2.73,0,0,1,1,2,2.9,2.9,0,0,1-.72,2.13l-32.6,40.09h30.7a2.78,2.78,0,0,1,2.07.87,2.91,2.91,0,0,1,.85,2.08,2.92,2.92,0,0,1-.85,2.09A2.78,2.78,0,0,1-90.71,18.5Zm-.39-49.92h-35.37a1.93,1.93,0,0,0-1.41.58,1.84,1.84,0,0,0-.59,1.38,1.87,1.87,0,0,0,.56,1.38,1.78,1.78,0,0,0,1.36.57h31.39L-129,14.22a1.89,1.89,0,0,0-.5,1.47A1.94,1.94,0,0,0-128.8,17a1.43,1.43,0,0,0,1.08.47h37a1.84,1.84,0,0,0,1.36-.57,1.93,1.93,0,0,0,.56-1.39,1.91,1.91,0,0,0-.56-1.38,1.8,1.8,0,0,0-1.36-.57h-32.8l33.93-41.73a1.94,1.94,0,0,0,.5-1.43,1.78,1.78,0,0,0-.67-1.31A2.24,2.24,0,0,0-91.1-31.42Z" transform="translate(287 47.9)"/><path d="M-46.43,18.5h-.16A3,3,0,0,1-48.07,18a2.88,2.88,0,0,1-1.06-1.34l-19.34-45a2.68,2.68,0,0,1,0-2.25,2.85,2.85,0,0,1,1.64-1.57,2.82,2.82,0,0,1,2.19,0A2.84,2.84,0,0,1-63-30.56L-46.37,8.19l16.62-38.75a3,3,0,0,1,1.6-1.57,2.78,2.78,0,0,1,2.21,0,2.92,2.92,0,0,1,1.61,1.57,2.6,2.6,0,0,1,0,2.26l-19.34,45a3,3,0,0,1-1.22,1.4A3,3,0,0,1-46.43,18.5Zm-19.3-49.85a1.85,1.85,0,0,0-.76.16,1.89,1.89,0,0,0-1.1,1,1.68,1.68,0,0,0,0,1.45h0l19.34,45a1.88,1.88,0,0,0,.69.89,2,2,0,0,0,1,.33,2,2,0,0,0,1.13-.28,2,2,0,0,0,.81-.95l19.34-45a1.68,1.68,0,0,0,0-1.45,2,2,0,0,0-1.08-1.05,1.83,1.83,0,0,0-1.45,0,2,2,0,0,0-1.06,1.05L-46.37,10.73-63.95-30.16A1.85,1.85,0,0,0-65-31.22,2,2,0,0,0-65.73-31.35Z" transform="translate(287 47.9)"/><path d="M1.37,19a25.43,25.43,0,0,1-6.9-.94,26.13,26.13,0,0,1-6.18-2.6,25,25,0,0,1-5.22-4.06,26.85,26.85,0,0,1-4-5.25A26,26,0,0,1-23.53,0a25.87,25.87,0,0,1-.91-6.9,25.61,25.61,0,0,1,.91-6.88A26.07,26.07,0,0,1-20.94-20a26.43,26.43,0,0,1,4-5.23,25.89,25.89,0,0,1,5.21-4.06,25.76,25.76,0,0,1,6.19-2.61,26.28,26.28,0,0,1,6.9-.91,25.29,25.29,0,0,1,10.08,2h0a26.11,26.11,0,0,1,8.23,5.54A26.62,26.62,0,0,1,25.25-17,25,25,0,0,1,27.3-6.92,25.48,25.48,0,0,1,26.36,0a26.48,26.48,0,0,1-2.6,6.18,26,26,0,0,1-4.06,5.25,26,26,0,0,1-5.25,4.06,26.48,26.48,0,0,1-6.18,2.6A25.54,25.54,0,0,1,1.37,19Zm0-50.78a24.79,24.79,0,0,0-6.64.88,24.42,24.42,0,0,0-5.94,2.5,25.17,25.17,0,0,0-5,3.9,25.48,25.48,0,0,0-3.86,5,24.69,24.69,0,0,0-2.48,5.93,24.41,24.41,0,0,0-.88,6.61,24.67,24.67,0,0,0,.88,6.63,24.67,24.67,0,0,0,2.48,6,25.9,25.9,0,0,0,3.86,5.05,23.81,23.81,0,0,0,5,3.89,25.57,25.57,0,0,0,6,2.51A25.07,25.07,0,0,0,8,17.11,25.57,25.57,0,0,0,14,14.6a24.48,24.48,0,0,0,5-3.9,24.56,24.56,0,0,0,3.9-5A25.57,25.57,0,0,0,25.4-.29a24.73,24.73,0,0,0,.9-6.63,24.13,24.13,0,0,0-2-9.67A25.68,25.68,0,0,0,19-24.49a25.12,25.12,0,0,0-7.91-5.33A24.28,24.28,0,0,0,1.37-31.77Zm0,45.82A20.61,20.61,0,0,1-6.8,12.41a20.88,20.88,0,0,1-6.64-4.47,21.32,21.32,0,0,1-4.45-6.65,20.61,20.61,0,0,1-1.64-8.21,20.47,20.47,0,0,1,1.64-8.16,21.42,21.42,0,0,1,4.45-6.62A21,21,0,0,1-6.8-26.18a20.61,20.61,0,0,1,8.21-1.64,20.52,20.52,0,0,1,8.17,1.64,21.07,21.07,0,0,1,6.65,4.48,21.13,21.13,0,0,1,4.47,6.62,20.47,20.47,0,0,1,1.64,8.16A20.65,20.65,0,0,1,20.7,1.29a21,21,0,0,1-4.47,6.65,21,21,0,0,1-6.65,4.47A20.52,20.52,0,0,1,1.41,14.05Zm0-40.87a19.78,19.78,0,0,0-7.82,1.56h0A20.06,20.06,0,0,0-12.73-21,20.23,20.23,0,0,0-17-14.68a19.56,19.56,0,0,0-1.56,7.76A19.78,19.78,0,0,0-17,.9a20.16,20.16,0,0,0,4.24,6.33A19.92,19.92,0,0,0-6.41,11.5a19.77,19.77,0,0,0,7.82,1.55A19.68,19.68,0,0,0,9.19,11.5a20.08,20.08,0,0,0,6.33-4.27A20.05,20.05,0,0,0,19.78.9a19.61,19.61,0,0,0,1.56-7.82,19.55,19.55,0,0,0-1.55-7.76A20.32,20.32,0,0,0,15.52-21a20.22,20.22,0,0,0-6.33-4.26A19.69,19.69,0,0,0,1.41-26.82Z" transform="translate(287 47.9)"/><path d="M43.76,18.5a2.66,2.66,0,0,1-2-.88,3,3,0,0,1-.8-2.08V-26.54H29.29a2.79,2.79,0,0,1-2.07-.88,2.88,2.88,0,0,1-.85-2.08,2.84,2.84,0,0,1,.85-2.07,2.85,2.85,0,0,1,2.07-.85H58.7a2.78,2.78,0,0,1,2.07.87,2.92,2.92,0,0,1,.85,2.09,2.79,2.79,0,0,1-.86,2.09,2.84,2.84,0,0,1-2.06.83h-12V15.54a3,3,0,0,1-.84,2.09A2.86,2.86,0,0,1,43.76,18.5ZM29.29-31.42a1.81,1.81,0,0,0-1.36.56,1.85,1.85,0,0,0-.56,1.36,1.91,1.91,0,0,0,.56,1.38,1.81,1.81,0,0,0,1.36.58H41.92V15.54a2,2,0,0,0,.53,1.4,1.69,1.69,0,0,0,1.31.56,1.88,1.88,0,0,0,1.4-.57,1.93,1.93,0,0,0,.56-1.39V-27.54h13a1.88,1.88,0,0,0,1.37-.55,1.82,1.82,0,0,0,.55-1.37,1.93,1.93,0,0,0-.56-1.39,1.84,1.84,0,0,0-1.36-.57Z" transform="translate(287 47.9)"/><path d="M94.88,18.52a2.82,2.82,0,0,1-.86-.14A3,3,0,0,1,92.31,17L80-3H72.58V15.58a2.83,2.83,0,0,1-.88,2.08,3,3,0,0,1-4.17,0,2.8,2.8,0,0,1-.87-2.08V-29.5a2.79,2.79,0,0,1,.88-2.1,2.93,2.93,0,0,1,2.08-.82h13.1a15.73,15.73,0,0,1,6,1.13,15.21,15.21,0,0,1,4.84,3.1,14.61,14.61,0,0,1,3.25,4.69A14.47,14.47,0,0,1,98-17.65a14.35,14.35,0,0,1-.91,5.15,14.27,14.27,0,0,1-2.52,4.29A14.78,14.78,0,0,1,90.69-5a14.65,14.65,0,0,1-4.12,1.63L97.5,14.07a3.05,3.05,0,0,1-2.62,4.45ZM71.58-4h9L93.17,16.49a2,2,0,0,0,1.15.94,1.81,1.81,0,0,0,1.43-.15,1.89,1.89,0,0,0,.88-2.71L85-4.12l.72-.13a13.93,13.93,0,0,0,4.52-1.66,13.74,13.74,0,0,0,3.58-3,13.13,13.13,0,0,0,2.35-4,13.53,13.53,0,0,0,.84-4.8,13.54,13.54,0,0,0-1.1-5.45,13.71,13.71,0,0,0-3-4.36,14.19,14.19,0,0,0-4.52-2.9,14.83,14.83,0,0,0-5.59-1.06H69.62a1.91,1.91,0,0,0-1.39.55,1.78,1.78,0,0,0-.57,1.37V15.58a1.82,1.82,0,0,0,.57,1.36,2,2,0,0,0,2.77,0,1.79,1.79,0,0,0,.58-1.36ZM82.76-7.9H71.58V-27.58h11.1a11.08,11.08,0,0,1,4.11.75,10.26,10.26,0,0,1,3.28,2.08,9.93,9.93,0,0,1,2.18,3.1,9.5,9.5,0,0,1,.8,3.89A9.36,9.36,0,0,1,92.27-14a10,10,0,0,1-2.16,3.14A10.46,10.46,0,0,1,86.86-8.7,10.48,10.48,0,0,1,82.76-7.9Zm-10.18-1H82.76a9.62,9.62,0,0,0,3.71-.72,9.38,9.38,0,0,0,2.94-2,9.16,9.16,0,0,0,1.94-2.82,8.48,8.48,0,0,0,.7-3.37,8.37,8.37,0,0,0-.72-3.48,8.61,8.61,0,0,0-2-2.79,9.33,9.33,0,0,0-3-1.87,10.19,10.19,0,0,0-3.74-.68H72.58Z" transform="translate(287 47.9)"/><path d="M130.64,18.5H108a2.8,2.8,0,0,1-2-1,3,3,0,0,1-.75-2.07V-29.46a2.78,2.78,0,0,1,.9-2.14,3,3,0,0,1,2.14-.82h22.27a2.82,2.82,0,0,1,2.06.85,2.84,2.84,0,0,1,.85,2.11,2.88,2.88,0,0,1-.84,2.08,2.78,2.78,0,0,1-2.07.87H111.15V-9.84h14.16a2.7,2.7,0,0,1,2.11.84,2.88,2.88,0,0,1,.85,2.08,2.75,2.75,0,0,1-.86,2.05,2.9,2.9,0,0,1-2.1.83H111.15V12.63h19.39a2.89,2.89,0,0,1,2.91,2.91,3,3,0,0,1-.84,2.13A2.67,2.67,0,0,1,130.64,18.5ZM108,17.5h22.53a1.68,1.68,0,0,0,1.35-.53,2,2,0,0,0,.56-1.43,1.88,1.88,0,0,0-1.91-1.91H110.15V-5h15.16a2,2,0,0,0,1.41-.54,1.78,1.78,0,0,0,.55-1.34,1.93,1.93,0,0,0-.56-1.39,1.73,1.73,0,0,0-1.38-.53H110.15V-27.51h20.39a1.76,1.76,0,0,0,1.35-.57,1.87,1.87,0,0,0,.56-1.38,1.88,1.88,0,0,0-.55-1.4,1.83,1.83,0,0,0-1.36-.56H108.27a2.06,2.06,0,0,0-1.46.55,1.81,1.81,0,0,0-.58,1.41V15.46a2.1,2.1,0,0,0,.5,1.41A1.8,1.8,0,0,0,108,17.5Z" transform="translate(287 47.9)"/><path d="M179.63,19a25.15,25.15,0,0,1-6.84-.94,26.52,26.52,0,0,1-6.16-2.6,25.18,25.18,0,0,1-5.21-4,25.67,25.67,0,0,1-4-5.25A26,26,0,0,1,154.82,0a25.67,25.67,0,0,1-.92-6.88,25.6,25.6,0,0,1,.88-6.64,26.7,26.7,0,0,1,2.48-6.13,26.69,26.69,0,0,1,3.92-5.28,25,25,0,0,1,5.19-4.18,25.66,25.66,0,0,1,6.24-2.72,25.55,25.55,0,0,1,7.14-1,25.73,25.73,0,0,1,9.77,2,26.06,26.06,0,0,1,8.56,5.76A2.86,2.86,0,0,1,199-23a2.91,2.91,0,0,1-.84,2.06,3.06,3.06,0,0,1-2.13.88,2.72,2.72,0,0,1-2.07-.84,20.27,20.27,0,0,0-6.64-4.44A20.11,20.11,0,0,0,172-25.3,20.22,20.22,0,0,0,165.64-21a19.91,19.91,0,0,0-4.26,6.36,19.65,19.65,0,0,0-1.56,7.8,19.67,19.67,0,0,0,1.5,7.61,20.12,20.12,0,0,0,4.15,6.35,19.7,19.7,0,0,0,6.28,4.36,19.5,19.5,0,0,0,8.1,1.61,20.51,20.51,0,0,0,7.33-1.33,19,19,0,0,0,6.65-4.41,3.06,3.06,0,0,1,2.1-.87,2.88,2.88,0,0,1,2.07.78,2.77,2.77,0,0,1,.87,2.13,2.82,2.82,0,0,1-.83,2.06,25,25,0,0,1-8.63,5.75A26.7,26.7,0,0,1,179.63,19Zm.12-50.82a24.3,24.3,0,0,0-6.86.94,24.84,24.84,0,0,0-6,2.61,24.25,24.25,0,0,0-5,4,25.74,25.74,0,0,0-3.77,5.08,25.71,25.71,0,0,0-2.39,5.89,24.58,24.58,0,0,0-.84,6.39,24.87,24.87,0,0,0,.88,6.61,25,25,0,0,0,2.49,5.95,24.59,24.59,0,0,0,3.86,5.05,24.33,24.33,0,0,0,5,3.87,25.79,25.79,0,0,0,5.93,2.51,24,24,0,0,0,6.57.9,25.83,25.83,0,0,0,9.42-1.78,24.26,24.26,0,0,0,8.29-5.53,1.87,1.87,0,0,0,.53-1.37A1.76,1.76,0,0,0,197.31,8,1.81,1.81,0,0,0,196,7.44a2,2,0,0,0-1.42.59,19.93,19.93,0,0,1-7,4.63,21.53,21.53,0,0,1-7.9,1.39,20.19,20.19,0,0,1-8.29-1.7,20.76,20.76,0,0,1-6.59-4.57,21.28,21.28,0,0,1-4.36-6.67,20.84,20.84,0,0,1-1.57-8,20.65,20.65,0,0,1,1.64-8.19,20.9,20.9,0,0,1,4.47-6.67,21.07,21.07,0,0,1,6.65-4.48,20.43,20.43,0,0,1,8.13-1.64,21.09,21.09,0,0,1,7.95,1.56,21.23,21.23,0,0,1,7,4.67,1.69,1.69,0,0,0,1.34.54,2.09,2.09,0,0,0,1.44-.58A1.94,1.94,0,0,0,198-23a1.86,1.86,0,0,0-.59-1.36,25.23,25.23,0,0,0-8.24-5.55A24.73,24.73,0,0,0,179.75-31.81Z" transform="translate(287 47.9)"/><path d="M227.14,19a25.56,25.56,0,0,1-6.91-.94,26.48,26.48,0,0,1-6.18-2.6,25.19,25.19,0,0,1-5.21-4.06,26.51,26.51,0,0,1-4-5.25A26.44,26.44,0,0,1,202.24,0a25.87,25.87,0,0,1-.92-6.9,25.62,25.62,0,0,1,.92-6.88A25.89,25.89,0,0,1,204.83-20a25.69,25.69,0,0,1,4-5.23,25.89,25.89,0,0,1,5.21-4.06,25.59,25.59,0,0,1,6.19-2.61,26.22,26.22,0,0,1,6.9-.91,25.29,25.29,0,0,1,10.08,2h0a26.34,26.34,0,0,1,8.23,5.54A26.59,26.59,0,0,1,251-17a25,25,0,0,1,2.05,10.07,25.48,25.48,0,0,1-.93,6.9,26.51,26.51,0,0,1-2.61,6.18,25.93,25.93,0,0,1-4.05,5.25,26,26,0,0,1-5.25,4.06,26.48,26.48,0,0,1-6.18,2.6A25.54,25.54,0,0,1,227.14,19Zm0-50.78a24.74,24.74,0,0,0-6.64.88,24.09,24.09,0,0,0-5.94,2.5,24.89,24.89,0,0,0-5,3.9,24.74,24.74,0,0,0-3.86,5,25,25,0,0,0-2.49,5.93,24.81,24.81,0,0,0-.88,6.61,25.07,25.07,0,0,0,.88,6.63,25.1,25.1,0,0,0,2.49,6,25.14,25.14,0,0,0,3.86,5.05,23.81,23.81,0,0,0,5,3.89,25.32,25.32,0,0,0,5.94,2.51,25.11,25.11,0,0,0,13.27,0,25.32,25.32,0,0,0,5.94-2.51,24.28,24.28,0,0,0,5-3.9,24.91,24.91,0,0,0,3.9-5,25.57,25.57,0,0,0,2.51-5.95,24.72,24.72,0,0,0,.89-6.63,24.12,24.12,0,0,0-2-9.67,25.68,25.68,0,0,0-5.36-7.9,25.17,25.17,0,0,0-7.92-5.33h0A24.2,24.2,0,0,0,227.14-31.77Zm0,45.82A20.65,20.65,0,0,1,219,12.41a20.84,20.84,0,0,1-6.63-4.47,21.15,21.15,0,0,1-4.45-6.65,20.65,20.65,0,0,1-1.64-8.21,20.47,20.47,0,0,1,1.64-8.16,21.25,21.25,0,0,1,4.45-6.62A21,21,0,0,1,219-26.18a20.68,20.68,0,0,1,8.21-1.64,20.61,20.61,0,0,1,8.18,1.64A21.07,21.07,0,0,1,242-21.7a21.3,21.3,0,0,1,4.47,6.62,20.47,20.47,0,0,1,1.64,8.16,20.65,20.65,0,0,1-1.64,8.21A21.21,21.21,0,0,1,242,7.94a21.15,21.15,0,0,1-6.65,4.47A20.61,20.61,0,0,1,227.17,14.05Zm0-40.87a19.77,19.77,0,0,0-7.81,1.56h0A20,20,0,0,0,213-21a20.23,20.23,0,0,0-4.24,6.32,19.39,19.39,0,0,0-1.56,7.76A19.61,19.61,0,0,0,208.8.9,20.16,20.16,0,0,0,213,7.23a19.81,19.81,0,0,0,6.32,4.27,19.69,19.69,0,0,0,7.81,1.55A19.61,19.61,0,0,0,235,11.5a20.12,20.12,0,0,0,6.34-4.27A20.05,20.05,0,0,0,245.55.9a19.61,19.61,0,0,0,1.56-7.82,19.39,19.39,0,0,0-1.56-7.76A20.12,20.12,0,0,0,241.29-21,20.15,20.15,0,0,0,235-25.26,19.65,19.65,0,0,0,227.17-26.82Z" transform="translate(287 47.9)"/><path d="M281.78,18.59h-.29a3,3,0,0,1-1.45-.49A2.89,2.89,0,0,1,279,16.8l-14.27-35-4.51,34A2.87,2.87,0,0,1,259,17.78a3,3,0,0,1-2.17.56,3.14,3.14,0,0,1-2-1.16,2.73,2.73,0,0,1-.55-2.18l5.93-44.61a2.76,2.76,0,0,1,.9-1.75,4.18,4.18,0,0,1,1-.66,2.88,2.88,0,0,1,2.25,0,3,3,0,0,1,1.66,1.57L281.74,7.94l15.64-38.41A2.86,2.86,0,0,1,298.93-32a2.86,2.86,0,0,1,2.26,0l.48.26a3.31,3.31,0,0,1,.95.91,2.92,2.92,0,0,1,.48,1.25l5.65,44.7A3,3,0,0,1,304,17.75a2.75,2.75,0,0,1-1.12-1.95L298.6-18,284.42,16.78a3,3,0,0,1-1.22,1.42A2.79,2.79,0,0,1,281.78,18.59ZM264.21-22,279.9,16.41a1.86,1.86,0,0,0,.69.84,1.91,1.91,0,0,0,1,.33,1.76,1.76,0,0,0,1.12-.25,1.94,1.94,0,0,0,.81-.94l15.61-38.25,4.77,37.54A1.75,1.75,0,0,0,304.6,17a2,2,0,0,0,1.45.39,1.91,1.91,0,0,0,1.31-.71,1.88,1.88,0,0,0,.4-1.43L302.1-29.48a1.84,1.84,0,0,0-.3-.81,2.3,2.3,0,0,0-.65-.63l-.39-.21a1.82,1.82,0,0,0-1.43,0,1.92,1.92,0,0,0-1,1L281.74,10.59,265.17-30.09a1.94,1.94,0,0,0-1.11-1,1.83,1.83,0,0,0-1.47,0,2.6,2.6,0,0,0-.7.48,1.76,1.76,0,0,0-.6,1.15l-5.93,44.62a1.73,1.73,0,0,0,.35,1.42,2,2,0,0,0,1.32.79,1.93,1.93,0,0,0,1.42-.38,1.87,1.87,0,0,0,.76-1.27Z" transform="translate(287 47.9)"/><path d="M316.52,18.5a2.88,2.88,0,0,1-2.08-.84,2.8,2.8,0,0,1-.87-2.08V-29.5a2.78,2.78,0,0,1,.87-2.1,3,3,0,0,1,2.08-.82h13.11a15.76,15.76,0,0,1,6,1.13,15.32,15.32,0,0,1,4.84,3.1,14.77,14.77,0,0,1,3.25,4.69,14.47,14.47,0,0,1,1.19,5.85,14.32,14.32,0,0,1-1.19,5.84,14.51,14.51,0,0,1-3.26,4.65,14.83,14.83,0,0,1-4.84,3.06A15.86,15.86,0,0,1,329.63-3H319.48V15.58a2.82,2.82,0,0,1-.87,2.08A2.91,2.91,0,0,1,316.52,18.5Zm0-49.92a1.92,1.92,0,0,0-1.39.55,1.77,1.77,0,0,0-.56,1.37V15.58a1.78,1.78,0,0,0,.57,1.36,2,2,0,0,0,2.77,0,1.82,1.82,0,0,0,.57-1.36V-4h11.15a14.93,14.93,0,0,0,5.58-1,13.87,13.87,0,0,0,4.52-2.86,13.38,13.38,0,0,0,3-4.32,13.26,13.26,0,0,0,1.11-5.44,13.38,13.38,0,0,0-1.11-5.45,13.71,13.71,0,0,0-3-4.36,14,14,0,0,0-4.52-2.9,14.74,14.74,0,0,0-5.58-1.06ZM329.67-7.9H318.48V-27.58h11.11a11.07,11.07,0,0,1,4.1.75A10,10,0,0,1,337-24.75a9.61,9.61,0,0,1,2.18,3.1,9.51,9.51,0,0,1,.81,3.89,9.37,9.37,0,0,1-.79,3.77A10,10,0,0,1,337-10.85a10.51,10.51,0,0,1-3.26,2.15A10.43,10.43,0,0,1,329.67-7.9Zm-10.19-1h10.19a9.57,9.57,0,0,0,3.7-.72,9.42,9.42,0,0,0,2.95-2,9.16,9.16,0,0,0,1.94-2.82,8.48,8.48,0,0,0,.7-3.37,8.53,8.53,0,0,0-.72-3.48,8.79,8.79,0,0,0-2-2.79,9.22,9.22,0,0,0-3-1.87,10.14,10.14,0,0,0-3.73-.68H319.48Z" transform="translate(287 47.9)"/><path d="M363.56,18.5a2.7,2.7,0,0,1-2.05-.88,3,3,0,0,1-.79-2.08V-26.54H349.09a2.81,2.81,0,0,1-2.08-.88,2.87,2.87,0,0,1-.84-2.08,2.84,2.84,0,0,1,.85-2.07,2.84,2.84,0,0,1,2.07-.85h29.4a2.79,2.79,0,0,1,2.08.87,2.91,2.91,0,0,1,.84,2.09,2.78,2.78,0,0,1-.85,2.09,2.86,2.86,0,0,1-2.07.83h-12V15.54a2.91,2.91,0,0,1-.84,2.09A2.82,2.82,0,0,1,363.56,18.5ZM349.09-31.42a1.8,1.8,0,0,0-1.36.56,1.81,1.81,0,0,0-.56,1.36,1.87,1.87,0,0,0,.56,1.38,1.79,1.79,0,0,0,1.36.58h12.63V15.54a2,2,0,0,0,.53,1.4,1.66,1.66,0,0,0,1.31.56,1.85,1.85,0,0,0,1.39-.57,1.89,1.89,0,0,0,.56-1.39V-27.54h13a1.85,1.85,0,0,0,1.37-.55,1.82,1.82,0,0,0,.55-1.37,1.89,1.89,0,0,0-.56-1.39,1.8,1.8,0,0,0-1.36-.57Z" transform="translate(287 47.9)"/><path d="M411.86,18.5H389.18a2.82,2.82,0,0,1-2-1,3.09,3.09,0,0,1-.74-2.07V-29.46a2.78,2.78,0,0,1,.9-2.14,3,3,0,0,1,2.13-.82h22.27a2.84,2.84,0,0,1,2.07.85,2.88,2.88,0,0,1,.85,2.11,2.89,2.89,0,0,1-.85,2.08,2.78,2.78,0,0,1-2.07.87H392.37V-9.84h14.17a2.71,2.71,0,0,1,2.11.84,2.87,2.87,0,0,1,.84,2.08,2.74,2.74,0,0,1-.85,2.05,2.9,2.9,0,0,1-2.1.83H392.37V12.63h19.39a2.89,2.89,0,0,1,2.92,2.91,3,3,0,0,1-.85,2.13A2.65,2.65,0,0,1,411.86,18.5Zm-22.62-1h22.52a1.68,1.68,0,0,0,1.36-.53,2,2,0,0,0,.56-1.43,1.81,1.81,0,0,0-.56-1.36,1.84,1.84,0,0,0-1.36-.55H391.37V-5h15.17a1.92,1.92,0,0,0,1.4-.54,1.78,1.78,0,0,0,.55-1.34,1.89,1.89,0,0,0-.56-1.39,1.77,1.77,0,0,0-1.38-.53H391.37V-27.51h20.39a1.78,1.78,0,0,0,1.36-.57,1.87,1.87,0,0,0,.56-1.38,1.85,1.85,0,0,0-.56-1.4,1.81,1.81,0,0,0-1.36-.56H389.49a2,2,0,0,0-1.45.55,1.81,1.81,0,0,0-.58,1.41V15.46a2,2,0,0,0,.5,1.41A1.76,1.76,0,0,0,389.24,17.5Z" transform="translate(287 47.9)"/></g></g><rect id="Rectangle_93" data-name="Rectangle 93" class="cls-2" x="4" y="78.9" width="8.56" height="314.74"/><rect id="Rectangle_94" data-name="Rectangle 94" class="cls-3" x="886.45" y="866.27" width="8.56" height="25.53"/><rect id="Rectangle_95" data-name="Rectangle 95" class="cls-4" x="4" y="402.4" width="8.56" height="49.19"/><rect x="886.73" y="690.29" width="8" height="148.06"/></svg>