<svg id="Calque_1" data-name="Calque 1" xmlns="http://www.w3.org/2000/svg" viewBox="0 0 374.75 385.63"><defs><style>.cls-1{fill:#ea5452;}.cls-2{fill:#1e284a;}</style></defs><title>soleil</title><path id="Tracé_104" data-name="Tracé 104" class="cls-1" d="M474.33,356.19c0,83-66.47,150.29-148.46,150.29S177.41,439.2,177.41,356.19,243.88,205.9,325.87,205.9,474.33,273.18,474.33,356.19Z" transform="translate(-99.57 -205.9)"/><g id="Groupe_161" data-name="Groupe 161"><g id="Groupe_125" data-name="Groupe 125"><path id="Tracé_105" data-name="Tracé 105" class="cls-2" d="M273.46,253.58a3.27,3.27,0,1,1-3.27-3.28,3.26,3.26,0,0,1,3.27,3.28Z" transform="translate(-99.57 -205.9)"/><path id="Tracé_106" data-name="Tracé 106" class="cls-2" d="M273.46,265.87a3.27,3.27,0,1,1-3.27-3.27h0A3.27,3.27,0,0,1,273.46,265.87Z" transform="translate(-99.57 -205.9)"/><path id="Tracé_107" data-name="Tracé 107" class="cls-2" d="M273.46,278.16a3.27,3.27,0,1,1-3.27-3.27h0A3.28,3.28,0,0,1,273.46,278.16Z" transform="translate(-99.57 -205.9)"/><path id="Tracé_108" data-name="Tracé 108" class="cls-2" d="M273.46,290.46a3.27,3.27,0,1,1-3.27-3.27A3.27,3.27,0,0,1,273.46,290.46Z" transform="translate(-99.57 -205.9)"/><path id="Tracé_109" data-name="Tracé 109" class="cls-2" d="M273.46,302.75a3.27,3.27,0,1,1-3.27-3.27A3.27,3.27,0,0,1,273.46,302.75Z" transform="translate(-99.57 -205.9)"/><path id="Tracé_110" data-name="Tracé 110" class="cls-2" d="M273.46,315.05a3.27,3.27,0,1,1-3.27-3.27,3.28,3.28,0,0,1,3.27,3.27Z" transform="translate(-99.57 -205.9)"/><path id="Tracé_111" data-name="Tracé 111" class="cls-2" d="M273.46,327.34a3.27,3.27,0,1,1-3.27-3.27A3.27,3.27,0,0,1,273.46,327.34Z" transform="translate(-99.57 -205.9)"/><path id="Tracé_112" data-name="Tracé 112" class="cls-2" d="M273.46,339.64a3.27,3.27,0,1,1-3.27-3.28,3.26,3.26,0,0,1,3.27,3.28Z" transform="translate(-99.57 -205.9)"/><path id="Tracé_113" data-name="Tracé 113" class="cls-2" d="M273.46,351.93a3.27,3.27,0,1,1-3.27-3.27A3.27,3.27,0,0,1,273.46,351.93Z" transform="translate(-99.57 -205.9)"/><path id="Tracé_114" data-name="Tracé 114" class="cls-2" d="M273.46,364.23a3.27,3.27,0,1,1-3.27-3.28A3.26,3.26,0,0,1,273.46,364.23Z" transform="translate(-99.57 -205.9)"/></g><g id="Groupe_126" data-name="Groupe 126"><path id="Tracé_115" data-name="Tracé 115" class="cls-2" d="M244.35,255.55a3.27,3.27,0,1,1-3.79-2.65h0A3.27,3.27,0,0,1,244.35,255.55Z" transform="translate(-99.57 -205.9)"/><path id="Tracé_116" data-name="Tracé 116" class="cls-2" d="M246.49,267.66A3.27,3.27,0,1,1,242.7,265h0A3.27,3.27,0,0,1,246.49,267.66Z" transform="translate(-99.57 -205.9)"/><path id="Tracé_117" data-name="Tracé 117" class="cls-2" d="M248.62,279.76a3.27,3.27,0,1,1-3.79-2.65A3.27,3.27,0,0,1,248.62,279.76Z" transform="translate(-99.57 -205.9)"/><path id="Tracé_118" data-name="Tracé 118" class="cls-2" d="M250.76,291.87a3.27,3.27,0,1,1-3.79-2.65h0A3.28,3.28,0,0,1,250.76,291.87Z" transform="translate(-99.57 -205.9)"/><path id="Tracé_119" data-name="Tracé 119" class="cls-2" d="M252.89,304a3.27,3.27,0,1,1-3.79-2.65h0A3.26,3.26,0,0,1,252.89,304Z" transform="translate(-99.57 -205.9)"/><path id="Tracé_120" data-name="Tracé 120" class="cls-2" d="M255,316.09a3.26,3.26,0,1,1-3.79-2.65,3.26,3.26,0,0,1,3.79,2.65Z" transform="translate(-99.57 -205.9)"/><path id="Tracé_121" data-name="Tracé 121" class="cls-2" d="M257.16,328.2a3.27,3.27,0,1,1-3.79-2.66A3.27,3.27,0,0,1,257.16,328.2Z" transform="translate(-99.57 -205.9)"/><path id="Tracé_122" data-name="Tracé 122" class="cls-2" d="M259.3,340.3a3.27,3.27,0,1,1-3.79-2.65h0A3.28,3.28,0,0,1,259.3,340.3Z" transform="translate(-99.57 -205.9)"/><path id="Tracé_123" data-name="Tracé 123" class="cls-2" d="M261.43,352.41a3.27,3.27,0,1,1-3.78-2.65A3.26,3.26,0,0,1,261.43,352.41Z" transform="translate(-99.57 -205.9)"/><path id="Tracé_124" data-name="Tracé 124" class="cls-2" d="M263.56,364.52a3.27,3.27,0,1,1-3.79-2.65h0A3.26,3.26,0,0,1,263.56,364.52Z" transform="translate(-99.57 -205.9)"/></g><g id="Groupe_127" data-name="Groupe 127"><path id="Tracé_125" data-name="Tracé 125" class="cls-2" d="M216,262.55a3.27,3.27,0,1,1-4.19-2,3.28,3.28,0,0,1,4.19,2Z" transform="translate(-99.57 -205.9)"/><path id="Tracé_126" data-name="Tracé 126" class="cls-2" d="M220.23,274.1a3.27,3.27,0,1,1-4.19-2,3.26,3.26,0,0,1,4.19,2Z" transform="translate(-99.57 -205.9)"/><path id="Tracé_127" data-name="Tracé 127" class="cls-2" d="M224.44,285.65a3.27,3.27,0,1,1-4.2-1.95h0A3.27,3.27,0,0,1,224.44,285.65Z" transform="translate(-99.57 -205.9)"/><path id="Tracé_128" data-name="Tracé 128" class="cls-2" d="M228.64,297.21a3.27,3.27,0,1,1-4.19-2h0A3.28,3.28,0,0,1,228.64,297.21Z" transform="translate(-99.57 -205.9)"/><path id="Tracé_129" data-name="Tracé 129" class="cls-2" d="M232.85,308.76a3.27,3.27,0,1,1-4.2-1.95h0A3.26,3.26,0,0,1,232.85,308.76Z" transform="translate(-99.57 -205.9)"/><path id="Tracé_130" data-name="Tracé 130" class="cls-2" d="M237.05,320.31a3.27,3.27,0,1,1-4.19-1.95h0A3.27,3.27,0,0,1,237.05,320.31Z" transform="translate(-99.57 -205.9)"/><path id="Tracé_131" data-name="Tracé 131" class="cls-2" d="M241.26,331.87a3.27,3.27,0,1,1-4.19-2h0A3.28,3.28,0,0,1,241.26,331.87Z" transform="translate(-99.57 -205.9)"/><path id="Tracé_132" data-name="Tracé 132" class="cls-2" d="M245.47,343.42a3.27,3.27,0,1,1-4.2-1.95h0A3.29,3.29,0,0,1,245.47,343.42Z" transform="translate(-99.57 -205.9)"/><path id="Tracé_133" data-name="Tracé 133" class="cls-2" d="M249.67,355a3.27,3.27,0,1,1-4.19-2h0A3.27,3.27,0,0,1,249.67,355Z" transform="translate(-99.57 -205.9)"/><path id="Tracé_134" data-name="Tracé 134" class="cls-2" d="M253.87,366.53a3.27,3.27,0,1,1-4.19-2h0A3.26,3.26,0,0,1,253.87,366.53Z" transform="translate(-99.57 -205.9)"/></g><g id="Groupe_128" data-name="Groupe 128"><path id="Tracé_135" data-name="Tracé 135" class="cls-2" d="M189.35,274.36a3.27,3.27,0,1,1-4.47-1.2,3.28,3.28,0,0,1,4.47,1.2Z" transform="translate(-99.57 -205.9)"/><path id="Tracé_136" data-name="Tracé 136" class="cls-2" d="M195.5,285a3.27,3.27,0,1,1-4.47-1.2,3.27,3.27,0,0,1,4.47,1.2Z" transform="translate(-99.57 -205.9)"/><path id="Tracé_137" data-name="Tracé 137" class="cls-2" d="M201.64,295.65a3.27,3.27,0,1,1-4.46-1.2,3.26,3.26,0,0,1,4.46,1.2Z" transform="translate(-99.57 -205.9)"/><path id="Tracé_138" data-name="Tracé 138" class="cls-2" d="M207.79,306.3a3.27,3.27,0,1,1-4.46-1.2h0a3.27,3.27,0,0,1,4.46,1.2Z" transform="translate(-99.57 -205.9)"/><path id="Tracé_139" data-name="Tracé 139" class="cls-2" d="M213.94,317a3.27,3.27,0,1,1-4.47-1.2h0A3.27,3.27,0,0,1,213.94,317Z" transform="translate(-99.57 -205.9)"/><path id="Tracé_140" data-name="Tracé 140" class="cls-2" d="M220.08,327.6a3.27,3.27,0,1,1-4.46-1.2h0a3.27,3.27,0,0,1,4.46,1.19Z" transform="translate(-99.57 -205.9)"/><path id="Tracé_141" data-name="Tracé 141" class="cls-2" d="M226.24,338.24a3.27,3.27,0,1,1-4.47-1.19,3.28,3.28,0,0,1,4.47,1.19Z" transform="translate(-99.57 -205.9)"/><path id="Tracé_142" data-name="Tracé 142" class="cls-2" d="M232.38,348.89a3.27,3.27,0,1,1-4.47-1.2,3.27,3.27,0,0,1,4.47,1.2Z" transform="translate(-99.57 -205.9)"/><path id="Tracé_143" data-name="Tracé 143" class="cls-2" d="M238.53,359.54a3.27,3.27,0,1,1-4.47-1.2h0A3.27,3.27,0,0,1,238.53,359.54Z" transform="translate(-99.57 -205.9)"/><path id="Tracé_144" data-name="Tracé 144" class="cls-2" d="M244.68,370.19a3.27,3.27,0,1,1-4.47-1.2h0a3.27,3.27,0,0,1,4.46,1.19Z" transform="translate(-99.57 -205.9)"/></g><g id="Groupe_129" data-name="Groupe 129"><path id="Tracé_145" data-name="Tracé 145" class="cls-2" d="M165.13,290.62a3.27,3.27,0,1,1-4.61-.41,3.28,3.28,0,0,1,4.61.41Z" transform="translate(-99.57 -205.9)"/><path id="Tracé_146" data-name="Tracé 146" class="cls-2" d="M173,300a3.27,3.27,0,1,1-4.6-.41,3.26,3.26,0,0,1,4.6.41Z" transform="translate(-99.57 -205.9)"/><path id="Tracé_147" data-name="Tracé 147" class="cls-2" d="M180.93,309.46a3.27,3.27,0,1,1-4.6-.41,3.26,3.26,0,0,1,4.6.41Z" transform="translate(-99.57 -205.9)"/><path id="Tracé_148" data-name="Tracé 148" class="cls-2" d="M188.84,318.88a3.27,3.27,0,1,1-4.61-.41,3.27,3.27,0,0,1,4.61.41Z" transform="translate(-99.57 -205.9)"/><path id="Tracé_149" data-name="Tracé 149" class="cls-2" d="M196.74,328.3a3.27,3.27,0,1,1-4.61-.41,3.27,3.27,0,0,1,4.61.41Z" transform="translate(-99.57 -205.9)"/><path id="Tracé_150" data-name="Tracé 150" class="cls-2" d="M204.64,337.71a3.27,3.27,0,1,1-4.61-.4h0a3.29,3.29,0,0,1,4.61.41Z" transform="translate(-99.57 -205.9)"/><path id="Tracé_151" data-name="Tracé 151" class="cls-2" d="M212.55,347.13a3.27,3.27,0,1,1-4.61-.4h0a3.26,3.26,0,0,1,4.6.39Z" transform="translate(-99.57 -205.9)"/><path id="Tracé_152" data-name="Tracé 152" class="cls-2" d="M220.45,356.55a3.27,3.27,0,1,1-4.61-.41h0A3.28,3.28,0,0,1,220.45,356.55Z" transform="translate(-99.57 -205.9)"/><path id="Tracé_153" data-name="Tracé 153" class="cls-2" d="M228.35,366a3.27,3.27,0,1,1-4.61-.41,3.28,3.28,0,0,1,4.61.41Z" transform="translate(-99.57 -205.9)"/><path id="Tracé_154" data-name="Tracé 154" class="cls-2" d="M236.25,375.39a3.27,3.27,0,1,1-4.6-.41h0a3.27,3.27,0,0,1,4.6.4Z" transform="translate(-99.57 -205.9)"/></g><g id="Groupe_130" data-name="Groupe 130"><path id="Tracé_155" data-name="Tracé 155" class="cls-2" d="M144.1,310.85a3.27,3.27,0,1,1-4.61.39,3.26,3.26,0,0,1,4.61-.39Z" transform="translate(-99.57 -205.9)"/><path id="Tracé_156" data-name="Tracé 156" class="cls-2" d="M153.52,318.75a3.27,3.27,0,1,1-4.62.4,3.26,3.26,0,0,1,4.62-.4Z" transform="translate(-99.57 -205.9)"/><path id="Tracé_157" data-name="Tracé 157" class="cls-2" d="M162.94,326.65a3.27,3.27,0,1,1-4.61.4,3.28,3.28,0,0,1,4.61-.4Z" transform="translate(-99.57 -205.9)"/><path id="Tracé_158" data-name="Tracé 158" class="cls-2" d="M172.36,334.55a3.27,3.27,0,1,1-4.61.41A3.27,3.27,0,0,1,172.36,334.55Z" transform="translate(-99.57 -205.9)"/><path id="Tracé_159" data-name="Tracé 159" class="cls-2" d="M181.77,342.46a3.27,3.27,0,1,1-4.6.4,3.27,3.27,0,0,1,4.6-.4Z" transform="translate(-99.57 -205.9)"/><path id="Tracé_160" data-name="Tracé 160" class="cls-2" d="M191.19,350.36a3.27,3.27,0,1,1-4.61.4,3.28,3.28,0,0,1,4.61-.4Z" transform="translate(-99.57 -205.9)"/><path id="Tracé_161" data-name="Tracé 161" class="cls-2" d="M200.61,358.27a3.27,3.27,0,1,1-4.61.39,3.26,3.26,0,0,1,4.61-.39Z" transform="translate(-99.57 -205.9)"/><path id="Tracé_162" data-name="Tracé 162" class="cls-2" d="M210,366.17a3.27,3.27,0,1,1-4.61.4,3.26,3.26,0,0,1,4.61-.4Z" transform="translate(-99.57 -205.9)"/><path id="Tracé_163" data-name="Tracé 163" class="cls-2" d="M219.45,374.07a3.27,3.27,0,1,1-4.61.4,3.27,3.27,0,0,1,4.61-.4Z" transform="translate(-99.57 -205.9)"/><path id="Tracé_164" data-name="Tracé 164" class="cls-2" d="M228.87,382a3.27,3.27,0,1,1-4.61.4,3.28,3.28,0,0,1,4.61-.4Z" transform="translate(-99.57 -205.9)"/></g><g id="Groupe_131" data-name="Groupe 131"><path id="Tracé_165" data-name="Tracé 165" class="cls-2" d="M126.9,334.41a3.27,3.27,0,1,1-4.47,1.19,3.26,3.26,0,0,1,4.47-1.19Z" transform="translate(-99.57 -205.9)"/><path id="Tracé_166" data-name="Tracé 166" class="cls-2" d="M137.55,340.56a3.27,3.27,0,1,1-4.47,1.19,3.28,3.28,0,0,1,4.47-1.19Z" transform="translate(-99.57 -205.9)"/><path id="Tracé_167" data-name="Tracé 167" class="cls-2" d="M148.2,346.71a3.27,3.27,0,1,1-4.47,1.19,3.26,3.26,0,0,1,4.47-1.19Z" transform="translate(-99.57 -205.9)"/><path id="Tracé_168" data-name="Tracé 168" class="cls-2" d="M158.84,352.86a3.27,3.27,0,1,1-4.47,1.19,3.26,3.26,0,0,1,4.47-1.19Z" transform="translate(-99.57 -205.9)"/><path id="Tracé_169" data-name="Tracé 169" class="cls-2" d="M169.49,359a3.27,3.27,0,1,1-4.47,1.19,3.26,3.26,0,0,1,4.47-1.19Z" transform="translate(-99.57 -205.9)"/><path id="Tracé_170" data-name="Tracé 170" class="cls-2" d="M180.14,365.15a3.27,3.27,0,1,1-4.47,1.19,3.27,3.27,0,0,1,4.47-1.19Z" transform="translate(-99.57 -205.9)"/><path id="Tracé_171" data-name="Tracé 171" class="cls-2" d="M190.78,371.3a3.27,3.27,0,1,1-4.47,1.19,3.26,3.26,0,0,1,4.47-1.19Z" transform="translate(-99.57 -205.9)"/><path id="Tracé_172" data-name="Tracé 172" class="cls-2" d="M201.43,377.44a3.27,3.27,0,1,1-4.47,1.2,3.27,3.27,0,0,1,4.47-1.2Z" transform="translate(-99.57 -205.9)"/><path id="Tracé_173" data-name="Tracé 173" class="cls-2" d="M212.08,383.59a3.28,3.28,0,1,1-4.47,1.2,3.27,3.27,0,0,1,4.47-1.2Z" transform="translate(-99.57 -205.9)"/><path id="Tracé_174" data-name="Tracé 174" class="cls-2" d="M222.73,389.74a3.27,3.27,0,1,1-4.47,1.2,3.26,3.26,0,0,1,4.47-1.2Z" transform="translate(-99.57 -205.9)"/></g><g id="Groupe_132" data-name="Groupe 132"><path id="Tracé_175" data-name="Tracé 175" class="cls-2" d="M114.06,360.61a3.27,3.27,0,1,1-4.2,1.95,3.26,3.26,0,0,1,4.2-1.95Z" transform="translate(-99.57 -205.9)"/><path id="Tracé_176" data-name="Tracé 176" class="cls-2" d="M125.61,364.81a3.27,3.27,0,1,1-4.2,1.95,3.27,3.27,0,0,1,4.2-1.95Z" transform="translate(-99.57 -205.9)"/><path id="Tracé_177" data-name="Tracé 177" class="cls-2" d="M137.16,369a3.27,3.27,0,1,1-4.19,2,3.27,3.27,0,0,1,4.19-2Z" transform="translate(-99.57 -205.9)"/><path id="Tracé_178" data-name="Tracé 178" class="cls-2" d="M148.72,373.23a3.27,3.27,0,1,1-4.2,1.95,3.27,3.27,0,0,1,4.2-1.95Z" transform="translate(-99.57 -205.9)"/><path id="Tracé_179" data-name="Tracé 179" class="cls-2" d="M160.27,377.42a3.28,3.28,0,1,1-4.2,2,3.28,3.28,0,0,1,4.2-2Z" transform="translate(-99.57 -205.9)"/><path id="Tracé_180" data-name="Tracé 180" class="cls-2" d="M171.82,381.64a3.27,3.27,0,1,1-4.19,1.95,3.27,3.27,0,0,1,4.19-1.95Z" transform="translate(-99.57 -205.9)"/><path id="Tracé_181" data-name="Tracé 181" class="cls-2" d="M183.38,385.84a3.27,3.27,0,1,1-4.2,2,3.28,3.28,0,0,1,4.2-2Z" transform="translate(-99.57 -205.9)"/><path id="Tracé_182" data-name="Tracé 182" class="cls-2" d="M194.93,390a3.27,3.27,0,1,1-4.2,2,3.27,3.27,0,0,1,4.2-2Z" transform="translate(-99.57 -205.9)"/><path id="Tracé_183" data-name="Tracé 183" class="cls-2" d="M206.48,394.25a3.27,3.27,0,1,1-4.19,2h0A3.27,3.27,0,0,1,206.48,394.25Z" transform="translate(-99.57 -205.9)"/><path id="Tracé_184" data-name="Tracé 184" class="cls-2" d="M218,398.45a3.28,3.28,0,1,1-4.19,2h0a3.26,3.26,0,0,1,4.18-2Z" transform="translate(-99.57 -205.9)"/></g><g id="Groupe_133" data-name="Groupe 133"><path id="Tracé_185" data-name="Tracé 185" class="cls-2" d="M106,388.64a3.27,3.27,0,1,1-3.79,2.65,3.26,3.26,0,0,1,3.79-2.65Z" transform="translate(-99.57 -205.9)"/><path id="Tracé_186" data-name="Tracé 186" class="cls-2" d="M118.07,390.77a3.27,3.27,0,1,1-3.79,2.65h0a3.26,3.26,0,0,1,3.78-2.65Z" transform="translate(-99.57 -205.9)"/><path id="Tracé_187" data-name="Tracé 187" class="cls-2" d="M130.18,392.9a3.28,3.28,0,1,1-3.8,2.65,3.28,3.28,0,0,1,3.8-2.65Z" transform="translate(-99.57 -205.9)"/><path id="Tracé_188" data-name="Tracé 188" class="cls-2" d="M142.28,395a3.27,3.27,0,1,1-3.79,2.66h0a3.27,3.27,0,0,1,3.78-2.66Z" transform="translate(-99.57 -205.9)"/><path id="Tracé_189" data-name="Tracé 189" class="cls-2" d="M154.39,397.17a3.27,3.27,0,1,1-3.79,2.66,3.27,3.27,0,0,1,3.79-2.66Z" transform="translate(-99.57 -205.9)"/><path id="Tracé_190" data-name="Tracé 190" class="cls-2" d="M166.5,399.31a3.27,3.27,0,1,1-3.79,2.65h0a3.27,3.27,0,0,1,3.79-2.65Z" transform="translate(-99.57 -205.9)"/><path id="Tracé_191" data-name="Tracé 191" class="cls-2" d="M178.61,401.45a3.27,3.27,0,1,1-3.8,2.65h0a3.27,3.27,0,0,1,3.78-2.66Z" transform="translate(-99.57 -205.9)"/><path id="Tracé_192" data-name="Tracé 192" class="cls-2" d="M190.72,403.58a3.27,3.27,0,1,1-3.8,2.65h0a3.27,3.27,0,0,1,3.78-2.65Z" transform="translate(-99.57 -205.9)"/><path id="Tracé_193" data-name="Tracé 193" class="cls-2" d="M202.82,405.71a3.27,3.27,0,1,1-3.79,2.66h0a3.28,3.28,0,0,1,3.79-2.65Z" transform="translate(-99.57 -205.9)"/><path id="Tracé_194" data-name="Tracé 194" class="cls-2" d="M214.93,407.85a3.27,3.27,0,1,1-3.79,2.65h0a3.28,3.28,0,0,1,3.77-2.66Z" transform="translate(-99.57 -205.9)"/></g><g id="Groupe_134" data-name="Groupe 134"><path id="Tracé_195" data-name="Tracé 195" class="cls-2" d="M102.85,417.64a3.28,3.28,0,1,1-3.28,3.27,3.29,3.29,0,0,1,3.28-3.27Z" transform="translate(-99.57 -205.9)"/><path id="Tracé_196" data-name="Tracé 196" class="cls-2" d="M115.15,417.64a3.28,3.28,0,1,1-3.28,3.27,3.27,3.27,0,0,1,3.28-3.27Z" transform="translate(-99.57 -205.9)"/><path id="Tracé_197" data-name="Tracé 197" class="cls-2" d="M127.44,417.64a3.28,3.28,0,1,1-3.28,3.27,3.28,3.28,0,0,1,3.28-3.27Z" transform="translate(-99.57 -205.9)"/><path id="Tracé_198" data-name="Tracé 198" class="cls-2" d="M139.73,417.64a3.28,3.28,0,1,1-3.27,3.28,3.28,3.28,0,0,1,3.27-3.28Z" transform="translate(-99.57 -205.9)"/><path id="Tracé_199" data-name="Tracé 199" class="cls-2" d="M152,417.64a3.28,3.28,0,1,1-3.28,3.27,3.27,3.27,0,0,1,3.28-3.27Z" transform="translate(-99.57 -205.9)"/><path id="Tracé_200" data-name="Tracé 200" class="cls-2" d="M164.32,417.64a3.28,3.28,0,1,1-3.28,3.28h0a3.27,3.27,0,0,1,3.26-3.28Z" transform="translate(-99.57 -205.9)"/><path id="Tracé_201" data-name="Tracé 201" class="cls-2" d="M176.62,417.64a3.28,3.28,0,1,1-3.28,3.28h0a3.28,3.28,0,0,1,3.27-3.28Z" transform="translate(-99.57 -205.9)"/><path id="Tracé_202" data-name="Tracé 202" class="cls-2" d="M188.91,417.64a3.28,3.28,0,1,1-3.28,3.28,3.27,3.27,0,0,1,3.28-3.28Z" transform="translate(-99.57 -205.9)"/><path id="Tracé_203" data-name="Tracé 203" class="cls-2" d="M201.21,417.64a3.28,3.28,0,1,1-3.28,3.28h0a3.28,3.28,0,0,1,3.26-3.28Z" transform="translate(-99.57 -205.9)"/><path id="Tracé_204" data-name="Tracé 204" class="cls-2" d="M213.5,417.64a3.28,3.28,0,1,1-3.27,3.28h0a3.26,3.26,0,0,1,3.26-3.28Z" transform="translate(-99.57 -205.9)"/></g><g id="Groupe_135" data-name="Groupe 135"><path id="Tracé_205" data-name="Tracé 205" class="cls-2" d="M104.82,446.75a3.27,3.27,0,1,1-2.65,3.79,3.28,3.28,0,0,1,2.65-3.79Z" transform="translate(-99.57 -205.9)"/><path id="Tracé_206" data-name="Tracé 206" class="cls-2" d="M116.93,444.61a3.27,3.27,0,1,1-2.65,3.8,3.28,3.28,0,0,1,2.65-3.8Z" transform="translate(-99.57 -205.9)"/><path id="Tracé_207" data-name="Tracé 207" class="cls-2" d="M129,442.48a3.27,3.27,0,1,1-2.66,3.79h0a3.28,3.28,0,0,1,2.65-3.79Z" transform="translate(-99.57 -205.9)"/><path id="Tracé_208" data-name="Tracé 208" class="cls-2" d="M141.15,440.35a3.27,3.27,0,1,1-2.66,3.78h0A3.27,3.27,0,0,1,141.15,440.35Z" transform="translate(-99.57 -205.9)"/><path id="Tracé_209" data-name="Tracé 209" class="cls-2" d="M153.26,438.21A3.27,3.27,0,1,1,150.6,442a3.27,3.27,0,0,1,2.66-3.79Z" transform="translate(-99.57 -205.9)"/><path id="Tracé_210" data-name="Tracé 210" class="cls-2" d="M165.36,436.08a3.27,3.27,0,1,1-2.65,3.79h0a3.27,3.27,0,0,1,2.66-3.78Z" transform="translate(-99.57 -205.9)"/><path id="Tracé_211" data-name="Tracé 211" class="cls-2" d="M177.47,433.94a3.27,3.27,0,1,1-2.66,3.79,3.28,3.28,0,0,1,2.66-3.79Z" transform="translate(-99.57 -205.9)"/><path id="Tracé_212" data-name="Tracé 212" class="cls-2" d="M189.58,431.81a3.27,3.27,0,1,1-2.66,3.79h0a3.27,3.27,0,0,1,2.64-3.79Z" transform="translate(-99.57 -205.9)"/><path id="Tracé_213" data-name="Tracé 213" class="cls-2" d="M201.69,429.67a3.27,3.27,0,1,1-2.67,3.79,3.27,3.27,0,0,1,2.67-3.79Z" transform="translate(-99.57 -205.9)"/><path id="Tracé_214" data-name="Tracé 214" class="cls-2" d="M213.79,427.54a3.27,3.27,0,1,1-2.65,3.79h0a3.25,3.25,0,0,1,2.65-3.78Z" transform="translate(-99.57 -205.9)"/></g><g id="Groupe_136" data-name="Groupe 136"><path id="Tracé_215" data-name="Tracé 215" class="cls-2" d="M111.82,475.07a3.27,3.27,0,1,1-1.95,4.2h0a3.27,3.27,0,0,1,2-4.18Z" transform="translate(-99.57 -205.9)"/><path id="Tracé_216" data-name="Tracé 216" class="cls-2" d="M123.38,470.87a3.27,3.27,0,1,1-2,4.19h0a3.25,3.25,0,0,1,1.94-4.18Z" transform="translate(-99.57 -205.9)"/><path id="Tracé_217" data-name="Tracé 217" class="cls-2" d="M134.93,466.66a3.27,3.27,0,1,1-2,4.2h0A3.27,3.27,0,0,1,134.93,466.66Z" transform="translate(-99.57 -205.9)"/><path id="Tracé_218" data-name="Tracé 218" class="cls-2" d="M146.48,462.46a3.27,3.27,0,1,1-1.95,4.19h0A3.27,3.27,0,0,1,146.48,462.46Z" transform="translate(-99.57 -205.9)"/><path id="Tracé_219" data-name="Tracé 219" class="cls-2" d="M158,458.25a3.27,3.27,0,1,1-2,4.2A3.27,3.27,0,0,1,158,458.25Z" transform="translate(-99.57 -205.9)"/><path id="Tracé_220" data-name="Tracé 220" class="cls-2" d="M169.59,454.05a3.27,3.27,0,1,1-2,4.19h0A3.27,3.27,0,0,1,169.59,454.05Z" transform="translate(-99.57 -205.9)"/><path id="Tracé_221" data-name="Tracé 221" class="cls-2" d="M181.14,449.84a3.27,3.27,0,1,1-2,4.19h0a3.26,3.26,0,0,1,2-4.18Z" transform="translate(-99.57 -205.9)"/><path id="Tracé_222" data-name="Tracé 222" class="cls-2" d="M192.69,445.64a3.27,3.27,0,1,1-1.95,4.2h0A3.28,3.28,0,0,1,192.69,445.64Z" transform="translate(-99.57 -205.9)"/><path id="Tracé_223" data-name="Tracé 223" class="cls-2" d="M204.25,441.43a3.27,3.27,0,1,1-2,4.19h0A3.27,3.27,0,0,1,204.25,441.43Z" transform="translate(-99.57 -205.9)"/><path id="Tracé_224" data-name="Tracé 224" class="cls-2" d="M215.8,437.23a3.27,3.27,0,1,1-2,4.19h0A3.27,3.27,0,0,1,215.8,437.23Z" transform="translate(-99.57 -205.9)"/></g><g id="Groupe_137" data-name="Groupe 137"><path id="Tracé_225" data-name="Tracé 225" class="cls-2" d="M123.63,501.75a3.28,3.28,0,1,1-1.19,4.47h0A3.28,3.28,0,0,1,123.63,501.75Z" transform="translate(-99.57 -205.9)"/><path id="Tracé_226" data-name="Tracé 226" class="cls-2" d="M134.28,495.6a3.28,3.28,0,1,1-1.19,4.47h0A3.27,3.27,0,0,1,134.28,495.6Z" transform="translate(-99.57 -205.9)"/><path id="Tracé_227" data-name="Tracé 227" class="cls-2" d="M144.93,489.45a3.27,3.27,0,1,1-1.2,4.47h0a3.27,3.27,0,0,1,1.19-4.46Z" transform="translate(-99.57 -205.9)"/><path id="Tracé_228" data-name="Tracé 228" class="cls-2" d="M155.57,483.31a3.27,3.27,0,1,1-1.19,4.47h0a3.27,3.27,0,0,1,1.18-4.47Z" transform="translate(-99.57 -205.9)"/><path id="Tracé_229" data-name="Tracé 229" class="cls-2" d="M166.22,477.16a3.28,3.28,0,1,1-1.19,4.47h0A3.28,3.28,0,0,1,166.22,477.16Z" transform="translate(-99.57 -205.9)"/><path id="Tracé_230" data-name="Tracé 230" class="cls-2" d="M176.87,471a3.27,3.27,0,1,1-1.2,4.47h0a3.27,3.27,0,0,1,1.19-4.46Z" transform="translate(-99.57 -205.9)"/><path id="Tracé_231" data-name="Tracé 231" class="cls-2" d="M187.52,464.87a3.27,3.27,0,1,1-1.2,4.47h0a3.27,3.27,0,0,1,1.19-4.46Z" transform="translate(-99.57 -205.9)"/><path id="Tracé_232" data-name="Tracé 232" class="cls-2" d="M198.17,458.72a3.27,3.27,0,1,1-1.2,4.47,3.27,3.27,0,0,1,1.2-4.47Z" transform="translate(-99.57 -205.9)"/><path id="Tracé_233" data-name="Tracé 233" class="cls-2" d="M208.81,452.57a3.27,3.27,0,1,1-1.2,4.47A3.27,3.27,0,0,1,208.81,452.57Z" transform="translate(-99.57 -205.9)"/><path id="Tracé_234" data-name="Tracé 234" class="cls-2" d="M219.47,446.42a3.27,3.27,0,1,1-1.2,4.47h0a3.27,3.27,0,0,1,1.19-4.47Z" transform="translate(-99.57 -205.9)"/></g><g id="Groupe_138" data-name="Groupe 138"><path id="Tracé_235" data-name="Tracé 235" class="cls-2" d="M139.89,526a3.27,3.27,0,1,1-.4,4.61h0A3.28,3.28,0,0,1,139.89,526Z" transform="translate(-99.57 -205.9)"/><path id="Tracé_236" data-name="Tracé 236" class="cls-2" d="M149.31,518.07a3.27,3.27,0,1,1-.4,4.61,3.27,3.27,0,0,1,.4-4.61Z" transform="translate(-99.57 -205.9)"/><path id="Tracé_237" data-name="Tracé 237" class="cls-2" d="M158.73,510.16a3.27,3.27,0,1,1-.4,4.61h0A3.29,3.29,0,0,1,158.73,510.16Z" transform="translate(-99.57 -205.9)"/><path id="Tracé_238" data-name="Tracé 238" class="cls-2" d="M168.15,502.26a3.27,3.27,0,1,1-.4,4.61h0a3.27,3.27,0,0,1,.4-4.61Z" transform="translate(-99.57 -205.9)"/><path id="Tracé_239" data-name="Tracé 239" class="cls-2" d="M177.57,494.36a3.27,3.27,0,1,1-.4,4.61,3.26,3.26,0,0,1,.4-4.61Z" transform="translate(-99.57 -205.9)"/><path id="Tracé_240" data-name="Tracé 240" class="cls-2" d="M187,486.46a3.27,3.27,0,1,1-.4,4.61A3.28,3.28,0,0,1,187,486.46Z" transform="translate(-99.57 -205.9)"/><path id="Tracé_241" data-name="Tracé 241" class="cls-2" d="M196.4,478.55a3.28,3.28,0,1,1-.4,4.61,3.27,3.27,0,0,1,.4-4.61Z" transform="translate(-99.57 -205.9)"/><path id="Tracé_242" data-name="Tracé 242" class="cls-2" d="M205.82,470.65a3.28,3.28,0,1,1-.4,4.61,3.27,3.27,0,0,1,.4-4.61Z" transform="translate(-99.57 -205.9)"/><path id="Tracé_243" data-name="Tracé 243" class="cls-2" d="M215.24,462.75a3.27,3.27,0,1,1-.4,4.61,3.28,3.28,0,0,1,.4-4.61Z" transform="translate(-99.57 -205.9)"/><path id="Tracé_244" data-name="Tracé 244" class="cls-2" d="M224.66,454.84a3.28,3.28,0,1,1-.4,4.61,3.27,3.27,0,0,1,.4-4.61Z" transform="translate(-99.57 -205.9)"/></g><g id="Groupe_139" data-name="Groupe 139"><path id="Tracé_245" data-name="Tracé 245" class="cls-2" d="M160.12,547a3.27,3.27,0,1,1,.4,4.61h0a3.27,3.27,0,0,1-.41-4.6Z" transform="translate(-99.57 -205.9)"/><path id="Tracé_246" data-name="Tracé 246" class="cls-2" d="M168,537.58a3.27,3.27,0,1,1,.4,4.61h0A3.28,3.28,0,0,1,168,537.58Z" transform="translate(-99.57 -205.9)"/><path id="Tracé_247" data-name="Tracé 247" class="cls-2" d="M175.92,528.16a3.27,3.27,0,1,1,.4,4.61A3.28,3.28,0,0,1,175.92,528.16Z" transform="translate(-99.57 -205.9)"/><path id="Tracé_248" data-name="Tracé 248" class="cls-2" d="M183.82,518.75a3.27,3.27,0,1,1,.41,4.61h0A3.27,3.27,0,0,1,183.82,518.75Z" transform="translate(-99.57 -205.9)"/><path id="Tracé_249" data-name="Tracé 249" class="cls-2" d="M191.73,509.33a3.27,3.27,0,1,1,.4,4.61,3.27,3.27,0,0,1-.4-4.61Z" transform="translate(-99.57 -205.9)"/><path id="Tracé_250" data-name="Tracé 250" class="cls-2" d="M199.63,499.91a3.27,3.27,0,1,1,.4,4.61h0A3.28,3.28,0,0,1,199.63,499.91Z" transform="translate(-99.57 -205.9)"/><path id="Tracé_251" data-name="Tracé 251" class="cls-2" d="M207.53,490.49a3.27,3.27,0,1,1,.41,4.61,3.27,3.27,0,0,1-.41-4.61Z" transform="translate(-99.57 -205.9)"/><path id="Tracé_252" data-name="Tracé 252" class="cls-2" d="M215.44,481.07a3.27,3.27,0,1,1,.4,4.61A3.27,3.27,0,0,1,215.44,481.07Z" transform="translate(-99.57 -205.9)"/><path id="Tracé_253" data-name="Tracé 253" class="cls-2" d="M223.34,471.65a3.27,3.27,0,1,1,.4,4.62,3.27,3.27,0,0,1-.4-4.62Z" transform="translate(-99.57 -205.9)"/><path id="Tracé_254" data-name="Tracé 254" class="cls-2" d="M231.24,462.23a3.27,3.27,0,1,1,.41,4.61,3.27,3.27,0,0,1-.41-4.61Z" transform="translate(-99.57 -205.9)"/></g><g id="Groupe_140" data-name="Groupe 140"><path id="Tracé_255" data-name="Tracé 255" class="cls-2" d="M183.68,564.19a3.28,3.28,0,1,1,1.2,4.48h0a3.26,3.26,0,0,1-1.21-4.46Z" transform="translate(-99.57 -205.9)"/><path id="Tracé_256" data-name="Tracé 256" class="cls-2" d="M189.83,553.55A3.27,3.27,0,1,1,191,558h0a3.26,3.26,0,0,1-1.21-4.46Z" transform="translate(-99.57 -205.9)"/><path id="Tracé_257" data-name="Tracé 257" class="cls-2" d="M196,542.9a3.28,3.28,0,1,1,1.19,4.47h0a3.27,3.27,0,0,1-1.2-4.46Z" transform="translate(-99.57 -205.9)"/><path id="Tracé_258" data-name="Tracé 258" class="cls-2" d="M202.13,532.25a3.27,3.27,0,1,1,1.19,4.48,3.28,3.28,0,0,1-1.19-4.48Z" transform="translate(-99.57 -205.9)"/><path id="Tracé_259" data-name="Tracé 259" class="cls-2" d="M208.27,521.6a3.28,3.28,0,1,1,1.2,4.48,3.28,3.28,0,0,1-1.2-4.48Z" transform="translate(-99.57 -205.9)"/><path id="Tracé_260" data-name="Tracé 260" class="cls-2" d="M214.42,511a3.28,3.28,0,1,1,1.2,4.47,3.27,3.27,0,0,1-1.2-4.47Z" transform="translate(-99.57 -205.9)"/><path id="Tracé_261" data-name="Tracé 261" class="cls-2" d="M220.57,500.31a3.27,3.27,0,1,1,1.2,4.48,3.27,3.27,0,0,1-1.2-4.48Z" transform="translate(-99.57 -205.9)"/><path id="Tracé_262" data-name="Tracé 262" class="cls-2" d="M226.71,489.67a3.27,3.27,0,1,1,1.2,4.47,3.27,3.27,0,0,1-1.2-4.47Z" transform="translate(-99.57 -205.9)"/><path id="Tracé_263" data-name="Tracé 263" class="cls-2" d="M232.86,479a3.27,3.27,0,1,1,1.2,4.47,3.27,3.27,0,0,1-1.2-4.47Z" transform="translate(-99.57 -205.9)"/><path id="Tracé_264" data-name="Tracé 264" class="cls-2" d="M239,468.37a3.27,3.27,0,1,1,1.2,4.47,3.27,3.27,0,0,1-1.2-4.47Z" transform="translate(-99.57 -205.9)"/></g><g id="Groupe_141" data-name="Groupe 141"><path id="Tracé_265" data-name="Tracé 265" class="cls-2" d="M209.88,577a3.27,3.27,0,1,1,2,4.2,3.27,3.27,0,0,1-2-4.2Z" transform="translate(-99.57 -205.9)"/><path id="Tracé_266" data-name="Tracé 266" class="cls-2" d="M214.08,565.49a3.27,3.27,0,1,1,2,4.19,3.27,3.27,0,0,1-2-4.19Z" transform="translate(-99.57 -205.9)"/><path id="Tracé_267" data-name="Tracé 267" class="cls-2" d="M218.29,553.93a3.27,3.27,0,1,1,2,4.2,3.27,3.27,0,0,1-2-4.2Z" transform="translate(-99.57 -205.9)"/><path id="Tracé_268" data-name="Tracé 268" class="cls-2" d="M222.49,542.38a3.27,3.27,0,1,1,2,4.2,3.27,3.27,0,0,1-2-4.2Z" transform="translate(-99.57 -205.9)"/><path id="Tracé_269" data-name="Tracé 269" class="cls-2" d="M226.7,530.83a3.27,3.27,0,1,1,2,4.2,3.28,3.28,0,0,1-2-4.2Z" transform="translate(-99.57 -205.9)"/><path id="Tracé_270" data-name="Tracé 270" class="cls-2" d="M230.91,519.27a3.27,3.27,0,1,1,2,4.2,3.27,3.27,0,0,1-2-4.2Z" transform="translate(-99.57 -205.9)"/><path id="Tracé_271" data-name="Tracé 271" class="cls-2" d="M235.11,507.73a3.27,3.27,0,1,1,2,4.19h0a3.25,3.25,0,0,1-2-4.18Z" transform="translate(-99.57 -205.9)"/><path id="Tracé_272" data-name="Tracé 272" class="cls-2" d="M239.32,496.17a3.27,3.27,0,1,1,2,4.2,3.27,3.27,0,0,1-2-4.2Z" transform="translate(-99.57 -205.9)"/><path id="Tracé_273" data-name="Tracé 273" class="cls-2" d="M243.52,484.62a3.27,3.27,0,1,1,2,4.19,3.27,3.27,0,0,1-2-4.19Z" transform="translate(-99.57 -205.9)"/><path id="Tracé_274" data-name="Tracé 274" class="cls-2" d="M247.72,473.06a3.27,3.27,0,1,1,2,4.2,3.27,3.27,0,0,1-2-4.2Z" transform="translate(-99.57 -205.9)"/></g><g id="Groupe_142" data-name="Groupe 142"><path id="Tracé_275" data-name="Tracé 275" class="cls-2" d="M237.91,585.14a3.27,3.27,0,1,1,2.64,3.79,3.27,3.27,0,0,1-2.64-3.79Z" transform="translate(-99.57 -205.9)"/><path id="Tracé_276" data-name="Tracé 276" class="cls-2" d="M240,573a3.27,3.27,0,1,1,2.65,3.79A3.27,3.27,0,0,1,240,573Z" transform="translate(-99.57 -205.9)"/><path id="Tracé_277" data-name="Tracé 277" class="cls-2" d="M242.18,560.92a3.27,3.27,0,1,1,2.65,3.8,3.27,3.27,0,0,1-2.65-3.8Z" transform="translate(-99.57 -205.9)"/><path id="Tracé_278" data-name="Tracé 278" class="cls-2" d="M244.31,548.82a3.27,3.27,0,1,1,2.66,3.79,3.27,3.27,0,0,1-2.66-3.79Z" transform="translate(-99.57 -205.9)"/><path id="Tracé_279" data-name="Tracé 279" class="cls-2" d="M246.45,536.71a3.27,3.27,0,1,1,2.65,3.79,3.26,3.26,0,0,1-2.65-3.79Z" transform="translate(-99.57 -205.9)"/><path id="Tracé_280" data-name="Tracé 280" class="cls-2" d="M248.58,524.6a3.27,3.27,0,1,1,2.65,3.79,3.28,3.28,0,0,1-2.65-3.79Z" transform="translate(-99.57 -205.9)"/><path id="Tracé_281" data-name="Tracé 281" class="cls-2" d="M250.72,512.5a3.27,3.27,0,1,1,2.65,3.79h0a3.27,3.27,0,0,1-2.66-3.78Z" transform="translate(-99.57 -205.9)"/><path id="Tracé_282" data-name="Tracé 282" class="cls-2" d="M252.85,500.39a3.27,3.27,0,1,1,2.66,3.79,3.28,3.28,0,0,1-2.66-3.79Z" transform="translate(-99.57 -205.9)"/><path id="Tracé_283" data-name="Tracé 283" class="cls-2" d="M255,488.28a3.27,3.27,0,1,1,2.66,3.79,3.26,3.26,0,0,1-2.66-3.79Z" transform="translate(-99.57 -205.9)"/><path id="Tracé_284" data-name="Tracé 284" class="cls-2" d="M257.12,476.17a3.27,3.27,0,1,1,2.66,3.79,3.26,3.26,0,0,1-2.66-3.79Z" transform="translate(-99.57 -205.9)"/></g><g id="Groupe_143" data-name="Groupe 143"><path id="Tracé_285" data-name="Tracé 285" class="cls-2" d="M266.91,588.25a3.28,3.28,0,1,1,3.27,3.28,3.27,3.27,0,0,1-3.27-3.28Z" transform="translate(-99.57 -205.9)"/><path id="Tracé_286" data-name="Tracé 286" class="cls-2" d="M266.91,576a3.28,3.28,0,1,1,3.27,3.28,3.28,3.28,0,0,1-3.27-3.28Z" transform="translate(-99.57 -205.9)"/><path id="Tracé_287" data-name="Tracé 287" class="cls-2" d="M266.91,563.66a3.28,3.28,0,1,1,3.27,3.28,3.28,3.28,0,0,1-3.27-3.28Z" transform="translate(-99.57 -205.9)"/><path id="Tracé_288" data-name="Tracé 288" class="cls-2" d="M266.91,551.37a3.28,3.28,0,1,1,3.27,3.27,3.28,3.28,0,0,1-3.27-3.27Z" transform="translate(-99.57 -205.9)"/><path id="Tracé_289" data-name="Tracé 289" class="cls-2" d="M266.91,539.07a3.28,3.28,0,1,1,3.28,3.28,3.27,3.27,0,0,1-3.28-3.28Z" transform="translate(-99.57 -205.9)"/><path id="Tracé_290" data-name="Tracé 290" class="cls-2" d="M266.91,526.78a3.28,3.28,0,1,1,3.28,3.28,3.28,3.28,0,0,1-3.28-3.28Z" transform="translate(-99.57 -205.9)"/><path id="Tracé_291" data-name="Tracé 291" class="cls-2" d="M266.91,514.49a3.28,3.28,0,1,1,3.28,3.27h0a3.26,3.26,0,0,1-3.28-3.25Z" transform="translate(-99.57 -205.9)"/><path id="Tracé_292" data-name="Tracé 292" class="cls-2" d="M266.91,502.19a3.28,3.28,0,1,1,3.28,3.27h0A3.28,3.28,0,0,1,266.91,502.19Z" transform="translate(-99.57 -205.9)"/><path id="Tracé_293" data-name="Tracé 293" class="cls-2" d="M266.91,489.9a3.28,3.28,0,1,1,3.28,3.27h0A3.29,3.29,0,0,1,266.91,489.9Z" transform="translate(-99.57 -205.9)"/><path id="Tracé_294" data-name="Tracé 294" class="cls-2" d="M266.91,477.6a3.28,3.28,0,1,1,3.28,3.27h0a3.28,3.28,0,0,1-3.28-3.26Z" transform="translate(-99.57 -205.9)"/></g><g id="Groupe_144" data-name="Groupe 144"><path id="Tracé_295" data-name="Tracé 295" class="cls-2" d="M296,586.28a3.27,3.27,0,1,1,3.79,2.65,3.25,3.25,0,0,1-3.78-2.62Z" transform="translate(-99.57 -205.9)"/><path id="Tracé_296" data-name="Tracé 296" class="cls-2" d="M293.89,574.17a3.27,3.27,0,1,1,3.79,2.66,3.27,3.27,0,0,1-3.79-2.66Z" transform="translate(-99.57 -205.9)"/><path id="Tracé_297" data-name="Tracé 297" class="cls-2" d="M291.75,562.06a3.27,3.27,0,1,1,3.79,2.66,3.27,3.27,0,0,1-3.79-2.66Z" transform="translate(-99.57 -205.9)"/><path id="Tracé_298" data-name="Tracé 298" class="cls-2" d="M289.62,550a3.27,3.27,0,1,1,3.79,2.66h0a3.27,3.27,0,0,1-3.79-2.64Z" transform="translate(-99.57 -205.9)"/><path id="Tracé_299" data-name="Tracé 299" class="cls-2" d="M287.49,537.85a3.27,3.27,0,1,1,3.78,2.65,3.28,3.28,0,0,1-3.78-2.65Z" transform="translate(-99.57 -205.9)"/><path id="Tracé_300" data-name="Tracé 300" class="cls-2" d="M285.35,525.74a3.27,3.27,0,1,1,3.79,2.65h0a3.26,3.26,0,0,1-3.79-2.64Z" transform="translate(-99.57 -205.9)"/><path id="Tracé_301" data-name="Tracé 301" class="cls-2" d="M283.22,513.63a3.27,3.27,0,1,1,3.79,2.66,3.27,3.27,0,0,1-3.79-2.66Z" transform="translate(-99.57 -205.9)"/><path id="Tracé_302" data-name="Tracé 302" class="cls-2" d="M281.08,501.52a3.27,3.27,0,1,1,3.79,2.65,3.28,3.28,0,0,1-3.79-2.65Z" transform="translate(-99.57 -205.9)"/><path id="Tracé_303" data-name="Tracé 303" class="cls-2" d="M278.94,489.41a3.27,3.27,0,1,1,3.79,2.66,3.28,3.28,0,0,1-3.79-2.66Z" transform="translate(-99.57 -205.9)"/><path id="Tracé_304" data-name="Tracé 304" class="cls-2" d="M276.81,477.31a3.28,3.28,0,1,1,3.8,2.65h0A3.27,3.27,0,0,1,276.81,477.31Z" transform="translate(-99.57 -205.9)"/></g><g id="Groupe_145" data-name="Groupe 145"><path id="Tracé_305" data-name="Tracé 305" class="cls-2" d="M324.35,579.28a3.27,3.27,0,1,1,4.19,2,3.28,3.28,0,0,1-4.19-2Z" transform="translate(-99.57 -205.9)"/><path id="Tracé_306" data-name="Tracé 306" class="cls-2" d="M320.14,567.72a3.27,3.27,0,1,1,4.19,2,3.27,3.27,0,0,1-4.19-2Z" transform="translate(-99.57 -205.9)"/><path id="Tracé_307" data-name="Tracé 307" class="cls-2" d="M315.94,556.17a3.27,3.27,0,1,1,4.19,2,3.27,3.27,0,0,1-4.19-2Z" transform="translate(-99.57 -205.9)"/><path id="Tracé_308" data-name="Tracé 308" class="cls-2" d="M311.73,544.62a3.27,3.27,0,1,1,4.19,2h0A3.28,3.28,0,0,1,311.73,544.62Z" transform="translate(-99.57 -205.9)"/><path id="Tracé_309" data-name="Tracé 309" class="cls-2" d="M307.52,533.06a3.27,3.27,0,1,1,4.19,2h0A3.27,3.27,0,0,1,307.52,533.06Z" transform="translate(-99.57 -205.9)"/><path id="Tracé_310" data-name="Tracé 310" class="cls-2" d="M303.32,521.51a3.27,3.27,0,1,1,4.19,2h0a3.26,3.26,0,0,1-4.19-2Z" transform="translate(-99.57 -205.9)"/><path id="Tracé_311" data-name="Tracé 311" class="cls-2" d="M299.12,510a3.27,3.27,0,1,1,4.19,2h0a3.26,3.26,0,0,1-4.18-1.95Z" transform="translate(-99.57 -205.9)"/><path id="Tracé_312" data-name="Tracé 312" class="cls-2" d="M294.91,498.41a3.27,3.27,0,1,1,4.19,1.95h0A3.28,3.28,0,0,1,294.91,498.41Z" transform="translate(-99.57 -205.9)"/><path id="Tracé_313" data-name="Tracé 313" class="cls-2" d="M290.7,486.85a3.27,3.27,0,1,1,4.2,1.95h0A3.28,3.28,0,0,1,290.7,486.85Z" transform="translate(-99.57 -205.9)"/><path id="Tracé_314" data-name="Tracé 314" class="cls-2" d="M286.5,475.3a3.27,3.27,0,1,1,4.2,1.95h0a3.28,3.28,0,0,1-4.19-1.95Z" transform="translate(-99.57 -205.9)"/></g><g id="Groupe_146" data-name="Groupe 146"><path id="Tracé_315" data-name="Tracé 315" class="cls-2" d="M351,567.47a3.27,3.27,0,1,1,4.48,1.2,3.26,3.26,0,0,1-4.48-1.2Z" transform="translate(-99.57 -205.9)"/><path id="Tracé_316" data-name="Tracé 316" class="cls-2" d="M344.88,556.83a3.27,3.27,0,1,1,4.47,1.19,3.28,3.28,0,0,1-4.47-1.19Z" transform="translate(-99.57 -205.9)"/><path id="Tracé_317" data-name="Tracé 317" class="cls-2" d="M338.73,546.17a3.27,3.27,0,1,1,4.47,1.2,3.27,3.27,0,0,1-4.47-1.2Z" transform="translate(-99.57 -205.9)"/><path id="Tracé_318" data-name="Tracé 318" class="cls-2" d="M332.58,535.53a3.27,3.27,0,1,1,4.47,1.2,3.26,3.26,0,0,1-4.47-1.2Z" transform="translate(-99.57 -205.9)"/><path id="Tracé_319" data-name="Tracé 319" class="cls-2" d="M326.44,524.88a3.27,3.27,0,1,1,4.46,1.2,3.27,3.27,0,0,1-4.46-1.2Z" transform="translate(-99.57 -205.9)"/><path id="Tracé_320" data-name="Tracé 320" class="cls-2" d="M320.29,514.23a3.27,3.27,0,1,1,4.47,1.2,3.27,3.27,0,0,1-4.47-1.2Z" transform="translate(-99.57 -205.9)"/><path id="Tracé_321" data-name="Tracé 321" class="cls-2" d="M314.14,503.58a3.27,3.27,0,1,1,4.47,1.2,3.27,3.27,0,0,1-4.47-1.2Z" transform="translate(-99.57 -205.9)"/><path id="Tracé_322" data-name="Tracé 322" class="cls-2" d="M308,492.93a3.27,3.27,0,1,1,4.48,1.2,3.28,3.28,0,0,1-4.48-1.2Z" transform="translate(-99.57 -205.9)"/><path id="Tracé_323" data-name="Tracé 323" class="cls-2" d="M301.85,482.29a3.27,3.27,0,1,1,4.47,1.2h0A3.27,3.27,0,0,1,301.85,482.29Z" transform="translate(-99.57 -205.9)"/><path id="Tracé_324" data-name="Tracé 324" class="cls-2" d="M295.7,471.64a3.27,3.27,0,1,1,4.47,1.2h0a3.27,3.27,0,0,1-4.47-1.2Z" transform="translate(-99.57 -205.9)"/></g><g id="Groupe_147" data-name="Groupe 147"><path id="Tracé_325" data-name="Tracé 325" class="cls-2" d="M375.25,551.21a3.27,3.27,0,1,1,4.61.4,3.26,3.26,0,0,1-4.61-.4Z" transform="translate(-99.57 -205.9)"/><path id="Tracé_326" data-name="Tracé 326" class="cls-2" d="M367.34,541.78a3.27,3.27,0,1,1,4.61.41,3.27,3.27,0,0,1-4.61-.41Z" transform="translate(-99.57 -205.9)"/><path id="Tracé_327" data-name="Tracé 327" class="cls-2" d="M359.44,532.37a3.27,3.27,0,1,1,4.62.4,3.26,3.26,0,0,1-4.62-.4Z" transform="translate(-99.57 -205.9)"/><path id="Tracé_328" data-name="Tracé 328" class="cls-2" d="M351.54,523a3.27,3.27,0,1,1,4.61.41h0A3.29,3.29,0,0,1,351.54,523Z" transform="translate(-99.57 -205.9)"/><path id="Tracé_329" data-name="Tracé 329" class="cls-2" d="M343.63,513.53a3.27,3.27,0,1,1,4.62.41,3.28,3.28,0,0,1-4.62-.41Z" transform="translate(-99.57 -205.9)"/><path id="Tracé_330" data-name="Tracé 330" class="cls-2" d="M335.73,504.11a3.27,3.27,0,1,1,4.61.41,3.27,3.27,0,0,1-4.61-.41Z" transform="translate(-99.57 -205.9)"/><path id="Tracé_331" data-name="Tracé 331" class="cls-2" d="M327.83,494.69a3.27,3.27,0,1,1,4.61.41,3.27,3.27,0,0,1-4.61-.41Z" transform="translate(-99.57 -205.9)"/><path id="Tracé_332" data-name="Tracé 332" class="cls-2" d="M319.93,485.27a3.27,3.27,0,1,1,4.61.41h0A3.27,3.27,0,0,1,319.93,485.27Z" transform="translate(-99.57 -205.9)"/><path id="Tracé_333" data-name="Tracé 333" class="cls-2" d="M312,475.86a3.27,3.27,0,1,1,4.62.4,3.28,3.28,0,0,1-4.62-.4Z" transform="translate(-99.57 -205.9)"/><path id="Tracé_334" data-name="Tracé 334" class="cls-2" d="M304.12,466.44a3.28,3.28,0,1,1,4.61.4h0a3.26,3.26,0,0,1-4.6-.41Z" transform="translate(-99.57 -205.9)"/></g><g id="Groupe_148" data-name="Groupe 148"><path id="Tracé_335" data-name="Tracé 335" class="cls-2" d="M396.27,531a3.27,3.27,0,1,1,4.62-.39,3.25,3.25,0,0,1-4.62.39Z" transform="translate(-99.57 -205.9)"/><path id="Tracé_336" data-name="Tracé 336" class="cls-2" d="M386.85,523.08a3.27,3.27,0,1,1,4.62-.4,3.26,3.26,0,0,1-4.62.4Z" transform="translate(-99.57 -205.9)"/><path id="Tracé_337" data-name="Tracé 337" class="cls-2" d="M377.44,515.18a3.27,3.27,0,1,1,4.61-.4,3.28,3.28,0,0,1-4.61.4Z" transform="translate(-99.57 -205.9)"/><path id="Tracé_338" data-name="Tracé 338" class="cls-2" d="M368,507.27a3.27,3.27,0,1,1,4.62-.4,3.26,3.26,0,0,1-4.62.4Z" transform="translate(-99.57 -205.9)"/><path id="Tracé_339" data-name="Tracé 339" class="cls-2" d="M358.6,499.37a3.27,3.27,0,1,1,4.61-.4,3.28,3.28,0,0,1-4.61.4Z" transform="translate(-99.57 -205.9)"/><path id="Tracé_340" data-name="Tracé 340" class="cls-2" d="M349.18,491.47a3.27,3.27,0,1,1,4.62-.4,3.28,3.28,0,0,1-4.62.4Z" transform="translate(-99.57 -205.9)"/><path id="Tracé_341" data-name="Tracé 341" class="cls-2" d="M339.77,483.56a3.27,3.27,0,1,1,4.61-.39,3.27,3.27,0,0,1-4.61.39Z" transform="translate(-99.57 -205.9)"/><path id="Tracé_342" data-name="Tracé 342" class="cls-2" d="M330.35,475.66a3.27,3.27,0,1,1,4.61-.4A3.28,3.28,0,0,1,330.35,475.66Z" transform="translate(-99.57 -205.9)"/><path id="Tracé_343" data-name="Tracé 343" class="cls-2" d="M320.93,467.76a3.27,3.27,0,1,1,4.62-.4,3.27,3.27,0,0,1-4.62.4Z" transform="translate(-99.57 -205.9)"/><path id="Tracé_344" data-name="Tracé 344" class="cls-2" d="M311.51,459.86a3.28,3.28,0,1,1,4.61-.41h0a3.26,3.26,0,0,1-4.6.41Z" transform="translate(-99.57 -205.9)"/></g><g id="Groupe_149" data-name="Groupe 149"><path id="Tracé_345" data-name="Tracé 345" class="cls-2" d="M413.47,507.42a3.27,3.27,0,1,1,4.48-1.19,3.27,3.27,0,0,1-4.48,1.19Z" transform="translate(-99.57 -205.9)"/><path id="Tracé_346" data-name="Tracé 346" class="cls-2" d="M402.82,501.27a3.27,3.27,0,1,1,4.48-1.19,3.27,3.27,0,0,1-4.48,1.19Z" transform="translate(-99.57 -205.9)"/><path id="Tracé_347" data-name="Tracé 347" class="cls-2" d="M392.18,495.12a3.27,3.27,0,1,1,4.47-1.19,3.28,3.28,0,0,1-4.47,1.19Z" transform="translate(-99.57 -205.9)"/><path id="Tracé_348" data-name="Tracé 348" class="cls-2" d="M381.53,489a3.27,3.27,0,1,1,4.48-1.2,3.29,3.29,0,0,1-4.48,1.2Z" transform="translate(-99.57 -205.9)"/><path id="Tracé_349" data-name="Tracé 349" class="cls-2" d="M370.88,482.83a3.27,3.27,0,1,1,4.48-1.2,3.28,3.28,0,0,1-4.48,1.2Z" transform="translate(-99.57 -205.9)"/><path id="Tracé_350" data-name="Tracé 350" class="cls-2" d="M360.24,476.68a3.27,3.27,0,1,1,4.47-1.19,3.28,3.28,0,0,1-4.47,1.19Z" transform="translate(-99.57 -205.9)"/><path id="Tracé_351" data-name="Tracé 351" class="cls-2" d="M349.59,470.53a3.27,3.27,0,1,1,4.47-1.19,3.28,3.28,0,0,1-4.47,1.19Z" transform="translate(-99.57 -205.9)"/><path id="Tracé_352" data-name="Tracé 352" class="cls-2" d="M338.94,464.38a3.27,3.27,0,1,1,4.47-1.19,3.28,3.28,0,0,1-4.47,1.19Z" transform="translate(-99.57 -205.9)"/><path id="Tracé_353" data-name="Tracé 353" class="cls-2" d="M328.29,458.23a3.27,3.27,0,1,1,4.48-1.19,3.28,3.28,0,0,1-4.48,1.19Z" transform="translate(-99.57 -205.9)"/><path id="Tracé_354" data-name="Tracé 354" class="cls-2" d="M317.65,452.09a3.27,3.27,0,1,1,4.47-1.2,3.27,3.27,0,0,1-4.47,1.2Z" transform="translate(-99.57 -205.9)"/></g><g id="Groupe_150" data-name="Groupe 150"><path id="Tracé_355" data-name="Tracé 355" class="cls-2" d="M426.32,481.22a3.26,3.26,0,1,1,4.2-2,3.26,3.26,0,0,1-4.2,2Z" transform="translate(-99.57 -205.9)"/><path id="Tracé_356" data-name="Tracé 356" class="cls-2" d="M414.76,477a3.27,3.27,0,1,1,4.21-2,3.28,3.28,0,0,1-4.21,2Z" transform="translate(-99.57 -205.9)"/><path id="Tracé_357" data-name="Tracé 357" class="cls-2" d="M403.21,472.81a3.27,3.27,0,1,1,4.21-1.95,3.28,3.28,0,0,1-4.21,1.95Z" transform="translate(-99.57 -205.9)"/><path id="Tracé_358" data-name="Tracé 358" class="cls-2" d="M391.66,468.61a3.27,3.27,0,1,1,4.19-2,3.28,3.28,0,0,1-4.19,2Z" transform="translate(-99.57 -205.9)"/><path id="Tracé_359" data-name="Tracé 359" class="cls-2" d="M380.11,464.4a3.27,3.27,0,1,1,4.19-1.95,3.27,3.27,0,0,1-4.19,1.95Z" transform="translate(-99.57 -205.9)"/><path id="Tracé_360" data-name="Tracé 360" class="cls-2" d="M368.56,460.2a3.27,3.27,0,1,1,4.19-2,3.28,3.28,0,0,1-4.19,2Z" transform="translate(-99.57 -205.9)"/><path id="Tracé_361" data-name="Tracé 361" class="cls-2" d="M357,456a3.27,3.27,0,1,1,4.2-1.95A3.28,3.28,0,0,1,357,456Z" transform="translate(-99.57 -205.9)"/><path id="Tracé_362" data-name="Tracé 362" class="cls-2" d="M345.45,451.78a3.27,3.27,0,1,1,4.19-1.95,3.27,3.27,0,0,1-4.19,1.95Z" transform="translate(-99.57 -205.9)"/><path id="Tracé_363" data-name="Tracé 363" class="cls-2" d="M333.9,447.57a3.27,3.27,0,1,1,4.19-1.95h0a3.26,3.26,0,0,1-4.18,2Z" transform="translate(-99.57 -205.9)"/><path id="Tracé_364" data-name="Tracé 364" class="cls-2" d="M322.34,443.37a3.27,3.27,0,0,1,2.24-6.15,3.3,3.3,0,0,1,1.95,4.19,3.27,3.27,0,0,1-4.18,2Z" transform="translate(-99.57 -205.9)"/></g><g id="Groupe_151" data-name="Groupe 151"><path id="Tracé_365" data-name="Tracé 365" class="cls-2" d="M434.41,453.19a3.27,3.27,0,1,1,3.8-2.65,3.27,3.27,0,0,1-3.8,2.65Z" transform="translate(-99.57 -205.9)"/><path id="Tracé_366" data-name="Tracé 366" class="cls-2" d="M422.31,451.06a3.27,3.27,0,1,1,3.79-2.65,3.27,3.27,0,0,1-3.79,2.65Z" transform="translate(-99.57 -205.9)"/><path id="Tracé_367" data-name="Tracé 367" class="cls-2" d="M410.2,448.92a3.27,3.27,0,1,1,3.8-2.65,3.27,3.27,0,0,1-3.8,2.65Z" transform="translate(-99.57 -205.9)"/><path id="Tracé_368" data-name="Tracé 368" class="cls-2" d="M398.09,446.79a3.27,3.27,0,1,1,3.8-2.66,3.27,3.27,0,0,1-3.8,2.66Z" transform="translate(-99.57 -205.9)"/><path id="Tracé_369" data-name="Tracé 369" class="cls-2" d="M386,444.65a3.27,3.27,0,1,1,3.8-2.65,3.25,3.25,0,0,1-3.8,2.65Z" transform="translate(-99.57 -205.9)"/><path id="Tracé_370" data-name="Tracé 370" class="cls-2" d="M373.88,442.52a3.27,3.27,0,1,1,3.79-2.65,3.26,3.26,0,0,1-3.79,2.65Z" transform="translate(-99.57 -205.9)"/><path id="Tracé_371" data-name="Tracé 371" class="cls-2" d="M361.77,440.37a3.27,3.27,0,1,1,3.8-2.65,3.27,3.27,0,0,1-3.8,2.65Z" transform="translate(-99.57 -205.9)"/><path id="Tracé_372" data-name="Tracé 372" class="cls-2" d="M349.66,438.25a3.27,3.27,0,1,1,3.79-2.66h0a3.25,3.25,0,0,1-3.77,2.66Z" transform="translate(-99.57 -205.9)"/><path id="Tracé_373" data-name="Tracé 373" class="cls-2" d="M337.56,436.11a3.28,3.28,0,1,1,3.73-2.61A3.26,3.26,0,0,1,337.56,436.11Z" transform="translate(-99.57 -205.9)"/><path id="Tracé_374" data-name="Tracé 374" class="cls-2" d="M325.45,434a3.27,3.27,0,1,1,3.79-2.66,3.28,3.28,0,0,1-3.79,2.66Z" transform="translate(-99.57 -205.9)"/></g><g id="Groupe_152" data-name="Groupe 152"><path id="Tracé_375" data-name="Tracé 375" class="cls-2" d="M437.52,424.19a3.27,3.27,0,1,1,.05,0Z" transform="translate(-99.57 -205.9)"/><path id="Tracé_376" data-name="Tracé 376" class="cls-2" d="M425.23,424.19a3.28,3.28,0,1,1,3.28-3.28,3.27,3.27,0,0,1-3.28,3.28Z" transform="translate(-99.57 -205.9)"/><path id="Tracé_377" data-name="Tracé 377" class="cls-2" d="M412.94,424.19a3.28,3.28,0,1,1,3.28-3.28,3.29,3.29,0,0,1-3.28,3.28Z" transform="translate(-99.57 -205.9)"/><path id="Tracé_378" data-name="Tracé 378" class="cls-2" d="M400.64,424.19a3.28,3.28,0,1,1,3.28-3.28,3.29,3.29,0,0,1-3.28,3.28Z" transform="translate(-99.57 -205.9)"/><path id="Tracé_379" data-name="Tracé 379" class="cls-2" d="M388.35,424.18a3.27,3.27,0,1,1,3.28-3.27,3.27,3.27,0,0,1-3.28,3.27Z" transform="translate(-99.57 -205.9)"/><path id="Tracé_380" data-name="Tracé 380" class="cls-2" d="M376.05,424.18a3.27,3.27,0,1,1,3.28-3.27,3.27,3.27,0,0,1-3.28,3.27Z" transform="translate(-99.57 -205.9)"/><path id="Tracé_381" data-name="Tracé 381" class="cls-2" d="M363.76,424.18a3.28,3.28,0,1,1,3.27-3.27h0a3.26,3.26,0,0,1-3.26,3.27Z" transform="translate(-99.57 -205.9)"/><path id="Tracé_382" data-name="Tracé 382" class="cls-2" d="M351.46,424.18a3.27,3.27,0,0,1,0-6.54,3.31,3.31,0,0,1,3.28,3.27A3.27,3.27,0,0,1,351.46,424.18Z" transform="translate(-99.57 -205.9)"/><path id="Tracé_383" data-name="Tracé 383" class="cls-2" d="M339.17,424.18a3.28,3.28,0,0,1,0-6.55,3.32,3.32,0,0,1,3.26,3.28,3.25,3.25,0,0,1-3.25,3.27Z" transform="translate(-99.57 -205.9)"/><path id="Tracé_384" data-name="Tracé 384" class="cls-2" d="M326.88,424.18a3.28,3.28,0,1,1,0-6.55,3.32,3.32,0,0,1,3.26,3.28,3.27,3.27,0,0,1-3.26,3.27Z" transform="translate(-99.57 -205.9)"/></g><g id="Groupe_153" data-name="Groupe 153"><path id="Tracé_385" data-name="Tracé 385" class="cls-2" d="M435.55,395.08a3.27,3.27,0,1,1,2.67-3.79,3.27,3.27,0,0,1-2.67,3.79Z" transform="translate(-99.57 -205.9)"/><path id="Tracé_386" data-name="Tracé 386" class="cls-2" d="M423.44,397.21a3.27,3.27,0,1,1,2.66-3.79,3.27,3.27,0,0,1-2.66,3.79Z" transform="translate(-99.57 -205.9)"/><path id="Tracé_387" data-name="Tracé 387" class="cls-2" d="M411.33,399.35a3.27,3.27,0,1,1,2.67-3.8,3.27,3.27,0,0,1-2.67,3.8Z" transform="translate(-99.57 -205.9)"/><path id="Tracé_388" data-name="Tracé 388" class="cls-2" d="M399.23,401.48a3.27,3.27,0,1,1,2.66-3.79,3.26,3.26,0,0,1-2.66,3.79Z" transform="translate(-99.57 -205.9)"/><path id="Tracé_389" data-name="Tracé 389" class="cls-2" d="M387.12,403.61a3.27,3.27,0,1,1,2.66-3.79,3.26,3.26,0,0,1-2.66,3.79Z" transform="translate(-99.57 -205.9)"/><path id="Tracé_390" data-name="Tracé 390" class="cls-2" d="M375,405.75a3.27,3.27,0,1,1,2.65-3.79h0a3.27,3.27,0,0,1-2.65,3.79Z" transform="translate(-99.57 -205.9)"/><path id="Tracé_391" data-name="Tracé 391" class="cls-2" d="M362.9,407.88a3.27,3.27,0,1,1,2.67-3.79,3.27,3.27,0,0,1-2.67,3.79Z" transform="translate(-99.57 -205.9)"/><path id="Tracé_392" data-name="Tracé 392" class="cls-2" d="M350.8,410a3.27,3.27,0,1,1,2.66-3.79h0a3.28,3.28,0,0,1-2.65,3.79Z" transform="translate(-99.57 -205.9)"/><path id="Tracé_393" data-name="Tracé 393" class="cls-2" d="M338.69,412.16a3.28,3.28,0,1,1,2.66-3.8,3.28,3.28,0,0,1-2.66,3.8Z" transform="translate(-99.57 -205.9)"/><path id="Tracé_394" data-name="Tracé 394" class="cls-2" d="M326.59,414.29a3.28,3.28,0,1,1-1.14-6.46,3.33,3.33,0,0,1,3.79,2.67,3.27,3.27,0,0,1-2.64,3.79Z" transform="translate(-99.57 -205.9)"/></g><g id="Groupe_154" data-name="Groupe 154"><path id="Tracé_395" data-name="Tracé 395" class="cls-2" d="M428.55,366.76a3.27,3.27,0,1,1,2-4.2,3.27,3.27,0,0,1-2,4.2Z" transform="translate(-99.57 -205.9)"/><path id="Tracé_396" data-name="Tracé 396" class="cls-2" d="M417,371a3.27,3.27,0,1,1,2-4.2,3.28,3.28,0,0,1-2,4.2Z" transform="translate(-99.57 -205.9)"/><path id="Tracé_397" data-name="Tracé 397" class="cls-2" d="M405.45,375.17a3.27,3.27,0,1,1,2-4.2,3.26,3.26,0,0,1-2,4.2Z" transform="translate(-99.57 -205.9)"/><path id="Tracé_398" data-name="Tracé 398" class="cls-2" d="M393.89,379.38a3.27,3.27,0,1,1,2-4.21,3.27,3.27,0,0,1-2,4.21Z" transform="translate(-99.57 -205.9)"/><path id="Tracé_399" data-name="Tracé 399" class="cls-2" d="M382.34,383.58a3.27,3.27,0,1,1,2-4.2,3.26,3.26,0,0,1-2,4.2Z" transform="translate(-99.57 -205.9)"/><path id="Tracé_400" data-name="Tracé 400" class="cls-2" d="M370.79,387.78a3.27,3.27,0,1,1,2-4.2,3.28,3.28,0,0,1-2,4.2Z" transform="translate(-99.57 -205.9)"/><path id="Tracé_401" data-name="Tracé 401" class="cls-2" d="M359.24,392a3.28,3.28,0,1,1,2-4.2,3.29,3.29,0,0,1-2,4.2Z" transform="translate(-99.57 -205.9)"/><path id="Tracé_402" data-name="Tracé 402" class="cls-2" d="M347.68,396.19a3.27,3.27,0,1,1,2-4.2,3.26,3.26,0,0,1-2,4.2Z" transform="translate(-99.57 -205.9)"/><path id="Tracé_403" data-name="Tracé 403" class="cls-2" d="M336.13,400.39a3.27,3.27,0,1,1,2-4.19h0a3.26,3.26,0,0,1-2,4.19Z" transform="translate(-99.57 -205.9)"/><path id="Tracé_404" data-name="Tracé 404" class="cls-2" d="M324.58,404.6a3.28,3.28,0,1,1-2.24-6.16,3.32,3.32,0,0,1,4.19,2,3.27,3.27,0,0,1-1.94,4.19Z" transform="translate(-99.57 -205.9)"/></g><g id="Groupe_155" data-name="Groupe 155"><path id="Tracé_405" data-name="Tracé 405" class="cls-2" d="M416.75,340.08a3.27,3.27,0,1,1,1.2-4.48,3.28,3.28,0,0,1-1.2,4.48Z" transform="translate(-99.57 -205.9)"/><path id="Tracé_406" data-name="Tracé 406" class="cls-2" d="M406.1,346.23a3.27,3.27,0,1,1,1.2-4.48,3.28,3.28,0,0,1-1.2,4.48Z" transform="translate(-99.57 -205.9)"/><path id="Tracé_407" data-name="Tracé 407" class="cls-2" d="M395.45,352.38a3.27,3.27,0,1,1,1.2-4.48,3.27,3.27,0,0,1-1.2,4.48Z" transform="translate(-99.57 -205.9)"/><path id="Tracé_408" data-name="Tracé 408" class="cls-2" d="M384.81,358.52A3.27,3.27,0,1,1,386,354,3.28,3.28,0,0,1,384.81,358.52Z" transform="translate(-99.57 -205.9)"/><path id="Tracé_409" data-name="Tracé 409" class="cls-2" d="M374.16,364.66a3.28,3.28,0,1,1,1.2-4.47h0a3.28,3.28,0,0,1-1.2,4.47Z" transform="translate(-99.57 -205.9)"/><path id="Tracé_410" data-name="Tracé 410" class="cls-2" d="M363.51,370.82a3.28,3.28,0,1,1,1.2-4.48,3.28,3.28,0,0,1-1.2,4.48Z" transform="translate(-99.57 -205.9)"/><path id="Tracé_411" data-name="Tracé 411" class="cls-2" d="M352.86,377a3.28,3.28,0,1,1,1.2-4.48A3.27,3.27,0,0,1,352.86,377Z" transform="translate(-99.57 -205.9)"/><path id="Tracé_412" data-name="Tracé 412" class="cls-2" d="M342.22,383.11a3.28,3.28,0,1,1,1.19-4.48,3.28,3.28,0,0,1-1.19,4.48Z" transform="translate(-99.57 -205.9)"/><path id="Tracé_413" data-name="Tracé 413" class="cls-2" d="M331.57,389.25a3.28,3.28,0,1,1,1.19-4.48h0A3.28,3.28,0,0,1,331.57,389.25Z" transform="translate(-99.57 -205.9)"/><path id="Tracé_414" data-name="Tracé 414" class="cls-2" d="M320.92,395.4a3.28,3.28,0,1,1-3.28-5.67h0a3.32,3.32,0,0,1,4.48,1.2,3.27,3.27,0,0,1-1.19,4.46Z" transform="translate(-99.57 -205.9)"/></g><g id="Groupe_156" data-name="Groupe 156"><path id="Tracé_415" data-name="Tracé 415" class="cls-2" d="M400.48,315.86a3.27,3.27,0,1,1,.41-4.62,3.26,3.26,0,0,1-.41,4.62Z" transform="translate(-99.57 -205.9)"/><path id="Tracé_416" data-name="Tracé 416" class="cls-2" d="M391.06,323.76a3.27,3.27,0,1,1,.41-4.61,3.27,3.27,0,0,1-.41,4.61Z" transform="translate(-99.57 -205.9)"/><path id="Tracé_417" data-name="Tracé 417" class="cls-2" d="M381.64,331.66a3.27,3.27,0,1,1,.41-4.62,3.27,3.27,0,0,1-.41,4.62Z" transform="translate(-99.57 -205.9)"/><path id="Tracé_418" data-name="Tracé 418" class="cls-2" d="M372.23,339.56a3.27,3.27,0,1,1,.4-4.61,3.27,3.27,0,0,1-.4,4.61Z" transform="translate(-99.57 -205.9)"/><path id="Tracé_419" data-name="Tracé 419" class="cls-2" d="M362.81,347.47a3.27,3.27,0,1,1,.4-4.62,3.27,3.27,0,0,1-.4,4.62Z" transform="translate(-99.57 -205.9)"/><path id="Tracé_420" data-name="Tracé 420" class="cls-2" d="M353.39,355.37a3.28,3.28,0,1,1,.4-4.61,3.27,3.27,0,0,1-.4,4.61Z" transform="translate(-99.57 -205.9)"/><path id="Tracé_421" data-name="Tracé 421" class="cls-2" d="M344,363.27a3.27,3.27,0,1,1,.4-4.62,3.28,3.28,0,0,1-.4,4.62Z" transform="translate(-99.57 -205.9)"/><path id="Tracé_422" data-name="Tracé 422" class="cls-2" d="M334.56,371.17a3.28,3.28,0,1,1,.4-4.61h0a3.28,3.28,0,0,1-.4,4.61Z" transform="translate(-99.57 -205.9)"/><path id="Tracé_423" data-name="Tracé 423" class="cls-2" d="M325.13,379.08a3.25,3.25,0,1,1,.11-.09Z" transform="translate(-99.57 -205.9)"/><path id="Tracé_424" data-name="Tracé 424" class="cls-2" d="M315.72,387a3.28,3.28,0,0,1-4.21-5,3.33,3.33,0,0,1,4.61.41,3.27,3.27,0,0,1-.4,4.6Z" transform="translate(-99.57 -205.9)"/></g><g id="Groupe_157" data-name="Groupe 157"><path id="Tracé_425" data-name="Tracé 425" class="cls-2" d="M380.26,294.82a3.27,3.27,0,1,1-.4-4.61,3.27,3.27,0,0,1,.4,4.61Z" transform="translate(-99.57 -205.9)"/><path id="Tracé_426" data-name="Tracé 426" class="cls-2" d="M372.36,304.24a3.27,3.27,0,1,1-.41-4.61,3.27,3.27,0,0,1,.41,4.61Z" transform="translate(-99.57 -205.9)"/><path id="Tracé_427" data-name="Tracé 427" class="cls-2" d="M364.46,313.66a3.27,3.27,0,1,1-.41-4.61,3.27,3.27,0,0,1,.41,4.61Z" transform="translate(-99.57 -205.9)"/><path id="Tracé_428" data-name="Tracé 428" class="cls-2" d="M356.55,323.08a3.27,3.27,0,1,1-.41-4.62,3.27,3.27,0,0,1,.41,4.62Z" transform="translate(-99.57 -205.9)"/><path id="Tracé_429" data-name="Tracé 429" class="cls-2" d="M348.65,332.5a3.27,3.27,0,1,1-.4-4.61,3.28,3.28,0,0,1,.4,4.61Z" transform="translate(-99.57 -205.9)"/><path id="Tracé_430" data-name="Tracé 430" class="cls-2" d="M340.74,341.92a3.27,3.27,0,1,1-.4-4.62,3.28,3.28,0,0,1,.4,4.62Z" transform="translate(-99.57 -205.9)"/><path id="Tracé_431" data-name="Tracé 431" class="cls-2" d="M332.84,351.33a3.27,3.27,0,1,1-5-4.2h0a3.27,3.27,0,1,1,5,4.2Z" transform="translate(-99.57 -205.9)"/><path id="Tracé_432" data-name="Tracé 432" class="cls-2" d="M324.94,360.75a3.27,3.27,0,1,1-.41-4.61h0a3.27,3.27,0,0,1,.41,4.61Z" transform="translate(-99.57 -205.9)"/><path id="Tracé_433" data-name="Tracé 433" class="cls-2" d="M317,370.17a3.28,3.28,0,1,1-.41-4.61A3.27,3.27,0,0,1,317,370.17Z" transform="translate(-99.57 -205.9)"/><path id="Tracé_434" data-name="Tracé 434" class="cls-2" d="M309.13,379.59a3.28,3.28,0,0,1-5-4.22,3.34,3.34,0,0,1,4.62-.4,3.28,3.28,0,0,1,.41,4.61Z" transform="translate(-99.57 -205.9)"/></g><g id="Groupe_158" data-name="Groupe 158"><path id="Tracé_435" data-name="Tracé 435" class="cls-2" d="M356.69,277.63a3.27,3.27,0,1,1-1.19-4.47,3.26,3.26,0,0,1,1.19,4.47Z" transform="translate(-99.57 -205.9)"/><path id="Tracé_436" data-name="Tracé 436" class="cls-2" d="M350.54,288.28a3.27,3.27,0,1,1-1.19-4.47,3.27,3.27,0,0,1,1.19,4.47Z" transform="translate(-99.57 -205.9)"/><path id="Tracé_437" data-name="Tracé 437" class="cls-2" d="M344.4,298.92a3.27,3.27,0,1,1-1.2-4.47,3.28,3.28,0,0,1,1.2,4.47Z" transform="translate(-99.57 -205.9)"/><path id="Tracé_438" data-name="Tracé 438" class="cls-2" d="M338.25,309.57a3.28,3.28,0,1,1-1.2-4.47,3.26,3.26,0,0,1,1.2,4.47Z" transform="translate(-99.57 -205.9)"/><path id="Tracé_439" data-name="Tracé 439" class="cls-2" d="M332.1,320.21a3.27,3.27,0,1,1-1.2-4.47,3.26,3.26,0,0,1,1.2,4.47Z" transform="translate(-99.57 -205.9)"/><path id="Tracé_440" data-name="Tracé 440" class="cls-2" d="M326,330.86a3.27,3.27,0,1,1-1.19-4.47,3.27,3.27,0,0,1,1.19,4.47Z" transform="translate(-99.57 -205.9)"/><path id="Tracé_441" data-name="Tracé 441" class="cls-2" d="M319.81,341.51a3.27,3.27,0,1,1-1.2-4.47,3.29,3.29,0,0,1,1.2,4.47Z" transform="translate(-99.57 -205.9)"/><path id="Tracé_442" data-name="Tracé 442" class="cls-2" d="M313.66,352.16a3.28,3.28,0,1,1-1.2-4.48h0a3.28,3.28,0,0,1,1.2,4.47Z" transform="translate(-99.57 -205.9)"/><path id="Tracé_443" data-name="Tracé 443" class="cls-2" d="M307.51,362.8a3.27,3.27,0,1,1-1.2-4.47,3.28,3.28,0,0,1,1.2,4.47Z" transform="translate(-99.57 -205.9)"/><path id="Tracé_444" data-name="Tracé 444" class="cls-2" d="M301.36,373.45a3.27,3.27,0,0,1-5.67-3.27,3.34,3.34,0,0,1,4.48-1.2,3.26,3.26,0,0,1,1.19,4.46Z" transform="translate(-99.57 -205.9)"/></g><g id="Groupe_159" data-name="Groupe 159"><path id="Tracé_445" data-name="Tracé 445" class="cls-2" d="M330.5,264.78a3.27,3.27,0,1,1-1.95-4.19,3.24,3.24,0,0,1,2,4.15Z" transform="translate(-99.57 -205.9)"/><path id="Tracé_446" data-name="Tracé 446" class="cls-2" d="M326.29,276.34a3.27,3.27,0,1,1-2-4.2,3.27,3.27,0,0,1,2,4.2Z" transform="translate(-99.57 -205.9)"/><path id="Tracé_447" data-name="Tracé 447" class="cls-2" d="M322.08,287.89a3.27,3.27,0,1,1-1.95-4.2,3.27,3.27,0,0,1,1.95,4.2Z" transform="translate(-99.57 -205.9)"/><path id="Tracé_448" data-name="Tracé 448" class="cls-2" d="M317.88,299.44a3.27,3.27,0,1,1-1.95-4.2,3.27,3.27,0,0,1,1.95,4.2Z" transform="translate(-99.57 -205.9)"/><path id="Tracé_449" data-name="Tracé 449" class="cls-2" d="M313.67,311a3.27,3.27,0,1,1-1.95-4.19,3.27,3.27,0,0,1,1.95,4.19Z" transform="translate(-99.57 -205.9)"/><path id="Tracé_450" data-name="Tracé 450" class="cls-2" d="M309.47,322.55a3.27,3.27,0,1,1-2-4.2,3.27,3.27,0,0,1,2,4.2Z" transform="translate(-99.57 -205.9)"/><path id="Tracé_451" data-name="Tracé 451" class="cls-2" d="M305.26,334.1a3.27,3.27,0,1,1-1.95-4.2,3.27,3.27,0,0,1,1.95,4.2Z" transform="translate(-99.57 -205.9)"/><path id="Tracé_452" data-name="Tracé 452" class="cls-2" d="M301.06,345.65a3.27,3.27,0,1,1-2-4.19A3.28,3.28,0,0,1,301.06,345.65Z" transform="translate(-99.57 -205.9)"/><path id="Tracé_453" data-name="Tracé 453" class="cls-2" d="M296.85,357.21a3.28,3.28,0,1,1-6.16-2.24h0a3.31,3.31,0,0,1,4.2-2,3.26,3.26,0,0,1,2,4.19Z" transform="translate(-99.57 -205.9)"/><path id="Tracé_454" data-name="Tracé 454" class="cls-2" d="M292.65,368.76a3.28,3.28,0,1,1-6.16-2.24,3.33,3.33,0,0,1,4.2-2,3.26,3.26,0,0,1,2,4.19Z" transform="translate(-99.57 -205.9)"/></g><g id="Groupe_160" data-name="Groupe 160"><path id="Tracé_455" data-name="Tracé 455" class="cls-2" d="M302.47,256.68a3.27,3.27,0,1,1-2.65-3.79,3.24,3.24,0,0,1,2.65,3.75Z" transform="translate(-99.57 -205.9)"/><path id="Tracé_456" data-name="Tracé 456" class="cls-2" d="M300.33,268.79a3.27,3.27,0,1,1-2.65-3.79,3.27,3.27,0,0,1,2.65,3.79Z" transform="translate(-99.57 -205.9)"/><path id="Tracé_457" data-name="Tracé 457" class="cls-2" d="M298.19,280.9a3.27,3.27,0,1,1-2.64-3.8,3.26,3.26,0,0,1,2.64,3.8Z" transform="translate(-99.57 -205.9)"/><path id="Tracé_458" data-name="Tracé 458" class="cls-2" d="M296.06,293a3.27,3.27,0,1,1-2.65-3.8,3.28,3.28,0,0,1,2.65,3.8Z" transform="translate(-99.57 -205.9)"/><path id="Tracé_459" data-name="Tracé 459" class="cls-2" d="M293.93,305.11a3.27,3.27,0,1,1-2.66-3.79A3.27,3.27,0,0,1,293.93,305.11Z" transform="translate(-99.57 -205.9)"/><path id="Tracé_460" data-name="Tracé 460" class="cls-2" d="M291.79,317.22a3.27,3.27,0,1,1-2.65-3.79h0a3.26,3.26,0,0,1,2.65,3.79Z" transform="translate(-99.57 -205.9)"/><path id="Tracé_461" data-name="Tracé 461" class="cls-2" d="M289.66,329.33a3.28,3.28,0,1,1-2.65-3.8A3.28,3.28,0,0,1,289.66,329.33Z" transform="translate(-99.57 -205.9)"/><path id="Tracé_462" data-name="Tracé 462" class="cls-2" d="M287.52,341.43a3.27,3.27,0,1,1-2.65-3.79,3.28,3.28,0,0,1,2.65,3.79Z" transform="translate(-99.57 -205.9)"/><path id="Tracé_463" data-name="Tracé 463" class="cls-2" d="M285.38,353.54a3.27,3.27,0,1,1-2.65-3.79h0A3.27,3.27,0,0,1,285.38,353.54Z" transform="translate(-99.57 -205.9)"/><path id="Tracé_464" data-name="Tracé 464" class="cls-2" d="M283.25,365.65a3.27,3.27,0,1,1-6.45-1.11v0a3.33,3.33,0,0,1,3.8-2.65,3.26,3.26,0,0,1,2.65,3.78Z" transform="translate(-99.57 -205.9)"/></g></g></svg>