<svg id="Calque_1" data-name="Calque 1" xmlns="http://www.w3.org/2000/svg" viewBox="0 0 701.56 880.36"><defs><style>.cls-1,.cls-3,.cls-7{fill:none;stroke:#000;}.cls-1{stroke-linejoin:round;}.cls-1,.cls-7{stroke-width:8px;}.cls-2{isolation:isolate;}.cls-4{fill:#fcb316;}.cls-5{fill:#ef3924;}.cls-6{fill:#367c6e;}</style></defs><title>welcome_frame</title><path id="Tracé_520-2" data-name="Tracé 520-2" class="cls-1" d="M184.52,33.73,509,34.1V416" transform="translate(188.28 12.46)"/><path id="Tracé_521-2" data-name="Tracé 521-2" class="cls-1" d="M105.37,863.9H-184V482" transform="translate(188.28 12.46)"/><g id="BIENVENUE" class="cls-2"><g class="cls-2"><path d="M-184.47,38a2.39,2.39,0,0,1-1.74-.7,2.31,2.31,0,0,1-.72-1.72V-9.5a2.31,2.31,0,0,1,.72-1.74,2.46,2.46,0,0,1,1.74-.68H-171a12.27,12.27,0,0,1,5,1,13.42,13.42,0,0,1,4.1,2.79A12.83,12.83,0,0,1-159.14-4a12.89,12.89,0,0,1,1,5.05,12.28,12.28,0,0,1-1.42,5.87,13.1,13.1,0,0,1-3.8,4.42,14.33,14.33,0,0,1,3,2.19A14.06,14.06,0,0,1-158,16.43a14.79,14.79,0,0,1,1.52,3.47,14.15,14.15,0,0,1,.55,3.94,13.71,13.71,0,0,1-1.16,5.64A13.81,13.81,0,0,1-160.21,34a14.65,14.65,0,0,1-4.69,3A15.5,15.5,0,0,1-170.67,38ZM-182-7V9.57h10.65a8,8,0,0,0,3.32-.7A8.56,8.56,0,0,0-165.42,7a8.74,8.74,0,0,0,1.73-2.68,7.92,7.92,0,0,0,.63-3.1,7.82,7.82,0,0,0-.63-3.08,8.4,8.4,0,0,0-1.73-2.63A8.38,8.38,0,0,0-168-6.32,7.52,7.52,0,0,0-171.25-7Zm0,21V33.09h11.2a10,10,0,0,0,4-.78,10,10,0,0,0,3.16-2.09,9.7,9.7,0,0,0,2.09-3,9.06,9.06,0,0,0,.76-3.69,9.1,9.1,0,0,0-.76-3.72,9.19,9.19,0,0,0-2.11-3,9.52,9.52,0,0,0-3.19-2,11,11,0,0,0-4-.73Z" transform="translate(188.28 12.46)"/><path d="M-143.06,35.58a2.31,2.31,0,0,1-.72,1.72,2.39,2.39,0,0,1-1.73.7,2.39,2.39,0,0,1-1.74-.7,2.31,2.31,0,0,1-.72-1.72V-9.5a2.31,2.31,0,0,1,.72-1.74,2.46,2.46,0,0,1,1.74-.68,2.45,2.45,0,0,1,1.73.68,2.31,2.31,0,0,1,.72,1.74Z" transform="translate(188.28 12.46)"/><path d="M-130.65,38a2.29,2.29,0,0,1-1.64-.8,2.55,2.55,0,0,1-.63-1.74V-9.46a2.3,2.3,0,0,1,.75-1.78,2.56,2.56,0,0,1,1.79-.68h22.27a2.31,2.31,0,0,1,1.71.7,2.38,2.38,0,0,1,.71,1.76,2.39,2.39,0,0,1-.71,1.73,2.29,2.29,0,0,1-1.71.72H-128V10.66h14.66a2.26,2.26,0,0,1,1.76.68,2.41,2.41,0,0,1,.7,1.74,2.27,2.27,0,0,1-.7,1.7,2.45,2.45,0,0,1-1.76.68H-128V33.13h19.89a2.31,2.31,0,0,1,1.71.7,2.32,2.32,0,0,1,.71,1.71,2.44,2.44,0,0,1-.71,1.78,2.15,2.15,0,0,1-1.71.68Z" transform="translate(188.28 12.46)"/><path d="M-95-11.61h.08a.23.23,0,0,0,.12.12h0l.08,0a.1.1,0,0,1,.08,0,.22.22,0,0,1,.16.08,2.11,2.11,0,0,1,.66.81l27.18,38.69V-9.46a2.37,2.37,0,0,1,.72-1.74,2.43,2.43,0,0,1,1.78-.72,2.27,2.27,0,0,1,1.73.72,2.42,2.42,0,0,1,.69,1.74v45a2.31,2.31,0,0,1-.57,1.56,2.37,2.37,0,0,1-1.42.82,1.89,1.89,0,0,1-.47,0,2.49,2.49,0,0,1-1.83-.74l-.16-.23-.12-.12L-93.49-2V35.58a2.31,2.31,0,0,1-.72,1.72,2.39,2.39,0,0,1-1.73.7,2.39,2.39,0,0,1-1.74-.7,2.31,2.31,0,0,1-.72-1.72v-45a2.31,2.31,0,0,1,.72-1.72,2.39,2.39,0,0,1,1.74-.7h.19a3.54,3.54,0,0,1,.74.23Z" transform="translate(188.28 12.46)"/><path d="M-57.06-8.49a2.18,2.18,0,0,1,0-1.85,2.37,2.37,0,0,1,1.36-1.31,2.39,2.39,0,0,1,1.84,0,2.37,2.37,0,0,1,1.36,1.33l17.12,39.82,17.09-39.82A2.45,2.45,0,0,1-17-11.67a2.33,2.33,0,0,1,1.83,0,2.44,2.44,0,0,1,1.35,1.31,2.14,2.14,0,0,1,0,1.85l-19.34,45a2.56,2.56,0,0,1-1,1.17,2.42,2.42,0,0,1-1.4.35,2.5,2.5,0,0,1-1.23-.41,2.42,2.42,0,0,1-.88-1.11Z" transform="translate(188.28 12.46)"/><path d="M-5.47,38a2.29,2.29,0,0,1-1.63-.8,2.55,2.55,0,0,1-.63-1.74V-9.46A2.33,2.33,0,0,1-7-11.24a2.6,2.6,0,0,1,1.8-.68H17.08a2.32,2.32,0,0,1,1.71.7,2.37,2.37,0,0,1,.7,1.76,2.39,2.39,0,0,1-.7,1.73A2.3,2.3,0,0,1,17.08-7H-2.81V10.66H11.85a2.26,2.26,0,0,1,1.76.68,2.45,2.45,0,0,1,.7,1.74,2.31,2.31,0,0,1-.7,1.7,2.45,2.45,0,0,1-1.76.68H-2.81V33.13H17.08a2.39,2.39,0,0,1,2.41,2.41,2.44,2.44,0,0,1-.7,1.78,2.16,2.16,0,0,1-1.71.68Z" transform="translate(188.28 12.46)"/><path d="M30.22-11.61h.08a.25.25,0,0,0,.11.12h0l.08,0a.1.1,0,0,1,.08,0,.19.19,0,0,1,.15.08,2,2,0,0,1,.67.81L58.61,28.17V-9.46a2.37,2.37,0,0,1,.72-1.74,2.41,2.41,0,0,1,1.78-.72,2.27,2.27,0,0,1,1.73.72,2.41,2.41,0,0,1,.68,1.74v45A2.3,2.3,0,0,1,63,37.14a2.37,2.37,0,0,1-1.42.82,1.89,1.89,0,0,1-.47,0,2.53,2.53,0,0,1-1.84-.74L59.08,37,59,36.91,31.7-2V35.58A2.31,2.31,0,0,1,31,37.3a2.5,2.5,0,0,1-3.47,0,2.31,2.31,0,0,1-.72-1.72v-45a2.31,2.31,0,0,1,.72-1.72,2.39,2.39,0,0,1,1.73-.7h.2a3.54,3.54,0,0,1,.74.23Z" transform="translate(188.28 12.46)"/><path d="M100.93-9.54a2.31,2.31,0,0,1,.72-1.72,2.43,2.43,0,0,1,1.73-.7,2.43,2.43,0,0,1,1.76.7,2.33,2.33,0,0,1,.7,1.72V21a17.85,17.85,0,0,1-1.31,6.82,17.08,17.08,0,0,1-3.62,5.56,17.34,17.34,0,0,1-5.5,3.74,17.13,17.13,0,0,1-7,1.39,17.78,17.78,0,0,1-7.08-1.39,18.07,18.07,0,0,1-5.66-3.74A17.36,17.36,0,0,1,70.58,21V-9.38a2.32,2.32,0,0,1,.73-1.76,2.37,2.37,0,0,1,1.73-.7,2.41,2.41,0,0,1,1.74.7,2.35,2.35,0,0,1,.72,1.75v30.2a12.66,12.66,0,0,0,1,5,12.52,12.52,0,0,0,2.73,4.05,12.69,12.69,0,0,0,4.1,2.71,13,13,0,0,0,5.09,1,12.31,12.31,0,0,0,9-3.68,12.29,12.29,0,0,0,2.59-4,13.45,13.45,0,0,0,1-4.89Z" transform="translate(188.28 12.46)"/><path d="M117,38a2.29,2.29,0,0,1-1.63-.8,2.55,2.55,0,0,1-.63-1.74V-9.46a2.33,2.33,0,0,1,.74-1.78,2.58,2.58,0,0,1,1.8-.68h22.27a2.32,2.32,0,0,1,1.71.7,2.37,2.37,0,0,1,.7,1.76,2.39,2.39,0,0,1-.7,1.73,2.3,2.3,0,0,1-1.71.72H119.65V10.66h14.66a2.23,2.23,0,0,1,1.75.68,2.42,2.42,0,0,1,.71,1.74,2.28,2.28,0,0,1-.71,1.7,2.41,2.41,0,0,1-1.75.68H119.65V33.13h19.89A2.39,2.39,0,0,1,142,35.54a2.44,2.44,0,0,1-.7,1.78,2.16,2.16,0,0,1-1.71.68Z" transform="translate(188.28 12.46)"/></g><g class="cls-2"><path class="cls-3" d="M-184.47,38a2.39,2.39,0,0,1-1.74-.7,2.31,2.31,0,0,1-.72-1.72V-9.5a2.31,2.31,0,0,1,.72-1.74,2.46,2.46,0,0,1,1.74-.68H-171a12.27,12.27,0,0,1,5,1,13.42,13.42,0,0,1,4.1,2.79A12.83,12.83,0,0,1-159.14-4a12.89,12.89,0,0,1,1,5.05,12.28,12.28,0,0,1-1.42,5.87,13.1,13.1,0,0,1-3.8,4.42,14.33,14.33,0,0,1,3,2.19A14.06,14.06,0,0,1-158,16.43a14.79,14.79,0,0,1,1.52,3.47,14.15,14.15,0,0,1,.55,3.94,13.71,13.71,0,0,1-1.16,5.64A13.81,13.81,0,0,1-160.21,34a14.65,14.65,0,0,1-4.69,3A15.5,15.5,0,0,1-170.67,38ZM-182-7V9.57h10.65a8,8,0,0,0,3.32-.7A8.56,8.56,0,0,0-165.42,7a8.74,8.74,0,0,0,1.73-2.68,7.92,7.92,0,0,0,.63-3.1,7.82,7.82,0,0,0-.63-3.08,8.4,8.4,0,0,0-1.73-2.63A8.38,8.38,0,0,0-168-6.32,7.52,7.52,0,0,0-171.25-7Zm0,21V33.09h11.2a10,10,0,0,0,4-.78,10,10,0,0,0,3.16-2.09,9.7,9.7,0,0,0,2.09-3,9.06,9.06,0,0,0,.76-3.69,9.1,9.1,0,0,0-.76-3.72,9.19,9.19,0,0,0-2.11-3,9.52,9.52,0,0,0-3.19-2,11,11,0,0,0-4-.73Z" transform="translate(188.28 12.46)"/><path class="cls-3" d="M-143.06,35.58a2.31,2.31,0,0,1-.72,1.72,2.39,2.39,0,0,1-1.73.7,2.39,2.39,0,0,1-1.74-.7,2.31,2.31,0,0,1-.72-1.72V-9.5a2.31,2.31,0,0,1,.72-1.74,2.46,2.46,0,0,1,1.74-.68,2.45,2.45,0,0,1,1.73.68,2.31,2.31,0,0,1,.72,1.74Z" transform="translate(188.28 12.46)"/><path class="cls-3" d="M-130.65,38a2.29,2.29,0,0,1-1.64-.8,2.55,2.55,0,0,1-.63-1.74V-9.46a2.3,2.3,0,0,1,.75-1.78,2.56,2.56,0,0,1,1.79-.68h22.27a2.31,2.31,0,0,1,1.71.7,2.38,2.38,0,0,1,.71,1.76,2.39,2.39,0,0,1-.71,1.73,2.29,2.29,0,0,1-1.71.72H-128V10.66h14.66a2.26,2.26,0,0,1,1.76.68,2.41,2.41,0,0,1,.7,1.74,2.27,2.27,0,0,1-.7,1.7,2.45,2.45,0,0,1-1.76.68H-128V33.13h19.89a2.31,2.31,0,0,1,1.71.7,2.32,2.32,0,0,1,.71,1.71,2.44,2.44,0,0,1-.71,1.78,2.15,2.15,0,0,1-1.71.68Z" transform="translate(188.28 12.46)"/><path class="cls-3" d="M-95-11.61h.08a.23.23,0,0,0,.12.12h0l.08,0a.1.1,0,0,1,.08,0,.22.22,0,0,1,.16.08,2.11,2.11,0,0,1,.66.81l27.18,38.69V-9.46a2.37,2.37,0,0,1,.72-1.74,2.43,2.43,0,0,1,1.78-.72,2.27,2.27,0,0,1,1.73.72,2.42,2.42,0,0,1,.69,1.74v45a2.31,2.31,0,0,1-.57,1.56,2.37,2.37,0,0,1-1.42.82,1.89,1.89,0,0,1-.47,0,2.49,2.49,0,0,1-1.83-.74l-.16-.23-.12-.12L-93.49-2V35.58a2.31,2.31,0,0,1-.72,1.72,2.39,2.39,0,0,1-1.73.7,2.39,2.39,0,0,1-1.74-.7,2.31,2.31,0,0,1-.72-1.72v-45a2.31,2.31,0,0,1,.72-1.72,2.39,2.39,0,0,1,1.74-.7h.19a3.54,3.54,0,0,1,.74.23Z" transform="translate(188.28 12.46)"/><path class="cls-3" d="M-57.06-8.49a2.18,2.18,0,0,1,0-1.85,2.37,2.37,0,0,1,1.36-1.31,2.39,2.39,0,0,1,1.84,0,2.37,2.37,0,0,1,1.36,1.33l17.12,39.82,17.09-39.82A2.45,2.45,0,0,1-17-11.67a2.33,2.33,0,0,1,1.83,0,2.44,2.44,0,0,1,1.35,1.31,2.14,2.14,0,0,1,0,1.85l-19.34,45a2.56,2.56,0,0,1-1,1.17,2.42,2.42,0,0,1-1.4.35,2.5,2.5,0,0,1-1.23-.41,2.42,2.42,0,0,1-.88-1.11Z" transform="translate(188.28 12.46)"/><path class="cls-3" d="M-5.47,38a2.29,2.29,0,0,1-1.63-.8,2.55,2.55,0,0,1-.63-1.74V-9.46A2.33,2.33,0,0,1-7-11.24a2.6,2.6,0,0,1,1.8-.68H17.08a2.32,2.32,0,0,1,1.71.7,2.37,2.37,0,0,1,.7,1.76,2.39,2.39,0,0,1-.7,1.73A2.3,2.3,0,0,1,17.08-7H-2.81V10.66H11.85a2.26,2.26,0,0,1,1.76.68,2.45,2.45,0,0,1,.7,1.74,2.31,2.31,0,0,1-.7,1.7,2.45,2.45,0,0,1-1.76.68H-2.81V33.13H17.08a2.39,2.39,0,0,1,2.41,2.41,2.44,2.44,0,0,1-.7,1.78,2.16,2.16,0,0,1-1.71.68Z" transform="translate(188.28 12.46)"/><path class="cls-3" d="M30.22-11.61h.08a.25.25,0,0,0,.11.12h0l.08,0a.1.1,0,0,1,.08,0,.19.19,0,0,1,.15.08,2,2,0,0,1,.67.81L58.61,28.17V-9.46a2.37,2.37,0,0,1,.72-1.74,2.41,2.41,0,0,1,1.78-.72,2.27,2.27,0,0,1,1.73.72,2.41,2.41,0,0,1,.68,1.74v45A2.3,2.3,0,0,1,63,37.14a2.37,2.37,0,0,1-1.42.82,1.89,1.89,0,0,1-.47,0,2.53,2.53,0,0,1-1.84-.74L59.08,37,59,36.91,31.7-2V35.58A2.31,2.31,0,0,1,31,37.3a2.5,2.5,0,0,1-3.47,0,2.31,2.31,0,0,1-.72-1.72v-45a2.31,2.31,0,0,1,.72-1.72,2.39,2.39,0,0,1,1.73-.7h.2a3.54,3.54,0,0,1,.74.23Z" transform="translate(188.28 12.46)"/><path class="cls-3" d="M100.93-9.54a2.31,2.31,0,0,1,.72-1.72,2.43,2.43,0,0,1,1.73-.7,2.43,2.43,0,0,1,1.76.7,2.33,2.33,0,0,1,.7,1.72V21a17.85,17.85,0,0,1-1.31,6.82,17.08,17.08,0,0,1-3.62,5.56,17.34,17.34,0,0,1-5.5,3.74,17.13,17.13,0,0,1-7,1.39,17.78,17.78,0,0,1-7.08-1.39,18.07,18.07,0,0,1-5.66-3.74A17.36,17.36,0,0,1,70.58,21V-9.38a2.32,2.32,0,0,1,.73-1.76,2.37,2.37,0,0,1,1.73-.7,2.41,2.41,0,0,1,1.74.7,2.35,2.35,0,0,1,.72,1.75v30.2a12.66,12.66,0,0,0,1,5,12.52,12.52,0,0,0,2.73,4.05,12.69,12.69,0,0,0,4.1,2.71,13,13,0,0,0,5.09,1,12.31,12.31,0,0,0,9-3.68,12.29,12.29,0,0,0,2.59-4,13.45,13.45,0,0,0,1-4.89Z" transform="translate(188.28 12.46)"/><path class="cls-3" d="M117,38a2.29,2.29,0,0,1-1.63-.8,2.55,2.55,0,0,1-.63-1.74V-9.46a2.33,2.33,0,0,1,.74-1.78,2.58,2.58,0,0,1,1.8-.68h22.27a2.32,2.32,0,0,1,1.71.7,2.37,2.37,0,0,1,.7,1.76,2.39,2.39,0,0,1-.7,1.73,2.3,2.3,0,0,1-1.71.72H119.65V10.66h14.66a2.23,2.23,0,0,1,1.75.68,2.42,2.42,0,0,1,.71,1.74,2.28,2.28,0,0,1-.71,1.7,2.41,2.41,0,0,1-1.75.68H119.65V33.13h19.89A2.39,2.39,0,0,1,142,35.54a2.44,2.44,0,0,1-.7,1.78,2.16,2.16,0,0,1-1.71.68Z" transform="translate(188.28 12.46)"/></g></g><rect id="Rectangle_93" data-name="Rectangle 93" class="cls-4" y="63.46" width="8.56" height="314.74"/><rect id="Rectangle_94" data-name="Rectangle 94" class="cls-5" x="693" y="850.74" width="8.56" height="25.53"/><rect id="Rectangle_95" data-name="Rectangle 95" class="cls-6" y="386.96" width="8.56" height="49.19"/><path id="Tracé_522" data-name="Tracé 522" class="cls-7" d="M509,673V821" transform="translate(188.28 12.46)"/></svg>