<svg id="Calque_1" data-name="Calque 1" xmlns="http://www.w3.org/2000/svg" viewBox="0 0 396.06 271.77"><defs><style>.cls-1,.cls-2{isolation:isolate;}.cls-2{font-size:34.53px;font-family:SegoeUI, Segoe UI;}.cls-3{fill:none;stroke:#000;}.cls-4{fill:#fcb316;}.cls-5{fill:#ef3924;}.cls-6{fill:#367c6e;}</style></defs><title>welcome_registration_frame</title><g id="BIENVENUE_XXXX" data-name="BIENVENUE XXXX" class="cls-1"><text class="cls-2" transform="translate(0 29.35)">BIENVENUE</text><g class="cls-1"><path class="cls-3" d="M85.17,385.22V361h6.88a7.52,7.52,0,0,1,5,1.54,4.93,4.93,0,0,1,1.84,4,5.91,5.91,0,0,1-1.11,3.58,6.08,6.08,0,0,1-3.07,2.16v.06a6.15,6.15,0,0,1,3.91,1.85,5.67,5.67,0,0,1,1.47,4,6.34,6.34,0,0,1-2.23,5,8.27,8.27,0,0,1-5.61,1.92ZM88,363.61v7.8h2.9a5.5,5.5,0,0,0,3.66-1.12,3.9,3.9,0,0,0,1.33-3.16q0-3.53-4.63-3.52ZM88,374v8.7h3.85a5.76,5.76,0,0,0,3.86-1.18,4,4,0,0,0,1.38-3.24c0-2.85-2-4.28-5.83-4.28Z" transform="translate(-82 -355.87)"/><path class="cls-3" d="M107.79,385.22H105V361h2.83Z" transform="translate(-82 -355.87)"/><path class="cls-3" d="M127,385.22H114.15V361h12.27v2.57H117v8h8.74v2.54H117v8.47h10Z" transform="translate(-82 -355.87)"/><path class="cls-3" d="M151.11,385.22h-3.48L135.19,366a8,8,0,0,1-.77-1.52h-.11a24.64,24.64,0,0,1,.14,3.32v17.47h-2.83V361h3.67l12.11,19c.5.79.83,1.33,1,1.62h.07a25.93,25.93,0,0,1-.17-3.56V361h2.84Z" transform="translate(-82 -355.87)"/><path class="cls-3" d="M175.42,361l-9,24.18h-3.11L154.58,361h3.15l6.69,19.17a10.73,10.73,0,0,1,.49,2.14H165a10.54,10.54,0,0,1,.56-2.17L172.36,361Z" transform="translate(-82 -355.87)"/><path class="cls-3" d="M191.7,385.22H178.89V361h12.27v2.57h-9.44v8h8.73v2.54h-8.73v8.47h10Z" transform="translate(-82 -355.87)"/><path class="cls-3" d="M215.84,385.22h-3.47L199.93,366a8.08,8.08,0,0,1-.78-1.52h-.1a24.64,24.64,0,0,1,.14,3.32v17.47h-2.84V361H200l12.11,19c.5.79.83,1.33,1,1.62h.07a25.93,25.93,0,0,1-.17-3.56V361h2.83Z" transform="translate(-82 -355.87)"/><path class="cls-3" d="M239.87,375.44q0,10.19-9.19,10.18-8.81,0-8.8-9.79V361h2.83v14.6q0,7.44,6.27,7.44,6.06,0,6.06-7.18V361h2.83Z" transform="translate(-82 -355.87)"/><path class="cls-3" d="M258.72,385.22H245.9V361h12.28v2.57h-9.44v8h8.73v2.54h-8.73v8.47h10Z" transform="translate(-82 -355.87)"/></g></g><rect id="Rectangle_93" data-name="Rectangle 93" class="cls-4" x="1.65" y="35.11" width="3.79" height="139.32"/><rect id="Rectangle_94" data-name="Rectangle 94" class="cls-5" x="392.27" y="256.55" width="3.79" height="11.3"/><rect id="Rectangle_95" data-name="Rectangle 95" class="cls-6" x="1.65" y="178.31" width="3.79" height="21.77"/><rect x="392.39" y="214.91" width="3.54" height="34.87"/><path d="M475.38,553.05h-3.54V385.77l-213.28-.06v-3.54l215.05.06a1.77,1.77,0,0,1,1.77,1.77Z" transform="translate(-82 -355.87)"/><path d="M254.59,627.64h-169a1.77,1.77,0,0,1-1.77-1.77V578.35h3.54v45.74H254.59Z" transform="translate(-82 -355.87)"/></svg>