<svg id="Calque_1" data-name="Calque 1" xmlns="http://www.w3.org/2000/svg" viewBox="0 0 891 598.09"><defs><style>.cls-1{isolation:isolate;}.cls-2{fill:none;stroke:#000;}.cls-3{fill:#fcb316;}.cls-4{fill:#ef3924;}.cls-5{fill:#367c6e;}</style></defs><title>welcome_registration_frame</title><g id="BIENVENUE" class="cls-1"><g class="cls-1"><path d="M-279.47,131a2.39,2.39,0,0,1-1.74-.7,2.31,2.31,0,0,1-.72-1.72V83.5a2.31,2.31,0,0,1,.72-1.74,2.46,2.46,0,0,1,1.74-.68H-266a12.27,12.27,0,0,1,5,1,13.42,13.42,0,0,1,4.1,2.79A12.83,12.83,0,0,1-254.14,89a12.89,12.89,0,0,1,1,5,12.28,12.28,0,0,1-1.42,5.87,13.1,13.1,0,0,1-3.8,4.42,14.33,14.33,0,0,1,3,2.19,14.06,14.06,0,0,1,2.34,2.88,14.79,14.79,0,0,1,1.52,3.47,14.15,14.15,0,0,1,.55,3.94,13.71,13.71,0,0,1-1.16,5.64,13.81,13.81,0,0,1-3.13,4.48,14.65,14.65,0,0,1-4.69,3,15.5,15.5,0,0,1-5.77,1.07ZM-277,86v16.58h10.65a8,8,0,0,0,3.32-.7,8.56,8.56,0,0,0,2.63-1.87,8.74,8.74,0,0,0,1.73-2.68,7.92,7.92,0,0,0,.63-3.1,7.82,7.82,0,0,0-.63-3.08,8.4,8.4,0,0,0-1.73-2.63,8.38,8.38,0,0,0-2.6-1.83,7.52,7.52,0,0,0-3.23-.69Zm0,21v19.08h11.2a10,10,0,0,0,4-.78,10,10,0,0,0,3.16-2.09,9.7,9.7,0,0,0,2.09-3,9.06,9.06,0,0,0,.76-3.69,9.1,9.1,0,0,0-.76-3.72,9.19,9.19,0,0,0-2.11-3,9.52,9.52,0,0,0-3.19-2,11,11,0,0,0-4-.73Z" transform="translate(283.28 -80.54)"/><path d="M-238.06,128.58a2.31,2.31,0,0,1-.72,1.72,2.39,2.39,0,0,1-1.73.7,2.39,2.39,0,0,1-1.74-.7,2.31,2.31,0,0,1-.72-1.72V83.5a2.31,2.31,0,0,1,.72-1.74,2.46,2.46,0,0,1,1.74-.68,2.45,2.45,0,0,1,1.73.68,2.31,2.31,0,0,1,.72,1.74Z" transform="translate(283.28 -80.54)"/><path d="M-225.65,131a2.29,2.29,0,0,1-1.64-.8,2.55,2.55,0,0,1-.63-1.74V83.54a2.3,2.3,0,0,1,.75-1.78,2.56,2.56,0,0,1,1.79-.68h22.27a2.31,2.31,0,0,1,1.71.7,2.38,2.38,0,0,1,.71,1.76,2.39,2.39,0,0,1-.71,1.73,2.29,2.29,0,0,1-1.71.72H-223v17.67h14.66a2.26,2.26,0,0,1,1.76.68,2.41,2.41,0,0,1,.7,1.74,2.27,2.27,0,0,1-.7,1.7,2.45,2.45,0,0,1-1.76.68H-223v17.67h19.89a2.31,2.31,0,0,1,1.71.7,2.32,2.32,0,0,1,.71,1.71,2.44,2.44,0,0,1-.71,1.78,2.15,2.15,0,0,1-1.71.68Z" transform="translate(283.28 -80.54)"/><path d="M-190,81.39h.08a.23.23,0,0,0,.12.12h0l.08,0a.1.1,0,0,1,.08,0,.22.22,0,0,1,.16.08,2.11,2.11,0,0,1,.66.81l27.18,38.69V83.54a2.37,2.37,0,0,1,.72-1.74,2.43,2.43,0,0,1,1.78-.72,2.27,2.27,0,0,1,1.73.72,2.42,2.42,0,0,1,.69,1.74v45a2.31,2.31,0,0,1-.57,1.56,2.37,2.37,0,0,1-1.42.82,1.89,1.89,0,0,1-.47,0,2.49,2.49,0,0,1-1.83-.74l-.16-.23-.12-.12-27.26-39v37.63a2.31,2.31,0,0,1-.72,1.72,2.39,2.39,0,0,1-1.73.7,2.39,2.39,0,0,1-1.74-.7,2.31,2.31,0,0,1-.72-1.72v-45a2.31,2.31,0,0,1,.72-1.72,2.39,2.39,0,0,1,1.74-.7h.19a3.54,3.54,0,0,1,.74.23Z" transform="translate(283.28 -80.54)"/><path d="M-152.06,84.51a2.18,2.18,0,0,1,0-1.85,2.37,2.37,0,0,1,1.36-1.31,2.39,2.39,0,0,1,1.84,0,2.37,2.37,0,0,1,1.36,1.33l17.12,39.82,17.09-39.82A2.45,2.45,0,0,1-112,81.33a2.33,2.33,0,0,1,1.83,0,2.44,2.44,0,0,1,1.35,1.31,2.14,2.14,0,0,1,0,1.85l-19.34,45a2.56,2.56,0,0,1-1,1.17,2.42,2.42,0,0,1-1.4.35,2.5,2.5,0,0,1-1.23-.41,2.42,2.42,0,0,1-.88-1.11Z" transform="translate(283.28 -80.54)"/><path d="M-100.47,131a2.29,2.29,0,0,1-1.63-.8,2.55,2.55,0,0,1-.63-1.74V83.54a2.33,2.33,0,0,1,.74-1.78,2.6,2.6,0,0,1,1.8-.68h22.27a2.32,2.32,0,0,1,1.71.7,2.37,2.37,0,0,1,.7,1.76,2.39,2.39,0,0,1-.7,1.73,2.3,2.3,0,0,1-1.71.72H-97.81v17.67h14.66a2.26,2.26,0,0,1,1.76.68,2.45,2.45,0,0,1,.7,1.74,2.31,2.31,0,0,1-.7,1.7,2.45,2.45,0,0,1-1.76.68H-97.81v17.67h19.89a2.32,2.32,0,0,1,1.71.7,2.31,2.31,0,0,1,.7,1.71,2.44,2.44,0,0,1-.7,1.78,2.16,2.16,0,0,1-1.71.68Z" transform="translate(283.28 -80.54)"/><path d="M-64.78,81.39h.08a.25.25,0,0,0,.11.12h0l.08,0a.1.1,0,0,1,.08,0,.19.19,0,0,1,.15.08,2,2,0,0,1,.67.81l27.18,38.69V83.54a2.37,2.37,0,0,1,.72-1.74,2.41,2.41,0,0,1,1.78-.72,2.27,2.27,0,0,1,1.73.72,2.41,2.41,0,0,1,.68,1.74v45a2.3,2.3,0,0,1-.56,1.56,2.37,2.37,0,0,1-1.42.82,1.89,1.89,0,0,1-.47,0,2.53,2.53,0,0,1-1.84-.74l-.15-.23-.12-.12L-63.3,91v37.63A2.31,2.31,0,0,1-64,130.3a2.39,2.39,0,0,1-1.74.7,2.39,2.39,0,0,1-1.73-.7,2.31,2.31,0,0,1-.72-1.72v-45a2.31,2.31,0,0,1,.72-1.72,2.39,2.39,0,0,1,1.73-.7h.2a3.54,3.54,0,0,1,.74.23Z" transform="translate(283.28 -80.54)"/><path d="M5.93,83.46a2.31,2.31,0,0,1,.72-1.72,2.52,2.52,0,0,1,3.49,0,2.33,2.33,0,0,1,.7,1.72V114a17.85,17.85,0,0,1-1.31,6.82,17.08,17.08,0,0,1-3.62,5.56,17.34,17.34,0,0,1-5.5,3.74,17.13,17.13,0,0,1-7,1.39,17.78,17.78,0,0,1-7.08-1.39,18.07,18.07,0,0,1-5.66-3.74A17.13,17.13,0,0,1-23,120.78,17.17,17.17,0,0,1-24.42,114V83.62a2.32,2.32,0,0,1,.73-1.76,2.37,2.37,0,0,1,1.73-.7,2.41,2.41,0,0,1,1.74.7,2.35,2.35,0,0,1,.72,1.75v30.2a12.66,12.66,0,0,0,1,5,12.52,12.52,0,0,0,2.73,4,12.69,12.69,0,0,0,4.1,2.71,13,13,0,0,0,5.09,1,12.45,12.45,0,0,0,5-1,12.36,12.36,0,0,0,3.94-2.69,12.29,12.29,0,0,0,2.59-4,13.45,13.45,0,0,0,1-4.89Z" transform="translate(283.28 -80.54)"/><path d="M22,131a2.29,2.29,0,0,1-1.63-.8,2.55,2.55,0,0,1-.63-1.74V83.54a2.33,2.33,0,0,1,.74-1.78,2.58,2.58,0,0,1,1.8-.68H44.54a2.32,2.32,0,0,1,1.71.7,2.52,2.52,0,0,1,0,3.49,2.3,2.3,0,0,1-1.71.72H24.65v17.67H39.31a2.23,2.23,0,0,1,1.75.68,2.42,2.42,0,0,1,.71,1.74,2.28,2.28,0,0,1-.71,1.7,2.41,2.41,0,0,1-1.75.68H24.65v17.67H44.54A2.39,2.39,0,0,1,47,128.54a2.44,2.44,0,0,1-.7,1.78,2.16,2.16,0,0,1-1.71.68Z" transform="translate(283.28 -80.54)"/></g><g class="cls-1"><path class="cls-2" d="M-279.47,131a2.39,2.39,0,0,1-1.74-.7,2.31,2.31,0,0,1-.72-1.72V83.5a2.31,2.31,0,0,1,.72-1.74,2.46,2.46,0,0,1,1.74-.68H-266a12.27,12.27,0,0,1,5,1,13.42,13.42,0,0,1,4.1,2.79A12.83,12.83,0,0,1-254.14,89a12.89,12.89,0,0,1,1,5,12.28,12.28,0,0,1-1.42,5.87,13.1,13.1,0,0,1-3.8,4.42,14.33,14.33,0,0,1,3,2.19,14.06,14.06,0,0,1,2.34,2.88,14.79,14.79,0,0,1,1.52,3.47,14.15,14.15,0,0,1,.55,3.94,13.71,13.71,0,0,1-1.16,5.64,13.81,13.81,0,0,1-3.13,4.48,14.65,14.65,0,0,1-4.69,3,15.5,15.5,0,0,1-5.77,1.07ZM-277,86v16.58h10.65a8,8,0,0,0,3.32-.7,8.56,8.56,0,0,0,2.63-1.87,8.74,8.74,0,0,0,1.73-2.68,7.92,7.92,0,0,0,.63-3.1,7.82,7.82,0,0,0-.63-3.08,8.4,8.4,0,0,0-1.73-2.63,8.38,8.38,0,0,0-2.6-1.83,7.52,7.52,0,0,0-3.23-.69Zm0,21v19.08h11.2a10,10,0,0,0,4-.78,10,10,0,0,0,3.16-2.09,9.7,9.7,0,0,0,2.09-3,9.06,9.06,0,0,0,.76-3.69,9.1,9.1,0,0,0-.76-3.72,9.19,9.19,0,0,0-2.11-3,9.52,9.52,0,0,0-3.19-2,11,11,0,0,0-4-.73Z" transform="translate(283.28 -80.54)"/><path class="cls-2" d="M-238.06,128.58a2.31,2.31,0,0,1-.72,1.72,2.39,2.39,0,0,1-1.73.7,2.39,2.39,0,0,1-1.74-.7,2.31,2.31,0,0,1-.72-1.72V83.5a2.31,2.31,0,0,1,.72-1.74,2.46,2.46,0,0,1,1.74-.68,2.45,2.45,0,0,1,1.73.68,2.31,2.31,0,0,1,.72,1.74Z" transform="translate(283.28 -80.54)"/><path class="cls-2" d="M-225.65,131a2.29,2.29,0,0,1-1.64-.8,2.55,2.55,0,0,1-.63-1.74V83.54a2.3,2.3,0,0,1,.75-1.78,2.56,2.56,0,0,1,1.79-.68h22.27a2.31,2.31,0,0,1,1.71.7,2.38,2.38,0,0,1,.71,1.76,2.39,2.39,0,0,1-.71,1.73,2.29,2.29,0,0,1-1.71.72H-223v17.67h14.66a2.26,2.26,0,0,1,1.76.68,2.41,2.41,0,0,1,.7,1.74,2.27,2.27,0,0,1-.7,1.7,2.45,2.45,0,0,1-1.76.68H-223v17.67h19.89a2.31,2.31,0,0,1,1.71.7,2.32,2.32,0,0,1,.71,1.71,2.44,2.44,0,0,1-.71,1.78,2.15,2.15,0,0,1-1.71.68Z" transform="translate(283.28 -80.54)"/><path class="cls-2" d="M-190,81.39h.08a.23.23,0,0,0,.12.12h0l.08,0a.1.1,0,0,1,.08,0,.22.22,0,0,1,.16.08,2.11,2.11,0,0,1,.66.81l27.18,38.69V83.54a2.37,2.37,0,0,1,.72-1.74,2.43,2.43,0,0,1,1.78-.72,2.27,2.27,0,0,1,1.73.72,2.42,2.42,0,0,1,.69,1.74v45a2.31,2.31,0,0,1-.57,1.56,2.37,2.37,0,0,1-1.42.82,1.89,1.89,0,0,1-.47,0,2.49,2.49,0,0,1-1.83-.74l-.16-.23-.12-.12-27.26-39v37.63a2.31,2.31,0,0,1-.72,1.72,2.39,2.39,0,0,1-1.73.7,2.39,2.39,0,0,1-1.74-.7,2.31,2.31,0,0,1-.72-1.72v-45a2.31,2.31,0,0,1,.72-1.72,2.39,2.39,0,0,1,1.74-.7h.19a3.54,3.54,0,0,1,.74.23Z" transform="translate(283.28 -80.54)"/><path class="cls-2" d="M-152.06,84.51a2.18,2.18,0,0,1,0-1.85,2.37,2.37,0,0,1,1.36-1.31,2.39,2.39,0,0,1,1.84,0,2.37,2.37,0,0,1,1.36,1.33l17.12,39.82,17.09-39.82A2.45,2.45,0,0,1-112,81.33a2.33,2.33,0,0,1,1.83,0,2.44,2.44,0,0,1,1.35,1.31,2.14,2.14,0,0,1,0,1.85l-19.34,45a2.56,2.56,0,0,1-1,1.17,2.42,2.42,0,0,1-1.4.35,2.5,2.5,0,0,1-1.23-.41,2.42,2.42,0,0,1-.88-1.11Z" transform="translate(283.28 -80.54)"/><path class="cls-2" d="M-100.47,131a2.29,2.29,0,0,1-1.63-.8,2.55,2.55,0,0,1-.63-1.74V83.54a2.33,2.33,0,0,1,.74-1.78,2.6,2.6,0,0,1,1.8-.68h22.27a2.32,2.32,0,0,1,1.71.7,2.37,2.37,0,0,1,.7,1.76,2.39,2.39,0,0,1-.7,1.73,2.3,2.3,0,0,1-1.71.72H-97.81v17.67h14.66a2.26,2.26,0,0,1,1.76.68,2.45,2.45,0,0,1,.7,1.74,2.31,2.31,0,0,1-.7,1.7,2.45,2.45,0,0,1-1.76.68H-97.81v17.67h19.89a2.32,2.32,0,0,1,1.71.7,2.31,2.31,0,0,1,.7,1.71,2.44,2.44,0,0,1-.7,1.78,2.16,2.16,0,0,1-1.71.68Z" transform="translate(283.28 -80.54)"/><path class="cls-2" d="M-64.78,81.39h.08a.25.25,0,0,0,.11.12h0l.08,0a.1.1,0,0,1,.08,0,.19.19,0,0,1,.15.08,2,2,0,0,1,.67.81l27.18,38.69V83.54a2.37,2.37,0,0,1,.72-1.74,2.41,2.41,0,0,1,1.78-.72,2.27,2.27,0,0,1,1.73.72,2.41,2.41,0,0,1,.68,1.74v45a2.3,2.3,0,0,1-.56,1.56,2.37,2.37,0,0,1-1.42.82,1.89,1.89,0,0,1-.47,0,2.53,2.53,0,0,1-1.84-.74l-.15-.23-.12-.12L-63.3,91v37.63A2.31,2.31,0,0,1-64,130.3a2.39,2.39,0,0,1-1.74.7,2.39,2.39,0,0,1-1.73-.7,2.31,2.31,0,0,1-.72-1.72v-45a2.31,2.31,0,0,1,.72-1.72,2.39,2.39,0,0,1,1.73-.7h.2a3.54,3.54,0,0,1,.74.23Z" transform="translate(283.28 -80.54)"/><path class="cls-2" d="M5.93,83.46a2.31,2.31,0,0,1,.72-1.72,2.52,2.52,0,0,1,3.49,0,2.33,2.33,0,0,1,.7,1.72V114a17.85,17.85,0,0,1-1.31,6.82,17.08,17.08,0,0,1-3.62,5.56,17.34,17.34,0,0,1-5.5,3.74,17.13,17.13,0,0,1-7,1.39,17.78,17.78,0,0,1-7.08-1.39,18.07,18.07,0,0,1-5.66-3.74A17.13,17.13,0,0,1-23,120.78,17.17,17.17,0,0,1-24.42,114V83.62a2.32,2.32,0,0,1,.73-1.76,2.37,2.37,0,0,1,1.73-.7,2.41,2.41,0,0,1,1.74.7,2.35,2.35,0,0,1,.72,1.75v30.2a12.66,12.66,0,0,0,1,5,12.52,12.52,0,0,0,2.73,4,12.69,12.69,0,0,0,4.1,2.71,13,13,0,0,0,5.09,1,12.45,12.45,0,0,0,5-1,12.36,12.36,0,0,0,3.94-2.69,12.29,12.29,0,0,0,2.59-4,13.45,13.45,0,0,0,1-4.89Z" transform="translate(283.28 -80.54)"/><path class="cls-2" d="M22,131a2.29,2.29,0,0,1-1.63-.8,2.55,2.55,0,0,1-.63-1.74V83.54a2.33,2.33,0,0,1,.74-1.78,2.58,2.58,0,0,1,1.8-.68H44.54a2.32,2.32,0,0,1,1.71.7,2.52,2.52,0,0,1,0,3.49,2.3,2.3,0,0,1-1.71.72H24.65v17.67H39.31a2.23,2.23,0,0,1,1.75.68,2.42,2.42,0,0,1,.71,1.74,2.28,2.28,0,0,1-.71,1.7,2.41,2.41,0,0,1-1.75.68H24.65v17.67H44.54A2.39,2.39,0,0,1,47,128.54a2.44,2.44,0,0,1-.7,1.78,2.16,2.16,0,0,1-1.71.68Z" transform="translate(283.28 -80.54)"/></g></g><rect id="Rectangle_93" data-name="Rectangle 93" class="cls-3" y="63.46" width="8.56" height="314.74"/><rect id="Rectangle_94" data-name="Rectangle 94" class="cls-4" x="882.45" y="563.72" width="8.56" height="25.53"/><rect id="Rectangle_95" data-name="Rectangle 95" class="cls-5" y="386.96" width="8.56" height="49.19"/><rect x="882.72" y="469.64" width="8" height="78.78"/><path d="M607.44,494.77h-8V116.87l-537.5-.12v-8l541.51.12a4,4,0,0,1,4,4Z" transform="translate(283.28 -80.54)"/><path d="M102.9,678.64H-279a4,4,0,0,1-4-4V567.29h8V670.64H102.9Z" transform="translate(283.28 -80.54)"/></svg>